<svg t="1635487061352" class="icon" viewBox="0 0 1024 1024" version="1.1" xmlns="http://www.w3.org/2000/svg" p-id="14914" width="200" height="200"><path d="M512 1024C229.2224 1024 0 794.7776 0 512S229.2224 0 512 0s512 229.2224 512 512-229.2224 512-512 512z m265.6256-557.3632c2.304-3.4816 9.8304-15.0528 4.608-26.624-2.304-3.4304-8.6528-12.1344-24.2688-13.2608h-1.7408l-163.5328-1.1776 42.1888-183.1936V240.64c1.1264-11.5712-1.7408-20.7872-8.0896-27.136a30.5152 30.5152 0 0 0-22.528-8.704c-9.8304 0-19.0976 4.0448-21.4016 5.2224a20.9408 20.9408 0 0 0-5.7856 4.0448L262.656 540.6208c-0.5632 0.5632-0.5632 1.1264-1.1776 1.7408-5.1712 6.3488-8.0896 16.1792-2.304 25.3952 2.9184 4.608 10.3936 12.7488 27.7504 12.7488h147.4048l-80.896 205.1584a8.192 8.192 0 0 0-1.1776 3.4816 23.3472 23.3472 0 0 0 6.912 21.4016c5.2224 5.7856 12.6976 8.6528 22.016 8.6528 5.7344 0 11.52-1.1776 17.8688-3.4816a32.768 32.768 0 0 0 7.5264-4.608l368.7424-342.1696c1.1776-0.5632 1.7408-1.7408 2.304-2.304z" p-id="14915" fill="#ffffff"></path></svg>