<svg t="1635487193391" class="icon" viewBox="0 0 1024 1024" version="1.1" xmlns="http://www.w3.org/2000/svg" p-id="16005" width="200" height="200"><path d="M954.05717 769.072931q-7.792238 13.415637-16.369694 26.305797l-0.089911 0.135865q-8.528505 12.812238-17.795274 25.075023l-0.192808 0.254746q-9.220815 12.18786-19.141933 23.791302l-0.306694 0.358642q-9.875163 11.532513-20.413666 22.462626l-0.428573 0.443558q-3.47354 3.596418-7.014014 7.122905l-0.007992 0.006993q-7.156871 7.123904-14.593463 13.961093l-0.553449 0.509493q-3.623391 3.323689-7.30872 6.579446c-0.086913 0.077922-0.175825 0.153847-0.263737 0.231769q-7.462567 6.578447-15.184875 12.866184l-0.677325 0.55245q-3.760254 3.053958-7.576453 6.037985l-0.514488 0.399602q-7.752278 6.040983-15.739322 11.788258l-0.794209 0.57243q-3.886129 2.784227-7.825205 5.494527l-0.755248 0.516485q-8.027004 5.508513-16.273789 10.716326c-0.299701 0.189811-0.599403 0.380621-0.899105 0.568434q-4.004012 2.517492-8.057973 4.963056c-0.325676 0.199801-0.653349 0.390611-0.980024 0.587415q-8.291741 4.978041-16.793272 9.649388c-0.327674 0.18082-0.655347 0.362639-0.98402 0.54246q-4.116899 2.250758-8.279753 4.42759l-1.185819 0.616386q-4.269747 2.21879-8.581452 4.365651l-0.048951 0.024975q-4.312704 2.13787-8.673361 4.195821c-0.347654 0.163837-0.699303 0.330671-1.042961 0.499502q-4.225791 1.986022-8.491541 3.896119-0.683319 0.305695-1.368637 0.608394-4.339677 1.92708-8.717317 3.781234l-0.452549 0.187813q-4.300716 1.810197-8.642391 3.539474c-0.356645 0.141859-0.71229 0.287713-1.069935 0.428573q-4.331685 1.718288-8.705328 3.356657-0.761242 0.285715-1.525481 0.569432-4.408609 1.639367-8.852182 3.204808c-0.264736 0.092907-0.530472 0.181819-0.799204 0.274727q-4.321695 1.508497-8.679355 2.940071c-0.35165 0.115885-0.699303 0.234766-1.05395 0.349652-2.960052 0.969035-5.93309 1.898109-8.916118 2.817193-0.551451 0.169831-1.098905 0.329672-1.653354 0.499503q-4.479538 1.363642-8.991044 2.637373l-1.082921 0.299701q-4.37664 1.228776-8.78425 2.377632c-0.330671 0.07992-0.660342 0.169831-0.991013 0.259741q-4.54747 1.168836-9.129906 2.267741c-0.58242 0.139861-1.165839 0.269731-1.749257 0.409592q-4.551466 1.078925-9.129906 2.06794c-0.439562 0.08991-0.881122 0.179821-1.320684 0.279722q-4.466551 0.94406-8.961074 1.828179c-0.289711 0.04995-0.577425 0.109891-0.867137 0.169831-3.104907 0.599403-6.222802 1.158846-9.347688 1.698308-0.604398 0.109891-1.208796 0.209791-1.814193 0.309691q-4.623395 0.794209-9.271765 1.488518c-0.499502 0.07992-1.010993 0.149851-1.51549 0.229771q-4.595423 0.674328-9.214821 1.278726c-0.223777 0.01998-0.446555 0.05994-0.671332 0.089911q-4.771247 0.599403-9.572465 1.118885c-0.615387 0.06993-1.229775 0.129871-1.846161 0.199801q-4.695323 0.499502-9.415621 0.899104c-0.555447 0.04995-1.11389 0.08991-1.670336 0.139861-3.177835 0.259741-6.361663 0.509492-9.556481 0.709294l-0.388613 0.02997q-4.88913 0.314687-9.805233 0.519482c-0.614388 0.02997-1.228776 0.05994-1.844163 0.079921q-4.76825 0.209791-9.559478 0.309691l-1.791215 0.02997q-4.990029 0.0999-10.002038 0.109891-3.496517 0-6.974053-0.04995c-0.765238-0.00999-1.527478-0.02997-2.290718-0.03996-1.557449-0.02997-3.113898-0.05994-4.667351-0.099901-0.906097-0.01998-1.811196-0.05994-2.716294-0.08991-1.409596-0.03996-2.819192-0.08991-4.225791-0.139861-0.957047-0.03996-1.913094-0.08991-2.869142-0.129871a543.958167 543.958167 0 0 1-4.059956-0.199801c-0.975029-0.04995-1.949059-0.109891-2.922089-0.169831-1.33567-0.07992-2.669341-0.159841-4.002014-0.249751-0.973031-0.06993-1.944064-0.129871-2.916095-0.199801-1.339666-0.0999-2.677333-0.209791-4.014002-0.309691l-2.857154-0.239761c-1.371634-0.119881-2.74027-0.239761-4.108907-0.369632-0.908095-0.08991-1.81719-0.169831-2.723287-0.259742-1.457548-0.149851-2.912099-0.299701-4.366651-0.459542-0.810193-0.08991-1.622384-0.169831-2.431578-0.269731-1.734273-0.189811-3.464549-0.399602-5.194825-0.619383-0.524478-0.05994-1.049954-0.119881-1.573433-0.189811-2.269739-0.279721-4.534483-0.589413-6.793233-0.899104-0.375626-0.05994-0.749254-0.109891-1.123881-0.169831-1.869138-0.259741-3.736278-0.539463-5.594427-0.819184-0.731272-0.119881-1.460545-0.239761-2.191817-0.349652-1.5055-0.239761-3.010002-0.479522-4.510507-0.729274-0.830173-0.139861-1.658348-0.289711-2.487522-0.429572-1.398607-0.249751-2.797214-0.489512-4.195821-0.739263l-2.590419-0.479523-4.084931-0.779224c-0.869134-0.169831-1.73727-0.339662-2.604406-0.519482-1.359646-0.269731-2.716294-0.549453-4.070945-0.829174l-2.554456-0.539463c-1.384621-0.299701-2.766245-0.599403-4.14587-0.909094-0.810193-0.179821-1.620386-0.359642-2.42958-0.549453q-2.181827-0.494507-4.35666-1.018985l-2.174834-0.509492q-2.458551-0.599403-4.908111-1.218786c-0.527475-0.139861-1.055948-0.269731-1.582424-0.399602q-6.586439-1.693313-13.102948-3.546468l-0.940063-0.269731a500.021931 500.021931 0 0 1-5.474547-1.608398c-0.579423-0.169831-1.156848-0.349652-1.735272-0.519483-1.555451-0.479522-3.108903-0.949055-4.65836-1.438567l-1.998009-0.629373q-2.197811-0.704298-4.379638-1.417588c-0.699303-0.227773-1.389616-0.459542-2.083924-0.690312q-2.14886-0.716287-4.295721-1.448557-1.03397-0.355646-2.066941-0.714289-2.166842-0.754249-4.324693-1.526479-0.980024-0.350651-1.960047-0.704299-2.253755-0.816187-4.495522-1.65635c-0.576426-0.215785-1.153851-0.428573-1.729278-0.645357q-2.470539-0.93407-4.930089-1.893114c-0.414587-0.16084-0.830173-0.319682-1.243761-0.48152q-9.457579-3.710304-18.727346-7.78125l-0.453548-0.199801q-2.805206-1.23477-5.594427-2.497512c-0.38162-0.173827-0.760243-0.349652-1.141863-0.524477q-2.448561-1.120883-4.884135-2.264744c-0.464537-0.218782-0.928076-0.440561-1.392613-0.661342q-2.317691-1.098905-4.622395-2.219789-0.731272-0.355646-1.461545-0.714288-2.286722-1.122882-4.561456-2.266742l-1.406599-0.710293q-2.339669-1.18482-4.662356-2.397611c-0.407594-0.211789-0.816187-0.422579-1.222782-0.636367q-2.497512-1.307697-4.985034-2.645365l-0.83317-0.445556q-14.825233-8.020011-29.045069-16.959107l-0.589412-0.372629q-2.511498-1.582424-5.003017-3.196815l-0.815188-0.530472q-2.397612-1.555451-4.772246-3.135876l-0.857147-0.571431q-2.386623-1.598408-4.754264-3.214798l-0.754249-0.516485q-2.481528-1.704302-4.942077-3.437576l-0.475526-0.334667q-16.53453-11.676369-32.081044-24.602494l-0.215786-0.180819q-2.448561-2.035972-4.870148-4.103913l-0.399602-0.339661q-2.355654-2.015992-4.687331-4.058957-0.199801-0.174826-0.399602-0.352649-2.373636-2.082925-4.720298-4.19582l-0.249752-0.224777q-17.555513-15.821241-33.60053-33.202926l-0.092908-0.099901q-2.215793-2.403606-4.403613-4.835183l-0.216784-0.240761q-2.152856-2.397612-4.27674-4.822196l-0.187813-0.213787A509.521469 509.521469 0 0 1 0.0005 512.489512C0.0005 230.000898 229.002393 0.999005 511.491008 0.999005s511.490508 229.001893 511.490507 511.490507a509.121867 509.121867 0 0 1-68.924345 256.583419zM511.491008 61.174065C262.239286 61.174065 60.17556 263.23779 60.17556 512.489512a449.40535 449.40535 0 0 0 100.705688 284.156953 239.213721 239.213721 0 0 1 288.185939-30.809311C498.703745 805.604542 566.983732 830.17307 642.360649 830.17307c80.220093 0 152.392203-27.827281 202.615176-72.19209-0.424577 0.067932-0.855148 0.115885-1.280724 0.178822C865.949933 737.452428 880.123815 706.246512 880.123815 671.331291c0-62.345898-45.174002-112.887553-100.899495-112.887553-29.470644 0-55.982236 14.140914-74.425865 36.681462a126.148344 126.148344 0 0 1 245.392566 23.64145A452.396371 452.396371 0 0 0 962.806455 512.489512C962.806455 263.23779 760.742729 61.174065 511.491008 61.174065z m254.637357 276.806275L626.082863 197.935837 583.461318 240.560379l-42.383781-42.387777 61.289949-61.288951c0.599403-0.730273 1.238766-1.443562 1.922085-2.126881a29.970147 29.970147 0 0 1 42.383782 0c0.228772 0.228772 0.424577 0.477524 0.644358 0.71229 0.091908-0.104896 0.186814-0.207793 0.28172-0.311689l19.394681 19.39568 0.237763-0.237763 141.280272 141.28127a29.970147 29.970147 0 1 1-42.383782 42.383782z m-62.306937 92.749613c0.242758 0.226774 0.486515 0.450551 0.72328 0.687315a29.931186 29.931186 0 1 1-42.330835 42.326838c-0.238762-0.238762-0.44156-0.499502-0.670332-0.741261l-0.034965 0.035964-204.682117-204.661138L252.179306 473.028819l-0.035964-0.035964c-0.228772 0.244756-0.432569 0.499502-0.670332 0.74226a29.970147 29.970147 0 0 1-42.380785-42.387777c0.236764-0.236764 0.48152-0.460541 0.724279-0.688315l-0.024976-0.017982 222.578292-222.578291a29.955162 29.955162 0 0 1 45.062114-3.766248c0.083916-0.080919 0.17083-0.157843 0.253747-0.240761l21.729355 21.729356-0.264736 0.264736L703.83941 430.71197zM639.363634 498.503444v71.962319c-25.867234 23.019071-42.957211 62.72552-42.95721 107.858562a169.864799 169.864799 0 0 0 6.381643 46.534648A104.250157 104.250157 0 0 1 580.422345 727.275565c-25.833268 0-48.95124-9.308728-64.528723-23.976117H515.487027V558.418763h-0.023976c0.008991-0.158842 0.023976-0.314687 0.023976-0.475527a8.491542 8.491542 0 0 0-8.491542-8.491541c-0.16084 0-0.316685 0.014985-0.475526 0.023976a0.192808 0.192808 0 0 0 0-0.023976H401.575494a0.192808 0.192808 0 0 0 0 0.023976c-0.158842-0.008991-0.314687-0.023976-0.475527-0.023976a8.491542 8.491542 0 0 0-8.491541 8.491541c0 0.16084 0.014985 0.316685 0.023976 0.475527H392.609425V703.299448h-0.57243A161.058571 161.058571 0 0 0 273.727842 699.902831V498.503444l182.831882-179.820882z m-4.495522 270.402653c47.339845 0 89.159189-14.509547 114.346101-36.683459 14.100954-8.934101 23.017073-22.040046 23.017073-36.66348 0-26.920185-30.190927-48.743447-67.432831-48.743447a91.754604 91.754604 0 0 0-18.544528 1.882125c10.805237-14.850208 29.387727-24.659437 50.512685-24.659437a65.601655 65.601655 0 0 1 25.082016 4.932087c-0.129871-0.236764-0.242758-0.476525-0.375626-0.71229 1.279725 0.726277 2.530479 1.470535 3.768246 2.222786a59.957277 59.957277 0 0 1 17.633436 12.897153C799.466157 658.075495 809.194467 675.893746 809.194467 695.107608c0 50.317879-66.643617 91.109247-148.85173 91.109246-51.622579 0-97.103276-16.083979-123.801682-40.514643 1.114889 0.08991 2.246762 0.155845 3.368645 0.237763 24.88721 14.24581 58.262965 22.966124 94.958412 22.966123z" fill="#ffffff" p-id="16006"></path></svg>