<svg t="1635476881341" class="icon" viewBox="0 0 1024 1024" version="1.1" xmlns="http://www.w3.org/2000/svg" p-id="2652" width="200" height="200"><path d="M377.0368 281.531733L369.629867 341.333333H273.066667a170.666667 170.666667 0 0 0 0 341.333334h477.866666a170.666667 170.666667 0 0 0 72.942934-325.0176l-37.341867-17.681067-1.672533-41.301333a204.8 204.8 0 0 0-407.790934-17.134934zM34.133333 512a238.933333 238.933333 0 0 1 238.933334-238.933333h36.2496a273.1008 273.1008 0 0 1 543.744 22.869333A238.933333 238.933333 0 0 1 750.933333 750.933333H273.1008a238.933333 238.933333 0 0 1-238.933333-238.933333z m267.332267 343.210667a34.133333 34.133333 0 0 0-56.797867-37.888l-68.266666 102.4a34.133333 34.133333 0 0 0 56.797866 37.888l68.266667-102.4z m238.933333 0a34.133333 34.133333 0 0 0-56.797866-37.888l-68.266667 102.4a34.133333 34.133333 0 0 0 56.797867 37.888l68.266666-102.4z m238.933334 0a34.133333 34.133333 0 0 0-56.797867-37.888l-68.266667 102.4a34.133333 34.133333 0 0 0 56.797867 37.888l68.266667-102.4z" fill="#ffffff" p-id="2653"></path></svg>