<svg t="1635487266848" class="icon" viewBox="0 0 1562 1024" version="1.1" xmlns="http://www.w3.org/2000/svg" p-id="16343" width="200" height="200"><path d="M26.574 886.033c0 36.891 29.906 66.798 66.798 66.798 0 0 0 0 0 0h648.090l74.206-133.595h-722.329c-36.877 0.020-66.763 29.919-66.763 66.798 0 0 0 0 0 0zM1476.372 831.933l-568.441-24.939-80.005 130.204 642.546 28.211c0.674 0.025 1.466 0.037 2.261 0.037 36.891 0 66.798-29.906 66.798-66.798 0-35.624-27.885-64.733-63.019-66.693zM471.831 752.455h267.156l66.798-133.579h-111.318l133.579-267.106-89.058-22.261 66.798-111.318 22.261 44.538 133.579 22.261-111.318 222.551h111.318l-66.798 244.897 289.434-44.52-44.52-400.735h89.058l-222.636-155.856v-133.545h-44.538v66.781l-155.838-111.318-445.222 400.717h111.318z" p-id="16344" fill="#ffffff"></path></svg>