<svg t="1629877481860" class="icon" viewBox="0 0 1024 1024" version="1.1" xmlns="http://www.w3.org/2000/svg" p-id="15836" width="200" height="200"><path d="M512 0C230.4 0 0 230.4 0 512s230.4 512 512 512 512-230.4 512-512S793.6 0 512 0z m353.28 389.12l-414.72 424.96c-5.12 5.12-15.36 10.24-25.6 10.24s-20.48-5.12-25.6-10.24l-235.52-209.92c-15.36-15.36-15.36-40.96-5.12-56.32 15.36-15.36 40.96-15.36 56.32-5.12l204.8 189.44 389.12-399.36c15.36-15.36 40.96-15.36 56.32 0 15.36 15.36 15.36 40.96 0 56.32z" fill="#f4ea2a" p-id="15837"></path></svg>