<svg t="1635480054868" class="icon" viewBox="0 0 1024 1024" version="1.1" xmlns="http://www.w3.org/2000/svg" p-id="7303" width="200" height="200"><path d="M512 419.84c-50.7904 0-92.16 41.3696-92.16 92.16s41.3696 92.16 92.16 92.16 92.16-41.3696 92.16-92.16-41.3696-92.16-92.16-92.16z m0 122.88c-16.9984 0-30.72-13.7216-30.72-30.72s13.7216-30.72 30.72-30.72 30.72 13.7216 30.72 30.72-13.7216 30.72-30.72 30.72zM686.2848 381.1328l-43.4176-43.4176L980.5824 0h-86.8352L599.4496 294.5024l-43.4176-43.4176L806.912 0h-86.8352L512.6144 207.4624 304.9472 0h-86.8352L468.992 250.88l-0.2048 0.2048 43.4176 43.4176 0.2048-0.2048 2.6624 2.6624h-0.6144l102.6048 102.6048-0.2048 0.2048c8.8064 8.192 16.5888 17.408 23.1424 27.648 12.288 18.6368 20.6848 39.936 23.9616 62.8736v0.4096l50.5856-50.5856 14.9504-14.9504-0.2048-0.2048 294.912-294.912V43.2128l-337.92 337.92zM252.7232 555.6224l43.4176-43.4176-0.8192-0.8192 1.6384-1.6384v1.4336l42.5984-42.5984 43.4176-43.4176 8.192-8.192c2.8672-3.4816 5.7344-6.9632 8.8064-10.24l2.6624-2.6624 1.4336-1.4336 2.6624-2.6624c6.5536-6.144 13.5168-11.6736 20.8896-16.5888 18.432-12.0832 39.7312-20.48 62.6688-23.552l-0.2048-0.2048h0.2048L439.9104 309.248l-155.8528-155.8528 0.4096-0.4096L131.2768 0H44.4416l337.92 337.92-15.9744 15.9744c-4.5056 4.096-8.6016 8.3968-12.6976 12.6976l-14.7456 14.7456L0.2048 42.5984v86.8352l295.3216 295.3216-43.6224 43.2128-251.904-251.904V303.104l208.4864 208.4864L0.2048 719.872v86.8352l251.904-251.904 0.6144 0.8192zM915.0464 326.4512L727.04 514.4576l-101.5808 101.5808-0.4096-0.4096c-23.1424 25.1904-54.4768 42.5984-89.9072 48.128l50.3808 50.3808 162.6112 162.6112-0.4096 0.4096 146.8416 146.8416h86.8352L642.8672 685.056l16.1792-16.1792c3.2768-3.072 6.5536-6.3488 9.6256-9.6256l17.6128-17.6128 337.92 337.92V892.928L729.7024 598.4256l43.4176-43.4176 251.2896 251.0848v-86.8352L816.5376 511.5904l207.872-207.872v-86.8352l-109.3632 109.3632v0.2048zM556.2368 771.6864l-43.4176-43.4176-0.2048 0.2048-1.4336-1.4336h0.4096l-42.1888-42.3936-43.4176-43.2128-8.3968-8.3968c-1.6384-1.2288-3.2768-2.6624-4.9152-4.096-0.4096-0.4096-0.8192-0.6144-1.2288-1.024-1.4336-1.2288-2.8672-2.4576-4.3008-3.8912l-1.024-1.024c-1.4336-1.4336-2.8672-2.6624-4.096-4.096l-1.024-1.024c-1.4336-1.4336-2.6624-2.8672-4.096-4.3008-0.2048-0.4096-0.6144-0.6144-0.8192-1.024-4.5056-5.12-8.6016-10.4448-12.288-16.1792-1.4336-2.2528-2.8672-4.3008-4.096-6.5536-0.2048-0.4096-0.6144-1.024-0.8192-1.4336-1.024-1.8432-2.048-3.4816-2.8672-5.3248l-1.2288-2.4576c-0.8192-1.4336-1.4336-3.072-2.2528-4.5056-0.4096-1.024-0.8192-2.048-1.4336-3.072-0.6144-1.4336-1.2288-2.6624-1.6384-4.096-0.4096-1.2288-1.024-2.2528-1.4336-3.4816-0.4096-1.2288-0.8192-2.2528-1.2288-3.4816-0.4096-1.4336-1.024-2.8672-1.4336-4.096-0.2048-0.8192-0.6144-1.8432-0.8192-2.6624-0.4096-1.6384-1.024-3.4816-1.4336-5.12 0-0.2048-0.2048-0.6144-0.2048-0.8192-1.2288-4.5056-2.048-9.216-2.8672-13.9264v-0.2048L148.2752 747.1104l-0.8192-0.8192L0.2048 893.5424v86.8352l338.7392-338.7392 7.168 7.168c8.8064 10.6496 18.432 20.2752 29.0816 29.0816l7.168 7.168L43.4176 1024h86.8352l295.5264-295.5264L468.992 772.096 217.088 1024h86.8352l208.4864-208.4864L721.1008 1024h86.8352l-251.904-251.904 0.2048-0.4096z" fill="#ffffff" p-id="7304"></path></svg>