<svg t="1635409652891" class="icon" viewBox="0 0 1024 1024" version="1.1" xmlns="http://www.w3.org/2000/svg" p-id="4262" width="200" height="200"><path d="M512.024381 0C229.205333 0 0 229.205333 0 512.024381 0 794.770286 229.205333 1024 512.024381 1024 794.770286 1024 1024 794.770286 1024 512.024381 1024 229.205333 794.770286 0 512.024381 0M849.603048 353.328762l-385.462857 385.462857c-9.411048 9.411048-21.723429 14.09219-34.06019 14.09219s-24.697905-4.681143-34.084571-14.09219l-221.622857-221.647238c-18.822095-18.822095-18.822095-49.322667 0-68.120381 18.822095-18.846476 49.322667-18.846476 68.144762 0l187.562667 187.562667 351.378286-351.402667c18.822095-18.822095 49.322667-18.822095 68.144762 0C868.425143 304.006095 868.425143 334.506667 849.603048 353.328762" p-id="4263" fill="#ffb549"></path></svg>