<svg t="1635410005559" class="icon" viewBox="0 0 1024 1024" version="1.1" xmlns="http://www.w3.org/2000/svg" p-id="5496" width="200" height="200"><path d="M235.459765 19.787294c-20.600471-2.499765-41.833412 15.600941-46.832941 41.200941L19.456 947.410824c-4.969412 25.6 10.631529 51.802353 31.232 54.302117 20.600471 2.499765 41.833412-15.600941 46.802824-41.200941L266.661647 74.089412C271.661176 48.489412 256.060235 22.889412 235.459765 19.787294z m288.406588 41.833412c-20.600471 0-36.201412 13.101176-36.201412 25.6V288.828235c0 15.600941 15.600941 25.6 36.201412 25.6 20.600471 0 36.201412-13.101176 36.201412-25.6V87.190588c0-15.600941-15.600941-25.6-36.201412-25.6z m0 322.710588c-20.600471 0-36.201412 13.101176-36.201412 28.732235v229.737412c0 15.600941 15.600941 28.702118 36.201412 28.702118 20.600471 0 36.201412-13.101176 36.201412-28.702118v-229.737412c0-15.600941-15.600941-28.732235-36.201412-28.732235z m0 364.574118c-20.600471 0-36.201412 13.101176-36.201412 28.702117v196.005647c0 15.631059 15.600941 28.732235 36.201412 28.732236 20.600471 0 36.201412-13.101176 36.201412-28.732236V777.637647c0-15.600941-15.600941-28.702118-36.201412-28.702118z m480.677647 201.005176L835.343059 63.488c-4.969412-25.6-26.202353-43.670588-46.802824-41.200941-23.100235 4.999529-36.201412 28.702118-31.201882 54.302117l169.170823 886.422589c4.969412 25.6 26.202353 43.700706 46.802824 41.200941 20.600471-2.499765 36.201412-28.099765 31.232-54.302118z" fill="#1afa29" p-id="5497"></path></svg>