<svg t="1635410063966" class="icon" viewBox="0 0 1024 1024" version="1.1" xmlns="http://www.w3.org/2000/svg" p-id="5851" width="200" height="200"><path d="M176 964h28c27.1 0 49-21.9 49-49V190c0-27.1-21.9-49-49-49h-28c-27.1 0-49 21.9-49 49v725c0 27.1 21.9 49 49 49zM374 964h28c27.1 0 49-21.9 49-49V190c0-27.1-21.9-49-49-49h-28c-27.1 0-49 21.9-49 49v725c0 27.1 21.9 49 49 49zM901.7 418c0-153.3-94.7-277.5-186.9-277.5s-187 124.2-187 277.5c0 111.4 59.5 117.4 116.4 161.6 12.1 9.4 19.3 23.7 19.3 39V915c0 27.1 21.9 49 49 49h4.5c27.1 0 49-21.9 49-49V618.5c0-15.3 7.2-29.6 19.3-39 56.9-44.1 116.4-50.1 116.4-161.5z" p-id="5852" fill="#d4237a"></path></svg>