<svg t="1635410664934" class="icon" viewBox="0 0 1024 1024" version="1.1" xmlns="http://www.w3.org/2000/svg" p-id="6510" width="200" height="200"><path d="M958.3 111.3c0-24.4-20-44.4-44.4-44.4H102.7c-24.4 0-44.4 20-44.4 44.4v811.1c0 24.4 20 44.4 44.4 44.4h811.1c24.4 0 44.4-20 44.4-44.4V725.3c0-13.5-10.9-24.4-24.4-24.4h-51.1c-13.5 0-24.4 10.9-24.4 24.4v117.1c0 13.5-10.9 24.4-24.4 24.4H182.7c-13.5 0-24.4-10.9-24.4-24.4V191.3c0-13.5 10.9-24.4 24.4-24.4h651.1c13.5 0 24.4 10.9 24.4 24.4v117.1c0 13.5 10.9 24.4 24.4 24.4h51.1c13.5 0 24.4-10.9 24.4-24.4V111.3z" p-id="6511" fill="#FCE38A"></path><path d="M653 370.6c0.1-77.4-62.7-140.2-140.1-140.1-76.1 0.1-139.8 63.8-139.9 139.9-0.1 77.4 62.7 140.2 140.1 140.1 76.1-0.1 139.8-63.8 139.9-139.9zM300 662.5v114c0 11 9 20 20 20h386c11 0 20-9 20-20v-112h54.5c11 0 20-9 20-20v-61c0-22.6-18.4-41-41-41h-145c-1 0-2.1 0.1-3.1 0.1-1.8-0.1-3.6-0.1-5.4-0.1H420c-66 0-120 54-120 120zM917.3 409.2c-7.8-7.8-20.4-7.9-28.3-0.1l-71 70.5c-7.8 7.8-7.9 20.4-0.1 28.3l57.8 58.2c7.8 7.8 20.4 7.9 28.3 0.1l70.9-70.5c7.8-7.8 7.9-20.4 0.1-28.3l-57.7-58.2z" p-id="6512" fill="#FCE38A"></path></svg>