<svg t="1635486647130" class="icon" viewBox="0 0 1024 1024" version="1.1" xmlns="http://www.w3.org/2000/svg" p-id="11843" width="200" height="200"><path d="M1024.113778 564.508444v-53.873777h-195.356445a340.309333 340.309333 0 0 0-62.065777-171.975111l123.050666-129.536-39.082666-37.148445-118.897778 125.155556a309.930667 309.930667 0 0 0-192.682667-91.477334V0h-53.873778v205.653333a311.296 311.296 0 0 0-202.808889 102.001778L153.486222 171.918222l-39.082666 37.148445 134.542222 141.653333a341.788444 341.788444 0 0 0-53.532445 159.914667H0.113778v53.873777h193.991111v405.617778H75.548444a26.965333 26.965333 0 0 0 0 53.873778h873.073778a26.965333 26.965333 0 0 0 0-53.873778h-118.556444v-405.617778z m-247.978667 405.617778h-358.4V536.120889h-53.873778v434.005333H247.921778v-432.355555a264.533333 264.533333 0 1 1 528.156444 0v432.355555z" p-id="11844" fill="#ffffff"></path></svg>