<?xml version="1.0" encoding="utf-8"?>
<!-- Generator: Adobe Illustrator 21.0.0, SVG Export Plug-In . SVG Version: 6.00 Build 0)  -->
<svg version="1.1" id="图层_1" xmlns="http://www.w3.org/2000/svg" xmlns:xlink="http://www.w3.org/1999/xlink" x="0px" y="0px"
	 viewBox="0 0 35 45.5" style="enable-background:new 0 0 35 45.5;" xml:space="preserve">
<style type="text/css">
	.st0{opacity:0.35;fill:#5555FF;enable-background:new    ;}
	.st1{fill:#5555FF;}
	.st2{fill:#FFFFFF;}
	.st3{fill:#3D3DBF;}
</style>
<title>涝_画板 1</title>
<ellipse class="st0" cx="17.3" cy="41.9" rx="10.4" ry="3.3"/>
<ellipse class="st0" cx="17.3" cy="41.4" rx="5.5" ry="1.8"/>
<path class="st1" d="M30.9,9.3c0,0-2.9-8.3-13.9-8.8l0,0C6,1,3.1,9.3,3.1,9.3c-1.9,5.3-1.4,11.2,1.5,16.1C8.6,32.2,14.8,39,17,41.2
	l0,0c2.1-2.3,8.4-9,12.4-15.8C32.3,20.5,32.8,14.6,30.9,9.3z"/>
<circle class="st2" cx="17" cy="15.2" r="13.1"/>
<path class="st3" d="M24.8,7.4C24.4,7,23.7,7,22.9,7.3c-0.8,0.3-1.6,0.7-2.2,1.4l-2.1,2.1l-8.6-2c-0.1,0-0.3,0-0.4,0.1L8,10.4
	c-0.1,0.1-0.1,0.2-0.1,0.3C8,10.9,8,11,8.1,11.1l6.5,3.6L11.4,18l-2.5-0.7c0,0-0.1,0-0.1,0c-0.1,0-0.2,0-0.3,0.1l-1.2,1.2
	c-0.1,0.1-0.1,0.2-0.1,0.3c0,0.1,0.1,0.2,0.2,0.3l3.2,2.4l2.4,3.2c0.1,0.1,0.2,0.2,0.3,0.2h0c0.1,0,0.2,0,0.3-0.1l1.2-1.2
	c0.1-0.1,0.1-0.3,0.1-0.4l-0.7-2.5l3.3-3.3l3.6,6.5c0.1,0.1,0.1,0.2,0.3,0.2c0,0,0.1,0,0.1,0c0.1,0,0.2,0,0.2-0.1l1.6-1.2
	c0.1-0.1,0.2-0.3,0.2-0.4l-2.1-9l2.1-2.1c0.7-0.7,1.1-1.4,1.4-2.2C25.2,8.5,25.2,7.9,24.8,7.4z"/>
<path class="st1" d="M24.8,6.6c-0.5-0.4-1.1-0.4-1.9-0.2c-0.8,0.3-1.6,0.7-2.2,1.4l-2.1,2.1l-8.6-2c-0.1,0-0.3,0-0.4,0.1L8,9.6
	C8,9.7,7.9,9.8,7.9,10c0,0.1,0.1,0.2,0.2,0.3l6.5,3.6l-3.3,3.3l-2.5-0.7c0,0-0.1,0-0.1,0c-0.1,0-0.2,0-0.3,0.1l-1.2,1.2
	c-0.1,0.1-0.1,0.2-0.1,0.3c0,0.1,0.1,0.2,0.2,0.3l3.2,2.4l2.4,3.2c0.1,0.1,0.2,0.2,0.3,0.2h0c0.1,0,0.2,0,0.3-0.1l1.2-1.2
	c0.1-0.1,0.1-0.3,0.1-0.4l-0.7-2.5l3.3-3.3l3.6,6.5c0.1,0.1,0.1,0.2,0.3,0.2c0,0,0.1,0,0.1,0c0.1,0,0.2,0,0.2-0.1l1.6-1.2
	c0.1-0.1,0.2-0.3,0.2-0.4l-2.1-9l2.1-2.1c0.7-0.7,1.1-1.4,1.4-2.2C25.2,7.7,25.2,7.1,24.8,6.6z"/>
</svg>
