<?xml version="1.0" encoding="utf-8"?>
<!-- Generator: Adobe Illustrator 21.0.0, SVG Export Plug-In . SVG Version: 6.00 Build 0)  -->
<svg version="1.1" id="图层_1" xmlns="http://www.w3.org/2000/svg" xmlns:xlink="http://www.w3.org/1999/xlink" x="0px" y="0px"
	 viewBox="0 0 28.3 20.7" style="enable-background:new 0 0 28.3 20.7;" xml:space="preserve">
<style type="text/css">
	.st0{fill:#FFFFFF;}
	.st1{fill:#636363;stroke:#EAEAEA;stroke-miterlimit:10;}
	.st2{fill:none;stroke:#EAEAEA;stroke-miterlimit:10;}
</style>
<image style="display:none;overflow:visible;" width="394" height="261" xlink:href="QQ图片20200611095222.png"  transform="matrix(1 0 0 1 -137.5 -75.1667)">
</image>
<path class="st0" d="M200.9,4.8c-0.8,0.3-2.4,0.9-4,0.9c-3.5,0-3.5-1.4-7-1.4c-1.8,0-3.3,0.8-3.5,0.9V5c0-0.4-0.3-0.7-0.7-0.7
	c0,0,0,0,0,0h-0.6c-0.4,0-0.7,0.3-0.7,0.7v18.6c0,0.4,0.3,0.7,0.7,0.7h0.6c0.4,0,0.7-0.3,0.7-0.7V16c0.3-0.2,1.7-0.9,3.5-0.9
	c3.5,0,3.5,1.4,7,1.4c1.8,0,3.6-0.8,4.2-1.1c0.1-0.1,0.2-0.2,0.2-0.3V5.1c0-0.2-0.1-0.3-0.3-0.3C201,4.8,201,4.8,200.9,4.8z"/>
<ellipse class="st1" cx="142" cy="12.8" rx="11.4" ry="6.5"/>
<rect x="89.3" y="4.8" class="st1" width="15" height="15"/>
<line class="st2" x1="66" y1="4.8" x2="51" y2="17.9"/>
<path class="st0" d="M25.6,4.5c2.3,2.9-2.3,9-6.2,10.8c-3.1,1.4-9.6,4.3-13,3.5c-2.5-0.5-7-3.3-4.4-6.2s6.4-1.3,8-3.5
	C12.4,5.9,19-3.7,25.6,4.5z"/>
<circle class="st1" cx="-32" cy="10.1" r="9"/>
<path class="st0" d="M-85.7,15.6l8.7,6l5.3-7.7l-8.7-6l2.7-3.9l-14,1.9l3.2,13.7L-85.7,15.6z"/>
<g>
	<g>
		<path class="st0" d="M199.4,58.7c0.7,1.6,0.9,4.6-0.2,7.4c-1,2.8-2.6,4.9-2.6,4.9s0.1-1.9,0.1-2.6c0-0.7-0.2-3.4-1.7-5.8
			c-1.5-2.5-5.2-4.8-5.2-4.8l-2.9,4.1L182,48l14.8-0.2l-2.9,4.2c0,0,2.3,1.8,3.3,2.9C199,56.8,199.4,58.7,199.4,58.7L199.4,58.7z
			 M199.4,58.7"/>
	</g>
</g>
</svg>
