<?xml version="1.0" encoding="utf-8"?>
<!-- Generator: Adobe Illustrator 21.0.0, SVG Export Plug-In . SVG Version: 6.00 Build 0)  -->
<svg version="1.1" id="图层_1" xmlns="http://www.w3.org/2000/svg" xmlns:xlink="http://www.w3.org/1999/xlink" x="0px" y="0px"
	 viewBox="0 0 35 45.5" style="enable-background:new 0 0 35 45.5;" xml:space="preserve">
<style type="text/css">
	.st0{opacity:0.35;fill:#F3FF00;enable-background:new    ;}
	.st1{fill:#F3FF00;}
	.st2{fill:#FFFFFF;}
	.st3{fill:#BCBC00;}
</style>
<title>涝_画板 1</title>
<ellipse class="st0" cx="17.3" cy="41.9" rx="10.4" ry="3.3"/>
<ellipse class="st0" cx="17.3" cy="41.4" rx="5.5" ry="1.8"/>
<path class="st1" d="M30.9,9.3c0,0-2.9-8.3-13.9-8.8l0,0C6,1,3.1,9.3,3.1,9.3c-1.9,5.3-1.4,11.2,1.5,16.1C8.6,32.2,14.8,39,17,41.2
	l0,0c2.1-2.3,8.4-9,12.4-15.8C32.3,20.5,32.8,14.6,30.9,9.3z"/>
<circle class="st2" cx="17" cy="15.2" r="13.1"/>
<path class="st3" d="M25.3,21c-1.5,0-3-0.7-3.9-1.9c-0.1-0.1-0.2-0.2-0.2-0.3c-0.1-0.2-0.2-0.3-0.4-0.5c-0.5-0.5-1.5-0.4-2.5-0.3
	h-0.1c-1.4,0.1-3.5,0.1-5-1.2c-0.2-0.2-0.4-0.4-0.6-0.6c-0.2-0.2-0.4-0.4-0.6-0.5c-0.3-0.2-0.6-0.3-0.9-0.4
	c-0.4-0.1-0.8-0.3-1.2-0.6c-0.3-0.2-0.7-0.4-1.1-0.4c-0.5-0.1-0.8-0.6-0.7-1c0.1-0.5,0.6-0.8,1-0.7c0.6,0.1,1.1,0.3,1.7,0.6
	c0.3,0.2,0.6,0.3,0.9,0.4c0.5,0.2,0.9,0.4,1.3,0.6c0.3,0.2,0.6,0.5,0.8,0.8c0.1,0.2,0.3,0.3,0.4,0.4c0.8,0.6,2,0.9,3.7,0.8H18
	c1.2-0.1,2.7-0.2,3.8,0.8c0.2,0.2,0.4,0.5,0.6,0.7c0.1,0.1,0.1,0.2,0.2,0.3c0.6,0.8,1.5,1.2,2.5,1.2c0.5,0,0.9,0.4,0.9,0.9
	S25.8,21,25.3,21L25.3,21z M9.2,18.1c-0.2,0-0.4-0.1-0.6-0.2l0,0l0,0C8,17.6,7.8,17.1,8,16.7s0.7-0.6,1.1-0.5
	c0.2,0.1,0.4,0.2,0.6,0.4c0.4,0.3,0.4,0.9,0.1,1.2l0,0C9.6,18,9.4,18.1,9.2,18.1z M20.8,22.1c-0.2,0-0.4-0.1-0.5-0.2
	c-0.3-0.3-0.6-0.5-0.7-0.6c-0.4-0.3-0.5-0.8-0.2-1.2l0,0c0.3-0.4,0.8-0.5,1.2-0.2l0.2,0.1c0,0,0.3,0.2,0.6,0.4
	c0.4,0.3,0.5,0.8,0.2,1.2C21.3,21.9,21.1,22,20.8,22.1L20.8,22.1z M15.9,21.1c-0.5,0-0.9-0.4-0.9-0.9s0.4-0.9,0.9-0.9h0.4h0.5
	c0.5,0,0.9,0.3,0.9,0.8S17.4,21,16.9,21l0,0h-0.5L15.9,21.1L15.9,21.1z M12.7,20.5c-0.1,0-0.3,0-0.4-0.1c-0.3-0.2-0.6-0.3-0.9-0.6
	l-0.1-0.1c-0.4-0.3-0.4-0.9-0.1-1.2s0.9-0.4,1.2-0.1l0,0l0.1,0.1c0.2,0.1,0.3,0.3,0.5,0.3c0.4,0.2,0.6,0.7,0.4,1.2
	C13.3,20.3,13,20.5,12.7,20.5z M24.1,23.8c-0.2,0-0.4,0-0.7-0.1c-0.5-0.1-0.8-0.6-0.7-1s0.6-0.8,1-0.7c0,0,0,0,0.1,0s0.1,0,0.2,0
	c0.5,0,0.9,0.4,0.9,0.9S24.6,23.8,24.1,23.8L24.1,23.8z M9.1,21.6c-0.2,0-0.4-0.1-0.5-0.2l-0.1-0.1c-0.1,0-0.1-0.1-0.2-0.1
	C7.9,21,7.7,20.4,8,20s0.8-0.6,1.2-0.3l0,0c0.1,0.1,0.2,0.1,0.3,0.2L9.6,20c0.4,0.3,0.5,0.8,0.2,1.2C9.6,21.5,9.4,21.7,9.1,21.6z
	 M17.3,23.9c-0.1,0-0.3,0-0.4-0.1c-0.2-0.1-0.4-0.1-0.7-0.2c-0.5,0-0.8-0.5-0.8-1s0.5-0.8,1-0.8l0,0c0.4,0,0.8,0.1,1.2,0.3
	c0.4,0.2,0.6,0.7,0.4,1.2C17.9,23.7,17.6,23.9,17.3,23.9L17.3,23.9z M12.9,23.7L12.9,23.7c-0.4,0-0.8-0.1-1.2-0.2
	c-0.5-0.1-0.7-0.6-0.6-1.1c0.1-0.4,0.6-0.7,1-0.6c0.3,0.1,0.6,0.1,0.8,0.1c0.5,0,0.9,0.4,0.8,0.9C13.8,23.3,13.4,23.7,12.9,23.7
	L12.9,23.7z M21,24.6c-0.1,0-0.3,0-0.4-0.1h-0.1c-0.5-0.1-0.8-0.5-0.8-1c0.1-0.5,0.5-0.8,1-0.8c0.3,0,0.6,0.1,0.8,0.3
	c0.4,0.3,0.5,0.8,0.2,1.2C21.6,24.5,21.3,24.6,21,24.6z M13.6,9.1l-0.4,0.6l0,0c-0.2-0.1-0.3-0.1-0.5-0.2l-0.2-0.1
	c-0.2-0.1-0.3-0.2-0.5-0.3c-0.3-0.2-0.7-0.4-1-0.7h-0.1l0.4-0.6l-1.1-0.7L8.7,9.4l1.1,0.7l0.4-0.6l0,0c0.4,0.2,0.7,0.5,1.1,0.7
	c0.2,0.1,0.5,0.2,0.7,0.3l0.2,0.1l0.3,0.1l-0.3,0.5l1.1,0.7l1.5-2.2L13.6,9.1z M18.6,11.4v0.7c-0.8,0.1-1.5,0-2.2-0.2l0.3-0.5
	l-1.2-0.5l-1.1,2.4l1.2,0.5l0.3-0.6l0,0c0.7,0.2,1.4,0.3,2.1,0.3h0.7v0.7l1.3-0.1l-0.2-2.6L18.6,11.4z M24.9,14l-0.3,0.6
	c-0.3-0.2-0.6-0.4-0.9-0.6c-0.2-0.2-0.3-0.3-0.4-0.5c-0.1-0.1-0.2-0.3-0.3-0.4L22.9,13l0.4-0.6l-1.1-0.7l-1.4,2.2l1.1,0.7l0.3-0.4
	l0.1,0.1c0.2,0.3,0.4,0.5,0.6,0.7c0.4,0.3,0.8,0.6,1.2,0.9l-0.3,0.6L25,17l1.1-2.4L24.9,14z M14.5,7.7c0.9,0.4,1.8,0.7,2.7,0.9
	l-0.1,0.7l1.3,0.3L18.9,7l-1.3-0.3l-0.1,0.6c-0.8-0.2-1.6-0.5-2.4-0.8L15.4,6l-1.2-0.6L13,7.8l1.2,0.6L14.5,7.7z M21.4,9.2h0.4
	c0.3,0,0.6,0,0.8,0c0.3,0.1,0.6,0.3,0.9,0.5l-0.4,0.5l1,0.8l1.7-2l-1-0.8l-0.4,0.5C24,8.3,23.5,8.1,22.9,8c-0.4-0.1-0.7-0.1-1.1-0.1
	h-0.3V7.2l-1.3-0.1L20,9.8l1.3,0.1L21.4,9.2z"/>
<path class="st1" d="M25.5,20.2c-1.5,0-3-0.7-3.9-1.9c-0.1-0.1-0.2-0.2-0.2-0.3c-0.1-0.2-0.2-0.3-0.4-0.5c-0.5-0.5-1.5-0.4-2.5-0.3
	h-0.1c-1.4,0.1-3.5,0.1-5-1.2c-0.2-0.2-0.4-0.4-0.6-0.6c-0.2-0.2-0.4-0.4-0.6-0.5c-0.3-0.2-0.6-0.3-0.9-0.4
	c-0.4-0.1-0.8-0.3-1.2-0.6c-0.3-0.2-0.7-0.4-1.1-0.4c-0.5-0.1-0.8-0.6-0.7-1s0.6-0.8,1-0.7c0.6,0.1,1.1,0.3,1.7,0.6
	c0.3,0.2,0.6,0.3,0.9,0.4c0.5,0.2,0.9,0.4,1.3,0.6c0.3,0.2,0.6,0.5,0.8,0.8c0.1,0.2,0.3,0.3,0.4,0.4c0.8,0.6,2,0.9,3.7,0.8h0.1
	c1.2-0.1,2.7-0.2,3.8,0.8c0.2,0.2,0.4,0.5,0.6,0.7c0.1,0.1,0.1,0.2,0.2,0.3c0.6,0.8,1.5,1.2,2.5,1.2c0.5,0,0.9,0.4,0.9,0.9
	S26,20.2,25.5,20.2L25.5,20.2z M9.4,17.4c-0.2,0-0.4-0.1-0.6-0.2l0,0l0,0c-0.4-0.2-0.7-0.7-0.5-1.1s0.7-0.6,1.1-0.5
	c0.2,0.1,0.4,0.2,0.6,0.4c0.4,0.3,0.4,0.9,0.1,1.2l0,0C9.9,17.3,9.7,17.4,9.4,17.4z M21.1,21.3c-0.2,0-0.4-0.1-0.5-0.2
	c-0.3-0.3-0.6-0.5-0.7-0.6c-0.4-0.3-0.5-0.8-0.2-1.2l0,0c0.3-0.4,0.8-0.5,1.2-0.2l0.2,0.1c0,0,0.3,0.2,0.6,0.4
	c0.4,0.3,0.5,0.8,0.2,1.2C21.6,21.1,21.3,21.3,21.1,21.3L21.1,21.3z M16.2,20.3c-0.5,0-0.9-0.4-0.9-0.9s0.4-0.9,0.9-0.9h0.4h0.5
	c0.5,0,0.9,0.3,0.9,0.8s-0.3,0.9-0.8,0.9l0,0h-0.5L16.2,20.3L16.2,20.3z M12.9,19.8c-0.1,0-0.3,0-0.4-0.1c-0.3-0.2-0.6-0.3-0.9-0.6
	L11.5,19c-0.4-0.3-0.4-0.9-0.1-1.2c0.3-0.4,0.9-0.4,1.2-0.1l0,0l0.1,0.1c0.2,0.1,0.3,0.3,0.5,0.3c0.4,0.2,0.6,0.7,0.4,1.2
	C13.6,19.6,13.3,19.8,12.9,19.8z M24.4,23c-0.2,0-0.4,0-0.7-0.1c-0.5-0.1-0.8-0.6-0.7-1c0.1-0.5,0.6-0.8,1-0.7c0,0,0,0,0.1,0
	s0.1,0,0.2,0c0.5,0,0.9,0.4,0.9,0.9S24.9,23,24.4,23L24.4,23z M9.3,20.9c-0.2,0-0.4-0.1-0.5-0.2l-0.1-0.1c-0.1,0-0.1-0.1-0.2-0.1
	c-0.4-0.2-0.6-0.8-0.3-1.2C8.4,18.9,9,18.7,9.4,19l0,0c0.1,0.1,0.2,0.1,0.3,0.2l0.1,0.1c0.4,0.3,0.5,0.8,0.2,1.2
	C9.9,20.8,9.6,20.9,9.3,20.9z M17.5,23.1c-0.1,0-0.3,0-0.4-0.1c-0.2-0.1-0.4-0.1-0.7-0.2c-0.5,0-0.8-0.5-0.8-1s0.5-0.8,1-0.8l0,0
	c0.4,0,0.8,0.1,1.2,0.3c0.4,0.2,0.6,0.7,0.4,1.2C18.2,22.9,17.9,23.1,17.5,23.1L17.5,23.1z M13.1,22.9L13.1,22.9
	c-0.4,0-0.8-0.1-1.2-0.2c-0.5-0.1-0.7-0.6-0.6-1.1c0.1-0.4,0.6-0.7,1-0.6c0.3,0.1,0.6,0.1,0.8,0.1c0.5,0,0.9,0.4,0.8,0.9
	C14,22.6,13.6,22.9,13.1,22.9L13.1,22.9z M21.3,23.9c-0.1,0-0.3,0-0.4-0.1h-0.1c-0.5-0.1-0.8-0.5-0.8-1s0.5-0.8,1-0.8
	c0.3,0,0.6,0.1,0.8,0.3c0.4,0.3,0.5,0.8,0.2,1.2C21.8,23.7,21.6,23.9,21.3,23.9z M13.8,8.3l-0.4,0.6l0,0c-0.2-0.1-0.3-0.1-0.5-0.2
	l-0.2-0.1c-0.2-0.1-0.3-0.2-0.5-0.3c-0.3-0.2-0.7-0.4-1-0.7h-0.1L11.5,7l-1.1-0.7L8.9,8.6L10,9.3l0.4-0.6l0,0
	c0.4,0.2,0.7,0.5,1.1,0.7c0.2,0.1,0.5,0.2,0.7,0.3l0.2,0.1l0.3,0.1l-0.3,0.5l1.1,0.7L14.9,9L13.8,8.3z M18.8,10.6v0.7
	c-0.8,0.1-1.5,0-2.2-0.2l0.3-0.5L15.7,10l-1.1,2.4l1.2,0.5l0.3-0.6l0,0c0.7,0.2,1.4,0.3,2.1,0.3H19v0.7l1.3-0.1l-0.2-2.6L18.8,10.6z
	 M25.1,13.3l-0.3,0.6c-0.3-0.2-0.6-0.4-0.9-0.6c-0.2-0.2-0.3-0.3-0.4-0.5c-0.1-0.1-0.2-0.3-0.3-0.4l-0.1-0.1l0.4-0.6L22.4,11L21,13
	l1.1,0.7l0.3-0.4l0.1,0.1c0.2,0.3,0.4,0.5,0.6,0.7c0.4,0.3,0.8,0.6,1.2,0.9L24,15.6l1.2,0.6l1.1-2.4L25.1,13.3z M14.8,6.9
	c0.9,0.4,1.8,0.7,2.7,0.9l-0.1,0.7l1.3,0.3l0.6-2.6L17.9,6l-0.1,0.6c-0.8-0.2-1.6-0.5-2.4-0.8l0.3-0.6l-1.2-0.6L13.3,7l1.2,0.6
	L14.8,6.9z M21.7,8.4h0.4c0.3,0,0.6,0,0.8,0c0.3,0.1,0.6,0.3,0.9,0.5l-0.4,0.5l1,0.8L26,8.1l-1-0.8l-0.4,0.5
	c-0.4-0.4-0.9-0.6-1.5-0.7C22.7,7,22.4,7,22,7h-0.3V6.5l-1.3-0.1L20.3,9l1.3,0.1L21.7,8.4z"/>
</svg>
