<?xml version="1.0" encoding="utf-8"?>
<!-- Generator: Adobe Illustrator 21.0.0, SVG Export Plug-In . SVG Version: 6.00 Build 0)  -->
<svg version="1.1" id="图层_1" xmlns="http://www.w3.org/2000/svg" xmlns:xlink="http://www.w3.org/1999/xlink" x="0px" y="0px"
	 viewBox="0 0 35 45.5" style="enable-background:new 0 0 35 45.5;" xml:space="preserve">
<style type="text/css">
	.st0{opacity:0.35;fill:#D7222A;enable-background:new    ;}
	.st1{fill:#D7222A;}
	.st2{fill:#FFFFFF;}
	.st3{fill:#932203;enable-background:new    ;}
</style>
<title>涝_画板 1</title>
<ellipse class="st0" cx="17.3" cy="41.9" rx="10.4" ry="3.3"/>
<ellipse class="st0" cx="17.3" cy="41.4" rx="5.5" ry="1.8"/>
<path class="st1" d="M30.9,9.3c0,0-2.9-8.3-13.9-8.8l0,0C6,1,3.1,9.3,3.1,9.3c-1.9,5.3-1.4,11.2,1.5,16.1C8.6,32.2,14.8,39,17,41.2
	l0,0c2.1-2.3,8.4-9,12.4-15.8C32.3,20.5,32.8,14.6,30.9,9.3z"/>
<circle class="st2" cx="17" cy="15.2" r="13.1"/>
<path class="st3" d="M25.7,13.3c-0.1-2-0.6-3.9-1.3-5.8c-0.1-0.2-0.2-0.3-0.5-0.4c-0.2,0-0.4,0-0.6,0.2c-1,1.2-2.3,2.1-3.8,2.7
	c-0.8,0.4-1.8,0.7-2.7,0.9c-0.2,0-0.3,0.1-0.5,0.1l0,0c0-0.2-0.2-0.4-0.4-0.4H11c-2.3,0-4.1,1.8-4.1,4.1c0,1.1,0.5,2.1,1.2,2.9
	c0.4,0.4,1,0.8,1.6,1c0.3,0.1,0.5,0.4,0.6,0.7c0,0.3,0.1,0.7,0.1,1c0.3,1.1,0.9,1.8,1.4,2.3c0.3,0.3,0.7,0.2,0.9-0.1l0.4-0.5
	c0.2-0.3,0.1-0.6-0.1-0.8c-0.3-0.3-0.6-0.7-0.8-1.3l0,0c-0.1-0.5,0.3-1,0.8-1h2.9c0.2,0,0.4-0.2,0.4-0.4c0.2,0,0.3,0.1,0.5,0.1
	c0.9,0.2,1.9,0.5,2.7,0.9c1.4,0.7,2.8,1.6,3.9,2.7c0.1,0.1,0.3,0.2,0.4,0.2h0.1c0.2,0,0.4-0.2,0.5-0.4c0.7-1.9,1.1-3.8,1.3-5.8
	c0.4-0.2,0.7-0.7,0.7-1.4C26.4,14.1,26.1,13.5,25.7,13.3L25.7,13.3z M23.6,20.5c-1.1-0.9-2.3-1.7-3.6-2.3c-0.9-0.4-1.9-0.8-3-1
	c-0.3-0.1-0.5-0.1-0.8-0.2v-4.8c0.3,0,0.5-0.1,0.8-0.2c1-0.2,2.1-0.6,3-1c1.3-0.6,2.5-1.4,3.6-2.3c0.6,1.9,0.9,3.8,0.9,5.8
	S24.2,18.6,23.6,20.5z"/>
<path class="st1" d="M25.3,12.3c-0.1-2-0.6-3.9-1.3-5.8c-0.1-0.2-0.2-0.3-0.5-0.4c-0.2,0-0.4,0-0.6,0.2C21.7,7.4,20.4,8.4,19,9
	c-0.8,0.4-1.8,0.7-2.7,0.9C16.2,10,16,10,15.9,10l0,0c0-0.2-0.2-0.4-0.4-0.4h-4.9c-2.3,0-4.1,1.8-4.1,4.1c0,1.1,0.5,2.1,1.2,2.9
	c0.4,0.4,1,0.8,1.6,1c0.3,0.1,0.5,0.4,0.6,0.7c0,0.3,0.1,0.7,0.1,1c0.3,1.1,0.9,1.8,1.4,2.3c0.3,0.3,0.7,0.2,0.9-0.1l0.4-0.5
	c0.2-0.3,0.1-0.6-0.1-0.8c-0.3-0.3-0.6-0.7-0.8-1.3l0,0c-0.1-0.5,0.3-1,0.8-1h2.9c0.2,0,0.4-0.2,0.4-0.4c0.2,0,0.3,0.1,0.5,0.1
	c0.9,0.2,1.9,0.5,2.7,0.9c1.4,0.7,2.8,1.6,3.9,2.7c0.1,0.1,0.3,0.2,0.4,0.2h0.1c0.2,0,0.4-0.2,0.5-0.4c0.7-1.9,1.1-3.8,1.3-5.8
	c0.4-0.2,0.7-0.7,0.7-1.4C25.9,13.1,25.7,12.5,25.3,12.3L25.3,12.3z M23.1,19.5c-1.1-0.9-2.3-1.7-3.6-2.3c-0.9-0.4-1.9-0.8-3-1
	c-0.3-0.1-0.5-0.1-0.8-0.2v-4.8c0.3,0,0.5-0.1,0.8-0.2c1-0.2,2.1-0.6,3-1c1.3-0.6,2.5-1.4,3.6-2.3c0.6,1.9,0.9,3.8,0.9,5.8
	S23.7,17.6,23.1,19.5z"/>
</svg>
