<?xml version="1.0" encoding="utf-8"?>
<!-- Generator: Adobe Illustrator 21.0.0, SVG Export Plug-In . SVG Version: 6.00 Build 0)  -->
<svg version="1.1" id="图层_1" xmlns="http://www.w3.org/2000/svg" xmlns:xlink="http://www.w3.org/1999/xlink" x="0px" y="0px"
	 viewBox="0 0 21.8 20.8" style="enable-background:new 0 0 21.8 20.8;" xml:space="preserve">
<style type="text/css">
	.st0{fill:#FFFFFF;}
	.st1{fill:#636363;stroke:#EAEAEA;stroke-miterlimit:10;}
	.st2{fill:none;stroke:#EAEAEA;stroke-miterlimit:10;}
</style>
<image style="display:none;overflow:visible;" width="394" height="261" xlink:href="QQ图片20200611095222.png"  transform="matrix(1 0 0 1 -94.6667 -75)">
</image>
<path class="st0" d="M243.8,5c-0.8,0.3-2.4,0.9-4,0.9c-3.5,0-3.5-1.4-7-1.4c-1.8,0-3.3,0.8-3.5,0.9V5.2c0-0.4-0.3-0.7-0.7-0.7
	c0,0,0,0,0,0H228c-0.4,0-0.7,0.3-0.7,0.7v18.6c0,0.4,0.3,0.7,0.7,0.7h0.6c0.4,0,0.7-0.3,0.7-0.7v-7.6c0.3-0.2,1.7-0.9,3.5-0.9
	c3.5,0,3.5,1.4,7,1.4c1.8,0,3.6-0.8,4.2-1.1c0.1-0.1,0.2-0.2,0.2-0.3V5.3c0-0.2-0.1-0.3-0.3-0.3C243.8,5,243.8,5,243.8,5z"/>
<ellipse class="st1" cx="184.8" cy="13" rx="11.4" ry="6.5"/>
<rect x="132.2" y="5" class="st1" width="15" height="15"/>
<line class="st2" x1="108.8" y1="4.9" x2="93.8" y2="18"/>
<path class="st0" d="M68.4,4.7c2.3,2.9-2.3,9-6.2,10.8c-3.1,1.4-9.6,4.3-13,3.5c-2.5-0.5-7-3.3-4.4-6.2c2.6-2.8,6.4-1.3,8-3.5
	C55.2,6.1,61.8-3.6,68.4,4.7z"/>
<circle class="st1" cx="10.8" cy="10.3" r="9"/>
<path class="st0" d="M-42.9,15.8l8.7,6l5.3-7.7l-8.7-6l2.7-3.9l-14,1.9l3.2,13.7L-42.9,15.8z"/>
<g>
	<g>
		<path class="st0" d="M242.2,58.8c0.7,1.6,0.9,4.6-0.2,7.4c-1,2.8-2.6,4.9-2.6,4.9s0.1-1.9,0.1-2.6c0-0.7-0.2-3.4-1.7-5.8
			c-1.5-2.5-5.2-4.8-5.2-4.8l-2.9,4.1l-5-13.9l14.8-0.2l-2.9,4.2c0,0,2.3,1.8,3.3,2.9C241.8,57,242.2,58.8,242.2,58.8L242.2,58.8z
			 M242.2,58.8"/>
	</g>
</g>
</svg>
