<?xml version="1.0" encoding="utf-8"?>
<!-- Generator: Adobe Illustrator 21.0.0, SVG Export Plug-In . SVG Version: 6.00 Build 0)  -->
<svg version="1.1" id="图层_1" xmlns="http://www.w3.org/2000/svg" xmlns:xlink="http://www.w3.org/1999/xlink" x="0px" y="0px"
	 viewBox="0 0 35 45.5" style="enable-background:new 0 0 35 45.5;" xml:space="preserve">
<style type="text/css">
	.st0{opacity:0.35;fill:#5555FF;enable-background:new    ;}
	.st1{fill:#5555FF;}
	.st2{fill:#FFFFFF;}
	.st3{opacity:0.8;fill:#0A0AC1;}
</style>
<title>涝_画板 1</title>
<ellipse class="st0" cx="17.3" cy="41.9" rx="10.4" ry="3.3"/>
<ellipse class="st0" cx="17.3" cy="41.4" rx="5.5" ry="1.8"/>
<path class="st1" d="M30.9,9.3c0,0-2.9-8.3-13.9-8.8l0,0C6,1,3.1,9.3,3.1,9.3c-1.9,5.3-1.4,11.2,1.5,16.1C8.6,32.2,14.8,39,17,41.2
	l0,0c2.1-2.3,8.4-9,12.4-15.8C32.3,20.5,32.8,14.6,30.9,9.3z"/>
<circle class="st2" cx="17" cy="15.2" r="13.1"/>
<path class="st3" d="M24.8,7.6c0-0.6-0.5-0.4-0.7-0.3c-0.3,0.3-1.2,1.1-3,1.4c-0.3,0.1-0.5,0.1-0.8,0.1c-0.9,0-1.6-0.3-2.4-0.6
	c-1-0.4-2-0.8-3.5-0.8c-0.1,0-0.3,0-0.4,0c-1.6,0.1-3,0.8-4,1.3C9.6,9,9.3,9.1,9,9.3L8.9,9l0,0C8.8,8.7,8.4,8.5,8.1,8.7
	C7.9,8.7,7.8,8.9,7.7,9c-0.1,0.2-0.1,0.3,0,0.5l6.7,16c0.1,0.2,0.3,0.4,0.6,0.4c0.1,0,0.2,0,0.3-0.1c0.3-0.1,0.5-0.5,0.3-0.9
	l-2.3-5.5c0.3-0.5,0.9-1.3,2.2-1.7c0.4-0.1,0.8-0.2,1.3-0.2c0.9,0,1.7,0.2,2.6,0.4c0.8,0.2,1.6,0.4,2.4,0.4c1.2,0,2.1-0.4,2.9-1.3
	c0,0,0.1-0.1,0.1-0.2L24.8,7.6L24.8,7.6z"/>
<path class="st1" d="M24,6.9c0-0.6-0.5-0.4-0.7-0.3c-0.3,0.3-1.2,1.1-3,1.4c-0.3,0.1-0.5,0.1-0.8,0.1c-0.9,0-1.6-0.3-2.4-0.6
	c-1-0.4-2-0.8-3.5-0.8c-0.1,0-0.3,0-0.4,0c-1.6,0.1-3,0.8-4,1.3C8.8,8.2,8.5,8.3,8.3,8.5L8.2,8.3l0,0C8,7.9,7.6,7.7,7.3,7.9
	C7.1,8,7,8.1,6.9,8.3c-0.1,0.2-0.1,0.3,0,0.5l6.7,16c0.1,0.2,0.3,0.4,0.6,0.4c0.1,0,0.2,0,0.3-0.1c0.3-0.1,0.5-0.5,0.3-0.9l-2.3-5.5
	c0.3-0.5,0.9-1.3,2.2-1.7c0.4-0.1,0.8-0.2,1.3-0.2c0.9,0,1.7,0.2,2.6,0.4c0.8,0.2,1.6,0.4,2.4,0.4c1.2,0,2.1-0.4,2.9-1.3
	c0,0,0.1-0.1,0.1-0.2L24,6.9L24,6.9z"/>
</svg>
