<?xml version="1.0" encoding="utf-8"?>
<!-- Generator: Adobe Illustrator 21.0.0, SVG Export Plug-In . SVG Version: 6.00 Build 0)  -->
<svg version="1.1" id="图层_1" xmlns="http://www.w3.org/2000/svg" xmlns:xlink="http://www.w3.org/1999/xlink" x="0px" y="0px"
	 viewBox="0 0 35 45.5" style="enable-background:new 0 0 35 45.5;" xml:space="preserve">
<style type="text/css">
	.st0{opacity:0.35;fill:#6900FF;enable-background:new    ;}
	.st1{fill:#6900FF;}
	.st2{fill:#FFFFFF;}
	.st3{fill:#4A0BAD;}
</style>
<title>涝_画板 1</title>
<ellipse class="st0" cx="17.3" cy="41.9" rx="10.4" ry="3.3"/>
<ellipse class="st0" cx="17.3" cy="41.4" rx="5.5" ry="1.8"/>
<path class="st1" d="M30.9,9.3c0,0-2.9-8.3-13.9-8.8l0,0C6,1,3.1,9.3,3.1,9.3c-1.9,5.3-1.4,11.2,1.5,16.1C8.6,32.2,14.8,39,17,41.2
	l0,0c2.1-2.3,8.4-9,12.4-15.8C32.3,20.5,32.8,14.6,30.9,9.3z"/>
<circle class="st2" cx="17" cy="15.2" r="13.1"/>
<g>
	<path class="st3" d="M19.2,5.4c0-0.3-0.3-0.2-0.4-0.1c-0.2,0.2-0.7,0.6-1.7,0.8c-0.2,0-0.3,0.1-0.5,0.1c-0.5,0-0.9-0.2-1.4-0.3
		c-0.5-0.2-1.1-0.5-2-0.5c-0.1,0-0.1,0-0.2,0c-0.9,0-1.7,0.4-2.3,0.7c-0.2,0.1-0.3,0.2-0.5,0.2l-0.1-0.1l0,0
		C10.2,5.9,10,5.9,9.8,5.9C9.7,6,9.7,6,9.6,6.1c0,0.1,0,0.2,0,0.3l3.7,9c0.1,0.1,0.2,0.2,0.3,0.2c0.1,0,0.1,0,0.1,0
		c0.2-0.1,0.3-0.3,0.2-0.5L12.8,12c0.2-0.3,0.5-0.7,1.2-0.9c0.2-0.1,0.5-0.1,0.7-0.1c0.5,0,0.9,0.1,1.4,0.2c0.5,0.1,0.9,0.2,1.4,0.2
		c0.7,0,1.2-0.2,1.7-0.7c0,0,0-0.1,0-0.1L19.2,5.4L19.2,5.4z"/>
	<polygon class="st3" points="17.4,12.7 9.8,17.8 25,17.8 	"/>
	<rect x="9.8" y="18.6" class="st3" width="15.2" height="4.7"/>
</g>
<g>
	<path class="st1" d="M18.8,5.6c0-0.3-0.3-0.2-0.4-0.1c-0.2,0.2-0.7,0.6-1.7,0.8c-0.2,0-0.3,0.1-0.5,0.1c-0.5,0-0.9-0.2-1.4-0.3
		c-0.5-0.2-1.1-0.5-2-0.5c-0.1,0-0.1,0-0.2,0c-0.9,0-1.7,0.4-2.3,0.7c-0.2,0.1-0.3,0.2-0.5,0.2L10,6.4l0,0C9.9,6.2,9.7,6.1,9.5,6.2
		c-0.1,0-0.2,0.1-0.2,0.2c0,0.1,0,0.2,0,0.3l3.7,9c0.1,0.1,0.2,0.2,0.3,0.2c0.1,0,0.1,0,0.1,0c0.2-0.1,0.3-0.3,0.2-0.5l-1.3-3.1
		c0.2-0.3,0.5-0.7,1.2-0.9c0.2-0.1,0.5-0.1,0.7-0.1c0.5,0,0.9,0.1,1.4,0.2c0.5,0.1,0.9,0.2,1.4,0.2c0.7,0,1.2-0.2,1.7-0.7
		c0,0,0-0.1,0-0.1L18.8,5.6L18.8,5.6z"/>
	<polygon class="st1" points="17.1,13 9.4,18 24.7,18 	"/>
	<rect x="9.4" y="18.8" class="st1" width="15.2" height="4.7"/>
</g>
</svg>
