<?xml version="1.0" encoding="utf-8"?>
<!-- Generator: Adobe Illustrator 21.0.0, SVG Export Plug-In . SVG Version: 6.00 Build 0)  -->
<svg version="1.1" id="图层_1" xmlns="http://www.w3.org/2000/svg" xmlns:xlink="http://www.w3.org/1999/xlink" x="0px" y="0px"
	 viewBox="0 0 23.5 21.3" style="enable-background:new 0 0 23.5 21.3;" xml:space="preserve">
<style type="text/css">
	.st0{fill:#FFFFFF;}
	.st1{fill:#636363;stroke:#EAEAEA;stroke-miterlimit:10;}
	.st2{fill:none;stroke:#EAEAEA;stroke-miterlimit:10;}
</style>
<image style="display:none;overflow:visible;" width="394" height="261" xlink:href="QQ图片20200611095222.png"  transform="matrix(1 0 0 1 -262.75 -123)">
</image>
<path class="st0" d="M75.7-43c-0.8,0.3-2.4,0.9-4,0.9c-3.5,0-3.5-1.4-7-1.4c-1.8,0-3.3,0.8-3.5,0.9v-0.2c0-0.4-0.3-0.7-0.7-0.7
	c0,0,0,0,0,0h-0.6c-0.4,0-0.7,0.3-0.7,0.7v18.6c0,0.4,0.3,0.7,0.7,0.7h0.6c0.4,0,0.7-0.3,0.7-0.7v-7.6c0.3-0.2,1.7-0.9,3.5-0.9
	c3.5,0,3.5,1.4,7,1.4c1.8,0,3.6-0.8,4.2-1.1c0.1-0.1,0.2-0.2,0.2-0.3v-10.1c0-0.2-0.1-0.3-0.3-0.3C75.8-43,75.7-43,75.7-43z"/>
<ellipse class="st1" cx="16.8" cy="-35" rx="11.4" ry="6.5"/>
<rect x="-35.9" y="-43" class="st1" width="15" height="15"/>
<line class="st2" x1="-59.3" y1="-43.1" x2="-74.3" y2="-30"/>
<path class="st0" d="M-99.6-43.3c2.3,2.9-2.3,9-6.2,10.8c-3.1,1.4-9.6,4.3-13,3.5c-2.5-0.5-7-3.3-4.4-6.2c2.6-2.8,6.4-1.3,8-3.5
	C-112.9-41.9-106.2-51.6-99.6-43.3z"/>
<circle class="st1" cx="-157.3" cy="-37.7" r="9"/>
<path class="st0" d="M-211-32.2l8.7,6l5.3-7.7l-8.7-6l2.7-3.9l-14,1.9l3.2,13.7L-211-32.2z"/>
<g>
	<g>
		<path class="st0" d="M74.2,10.8c0.7,1.6,0.9,4.6-0.2,7.4c-1,2.8-2.6,4.9-2.6,4.9s0.1-1.9,0.1-2.6c0-0.7-0.2-3.4-1.7-5.8
			c-1.5-2.5-5.2-4.8-5.2-4.8l-2.9,4.1l-5-13.9L71.5,0l-2.9,4.2c0,0,2.3,1.8,3.3,2.9C73.7,9,74.2,10.8,74.2,10.8L74.2,10.8z
			 M74.2,10.8"/>
	</g>
</g>
<path class="st0" d="M8.2,1.5L1.3,7l2.7,0.4c0,0-2.8,3.5-1.6,7.9s3.8,4.9,5.1,5c1.2,0.1,10,0,10,0s3.5-0.9,3.8-6.1
	c0.4-5.4-2.4-7.6-2.4-7.6l2.4-0.7l-6.9-4.6l0,6.9L17,7.4c0,0,1.3,5.4-0.7,7.5c-2.3,2.3-8,1.2-9,0.3C4.6,12.6,6,7.7,6,7.7l3,0.8
	L8.2,1.5z"/>
</svg>
