<?xml version="1.0" encoding="utf-8"?>
<!-- Generator: Adobe Illustrator 21.0.0, SVG Export Plug-In . SVG Version: 6.00 Build 0)  -->
<svg version="1.1" id="图层_1" xmlns="http://www.w3.org/2000/svg" xmlns:xlink="http://www.w3.org/1999/xlink" x="0px" y="0px"
	 viewBox="0 0 35 45.5" style="enable-background:new 0 0 35 45.5;" xml:space="preserve">
<style type="text/css">
	.st0{opacity:0.35;fill:#5555FF;enable-background:new    ;}
	.st1{fill:#5555FF;}
	.st2{fill:#FFFFFF;}
	.st3{fill:#3D3DBF;}
	.st4{fill:#4A4ACC;}
</style>
<title>涝_画板 1</title>
<ellipse class="st0" cx="17.3" cy="41.9" rx="10.4" ry="3.3"/>
<ellipse class="st0" cx="17.3" cy="41.4" rx="5.5" ry="1.8"/>
<path class="st1" d="M30.9,9.3c0,0-2.9-8.3-13.9-8.8l0,0C6,1,3.1,9.3,3.1,9.3c-1.9,5.3-1.4,11.2,1.5,16.1C8.6,32.2,14.8,39,17,41.2
	l0,0c2.1-2.3,8.4-9,12.4-15.8C32.3,20.5,32.8,14.6,30.9,9.3z"/>
<circle class="st2" cx="17" cy="15.2" r="13.1"/>
<path class="st3" d="M13.8,20.8c0.2,1.3-0.7,2.5-2,2.7s-2.5-0.7-2.7-2s0.7-2.5,2-2.7c0.3,0,0.5,0,0.8,0c0.3-0.3,0.5-0.5,0.7-0.8
	c-1.2-0.4-2.5-0.1-3.4,0.8c-1.3,1.3-1.3,3.4,0,4.7s3.4,1.3,4.7,0c0.9-0.9,1.2-2.2,0.8-3.4C14.3,20.3,14,20.6,13.8,20.8z M21.1,17.9
	c0.2,0.3,0.4,0.5,0.7,0.8c1.3-0.2,2.5,0.7,2.7,2s-0.7,2.5-2,2.7s-2.5-0.7-2.7-2c0-0.2,0-0.5,0-0.7c-0.3-0.3-0.5-0.5-0.8-0.7
	c-0.4,1.2-0.1,2.5,0.8,3.4c1.3,1.3,3.4,1.3,4.7,0s1.3-3.4,0-4.7C23.6,17.9,22.2,17.5,21.1,17.9z M19.8,10.8c-0.2-1.3,0.7-2.5,2-2.7
	s2.5,0.7,2.7,2s-0.7,2.5-2,2.7c-0.2,0-0.5,0-0.7,0c-0.3,0.3-0.5,0.5-0.7,0.8c1.2,0.4,2.5,0.1,3.4-0.8c1.3-1.3,1.3-3.4,0-4.7
	s-3.4-1.3-4.7,0c-0.9,0.9-1.2,2.2-0.8,3.4C19.3,11.3,19.5,11.1,19.8,10.8z M12.4,13.4c-0.2-0.3-0.4-0.5-0.7-0.8
	c-1.3,0.2-2.5-0.7-2.7-2s0.7-2.5,2-2.7s2.5,0.7,2.7,2c0,0.3,0,0.5,0,0.8c0.3,0.3,0.5,0.5,0.8,0.7c0.4-1.2,0.1-2.5-0.8-3.4
	C12.4,6.7,10.3,6.7,9,8s-1.3,3.4,0,4.7C9.8,13.5,11.2,13.8,12.4,13.4z M16.8,14.8c-0.5,0-1,0.4-1,1c0,0.5,0.4,1,1,1c0.5,0,1-0.4,1-1
	c0-0.3-0.1-0.5-0.3-0.7C17.3,14.9,17.1,14.8,16.8,14.8z"/>
<path class="st4" d="M21.5,21.4c0.1,0.1,0.2,0.2,0.2,0.2l0,0l0,0c0.3,0.3,0.8,0.3,1.1,0c0.3-0.3,0.3-0.7,0-1
	c-0.1-0.1-0.1-0.1-0.2-0.2c0,0,0,0-0.1-0.1c-0.8-0.7-3.2-3.1-3.2-4.5c0-0.1,0-0.3,0-0.4c0-1.4,2.4-3.8,3.2-4.5c0,0,0,0,0.1-0.1
	s0.1-0.1,0.2-0.2c0.2-0.3,0.2-0.8,0-1c-0.3-0.3-0.8-0.3-1.1,0l0,0l0,0l-0.2,0.2c-0.7,0.8-2.9,3-4.3,3.1c-0.1,0-0.5,0-0.6,0
	c-1.4-0.1-3.7-2.4-4.4-3.2c0,0,0,0-0.1-0.1C12,10,12,9.9,11.9,9.8c-0.3-0.2-0.8-0.2-1,0c-0.3,0.3-0.3,0.8,0,1.1l0,0l0,0l0.2,0.2
	c0.8,0.7,2.9,2.8,3.1,4.2c0,0.1,0,0.8,0,0.9c-0.3,1.4-2.3,3.4-3.1,4.1c-0.1,0.1-0.2,0.2-0.2,0.2l0,0l0,0c-0.3,0.3-0.3,0.8,0,1.1
	c0.3,0.3,0.7,0.3,1,0c0.1-0.1,0.1-0.1,0.2-0.2c0,0,0,0,0.1-0.1c0.7-0.7,2.9-3,4.3-3.2c0.1,0,0.6,0,0.7,0
	C18.6,18.5,20.7,20.7,21.5,21.4z M17.9,16.9c-0.6,0.6-1.5,0.6-2.1,0s-0.6-1.5,0-2.1s1.5-0.6,2.1,0l0,0
	C18.5,15.3,18.5,16.3,17.9,16.9L17.9,16.9z"/>
<path class="st1" d="M21.7,20.9c0.1,0.1,0.2,0.2,0.2,0.2l0,0l0,0c0.3,0.3,0.8,0.3,1.1,0c0.3-0.3,0.3-0.7,0-1
	c-0.1-0.1-0.1-0.1-0.2-0.2c0,0,0,0-0.1-0.1c-0.8-0.7-3.2-3.1-3.2-4.5c0-0.1,0-0.3,0-0.4c0-1.4,2.4-3.8,3.2-4.5c0,0,0,0,0.1-0.1
	s0.1-0.1,0.2-0.2c0.2-0.3,0.2-0.8,0-1c-0.3-0.3-0.8-0.3-1.1,0l0,0l0,0l-0.2,0.2c-0.7,0.8-2.9,3-4.3,3.1c-0.1,0-0.5,0-0.6,0
	c-1.4-0.1-3.7-2.4-4.4-3.2c0,0,0,0-0.1-0.1S12.2,9,12.1,8.9c-0.3-0.2-0.8-0.2-1,0c-0.3,0.3-0.3,0.8,0,1.1l0,0l0,0l0.2,0.2
	c0.8,0.7,2.9,2.8,3.1,4.2c0,0.1,0,0.8,0,0.9c-0.3,1.4-2.3,3.4-3.1,4.1c-0.1,0.1-0.2,0.2-0.2,0.2l0,0l0,0c-0.3,0.3-0.3,0.8,0,1.1
	c0.3,0.3,0.7,0.3,1,0c0.1-0.1,0.1-0.1,0.2-0.2c0,0,0,0,0.1-0.1c0.7-0.7,2.9-3,4.3-3.2c0.1,0,0.6,0,0.7,0C18.8,18,21,20.2,21.7,20.9z
	 M18.2,16.4c-0.6,0.6-1.5,0.6-2.1,0s-0.6-1.5,0-2.1s1.5-0.6,2.1,0l0,0C18.7,14.8,18.7,15.8,18.2,16.4L18.2,16.4z"/>
<path class="st1" d="M14,20.3c0.2,1.3-0.7,2.5-2,2.7s-2.5-0.7-2.7-2s0.7-2.5,2-2.7c0.3,0,0.5,0,0.8,0c0.3-0.3,0.5-0.5,0.7-0.8
	c-1.2-0.4-2.5-0.1-3.4,0.8c-1.3,1.3-1.3,3.4,0,4.7s3.4,1.3,4.7,0c0.9-0.9,1.2-2.2,0.8-3.4C14.6,19.8,14.3,20.1,14,20.3z M21.3,17.5
	c0.2,0.3,0.4,0.5,0.7,0.8c1.3-0.2,2.5,0.7,2.7,2s-0.7,2.5-2,2.7s-2.5-0.7-2.7-2c0-0.2,0-0.5,0-0.7c-0.3-0.3-0.5-0.5-0.8-0.7
	c-0.4,1.2-0.1,2.5,0.8,3.4c1.3,1.3,3.4,1.3,4.7,0c1.3-1.3,1.3-3.4,0-4.7C23.8,17.4,22.5,17.1,21.3,17.5z M20.1,10.4
	c-0.2-1.3,0.7-2.5,2-2.7s2.5,0.7,2.7,2s-0.7,2.5-2,2.7c-0.2,0-0.5,0-0.7,0c-0.3,0.3-0.5,0.5-0.7,0.8c1.2,0.4,2.5,0.1,3.4-0.8
	c1.3-1.3,1.3-3.4,0-4.7s-3.4-1.3-4.7,0c-0.9,0.9-1.2,2.2-0.8,3.4C19.5,10.9,19.8,10.6,20.1,10.4z M12.6,12.9
	c-0.2-0.3-0.4-0.5-0.7-0.8c-1.3,0.2-2.5-0.7-2.7-2s0.7-2.5,2-2.7s2.5,0.7,2.7,2c0,0.3,0,0.5,0,0.8c0.3,0.3,0.5,0.5,0.8,0.7
	c0.4-1.2,0.1-2.5-0.8-3.4c-1.3-1.3-3.4-1.3-4.7,0s-1.3,3.4,0,4.7C10.1,13,11.4,13.3,12.6,12.9z M17.1,14.3c-0.5,0-1,0.4-1,1
	c0,0.5,0.4,1,1,1c0.5,0,1-0.4,1-1c0-0.3-0.1-0.5-0.3-0.7C17.6,14.4,17.3,14.3,17.1,14.3z"/>
</svg>
