<?xml version="1.0" encoding="utf-8"?>
<!-- Generator: Adobe Illustrator 21.0.0, SVG Export Plug-In . SVG Version: 6.00 Build 0)  -->
<svg version="1.1" id="图层_1" xmlns="http://www.w3.org/2000/svg" xmlns:xlink="http://www.w3.org/1999/xlink" x="0px" y="0px"
	 viewBox="0 0 64 64" style="enable-background:new 0 0 64 64;" xml:space="preserve">
<style type="text/css">
	.st0{fill:#1890FF;}
	.st1{fill:#FFFFFF;}
</style>
<g>
	<g>
		<circle class="st0" cx="32" cy="32" r="32"/>
	</g>
	<path class="st1" d="M45.8,41.3c2.3,0.9,3.6,2,3.6,3.3c0,2.9-7.8,5.4-17.4,5.4s-17.4-2.5-17.4-5.4c0-1.3,1.5-2.5,3.6-3.3
		c-0.4,0.3-0.7,0.7-0.7,1.2c0,2,6.5,3.6,14.5,3.6c8,0,14.5-1.6,14.5-3.6C46.5,42,46.2,41.6,45.8,41.3L45.8,41.3z M23.4,16.8
		c1.7,0,3.2,1.5,3.2,3.2c0,1.7-1.5,3.2-3.2,3.2c-1.7,0-3.2-1.5-3.2-3.2C20.2,18.2,21.7,16.8,23.4,16.8L23.4,16.8z M40.6,16.8
		c-1.7,0-3.2,1.5-3.2,3.2c0,1.7,1.5,3.2,3.2,3.2c1.7,0,3.2-1.5,3.2-3.2C43.6,18.2,42.3,16.8,40.6,16.8L40.6,16.8z M37.4,35.1v8.3
		h2.2l0.9-5.8l0.9,5.8h2.5v-9.1c1-0.4,1.6-1.5,1.6-2.6v-4.8c0-1.6-1.3-3-3.1-3h-3.6c-0.3,0-0.4,0-0.7,0.1c0.5,0.8,0.7,1.7,0.7,2.6
		v5.1C38.8,32.9,38.2,34.2,37.4,35.1L37.4,35.1z M32,15.6c1.9,0,3.5,1.6,3.5,3.5c0,1.9-1.6,3.5-3.5,3.5c-1.9,0-3.5-1.6-3.5-3.5
		C28.6,17.2,30.1,15.6,32,15.6L32,15.6z M35.5,34.5c1-0.6,1.7-1.6,1.7-2.9v-5.1c0-1.7-1.5-3.3-3.3-3.3h-4.1c-1.7,0-3.3,1.5-3.3,3.3
		v5.1c0,1.3,0.7,2.3,1.7,2.9v10h2.6l1-6.4l1,6.4h2.5v-10H35.5z M26.6,35.1c-0.9-0.9-1.5-2.2-1.5-3.5v-5.1c0-0.9,0.2-1.8,0.7-2.6
		c-0.3,0-0.4-0.1-0.7-0.1h-3.6c-1.6,0-3.1,1.3-3.1,3v4.8c0,1.2,0.7,2.2,1.6,2.6v9.3h2.5l0.9-5.8l0.9,5.8h2.2v-8.4H26.6z M26.6,35.1"
		/>
</g>
</svg>
