<?xml version="1.0" encoding="utf-8"?>
<!-- Generator: Adobe Illustrator 21.0.0, SVG Export Plug-In . SVG Version: 6.00 Build 0)  -->
<svg version="1.1" id="图层_1" xmlns="http://www.w3.org/2000/svg" xmlns:xlink="http://www.w3.org/1999/xlink" x="0px" y="0px"
	 viewBox="0 0 24.3 23" style="enable-background:new 0 0 24.3 23;" xml:space="preserve">
<style type="text/css">
	.st0{fill:#FFFFFF;}
	.st1{fill:#636363;stroke:#EAEAEA;stroke-miterlimit:10;}
	.st2{fill:none;stroke:#EAEAEA;stroke-miterlimit:10;}
</style>
<image style="display:none;overflow:visible;" width="394" height="261" xlink:href="QQ图片20200611095222.png"  transform="matrix(1 0 0 1 -317.5 -77.8333)">
</image>
<path class="st0" d="M20.9,2.2c-0.8,0.3-2.4,0.9-4,0.9c-3.5,0-3.5-1.4-7-1.4c-1.8,0-3.3,0.8-3.5,0.9V2.4c0-0.4-0.3-0.7-0.7-0.7
	c0,0,0,0,0,0H5.1C4.7,1.6,4.4,2,4.4,2.4v18.6c0,0.4,0.3,0.7,0.7,0.7h0.6c0.4,0,0.7-0.3,0.7-0.7v-7.6c0.3-0.2,1.7-0.9,3.5-0.9
	c3.5,0,3.5,1.4,7,1.4c1.8,0,3.6-0.8,4.2-1.1c0.1-0.1,0.2-0.2,0.2-0.3V2.5c0-0.2-0.1-0.3-0.3-0.3C21,2.2,21,2.2,20.9,2.2z"/>
<ellipse class="st1" cx="-38" cy="10.2" rx="11.4" ry="6.5"/>
<rect x="-90.7" y="2.2" class="st1" width="15" height="15"/>
<line class="st2" x1="-114" y1="2.1" x2="-129" y2="15.2"/>
<path class="st0" d="M-154.4,1.9c2.3,2.9-2.3,9-6.2,10.8c-3.1,1.4-9.6,4.3-13,3.5c-2.5-0.5-7-3.3-4.4-6.2s6.4-1.3,8-3.5
	C-167.6,3.2-161-6.4-154.4,1.9z"/>
<circle class="st1" cx="-212" cy="7.4" r="9"/>
<path class="st0" d="M-265.7,13l8.7,6l5.3-7.7l-8.7-6l2.7-3.9l-14,1.9l3.2,13.7L-265.7,13z"/>
<g>
	<g>
		<path class="st0" d="M19.4,56c0.7,1.6,0.9,4.6-0.2,7.4c-1,2.8-2.6,4.9-2.6,4.9s0.1-1.9,0.1-2.6c0-0.7-0.2-3.4-1.7-5.8
			c-1.5-2.5-5.2-4.8-5.2-4.8L7,59.3L2,45.3l14.8-0.2l-2.9,4.2c0,0,2.3,1.8,3.3,2.9C19,54.2,19.4,56,19.4,56L19.4,56z M19.4,56"/>
	</g>
</g>
</svg>
