<?xml version="1.0" encoding="utf-8"?>
<!-- Generator: Adobe Illustrator 21.0.0, SVG Export Plug-In . SVG Version: 6.00 Build 0)  -->
<svg version="1.1" id="图层_1" xmlns="http://www.w3.org/2000/svg" xmlns:xlink="http://www.w3.org/1999/xlink" x="0px" y="0px"
	 viewBox="0 0 35 45.5" style="enable-background:new 0 0 35 45.5;" xml:space="preserve">
<style type="text/css">
	.st0{opacity:0.35;fill:#AF71FF;enable-background:new    ;}
	.st1{fill:#AF71FF;}
	.st2{fill:#FFFFFF;}
	.st3{fill:#9568DD;}
</style>
<title>涝_画板 1</title>
<ellipse class="st0" cx="17.3" cy="41.9" rx="10.4" ry="3.3"/>
<ellipse class="st0" cx="17.3" cy="41.4" rx="5.5" ry="1.8"/>
<path class="st1" d="M30.9,9.3c0,0-2.9-8.3-13.9-8.8l0,0C6,1,3.1,9.3,3.1,9.3c-1.9,5.3-1.4,11.2,1.5,16.1C8.6,32.2,14.8,39,17,41.2
	l0,0c2.1-2.3,8.4-9,12.4-15.8C32.3,20.5,32.8,14.6,30.9,9.3z"/>
<circle class="st2" cx="17" cy="15.2" r="13.1"/>
<path class="st3" d="M16.6,7.5c0.6,0,1.3,0,1.9,0.2c0.6,0.1,1.2,0.4,1.6,0.9c0.4,0.4,0.7,1,0.9,1.6c0.1,0.5,0.2,1,0.2,1.5
	c0,1.4-0.4,2.7-1.2,3.8c-0.4,0.5-0.8,1-1.3,1.3c-0.3,0.2-0.6,0.4-1,0.5s-0.8,0.1-1.1,0c-0.6-0.1-1.2-0.5-1.7-0.9c-1-0.8-1.7-2-2-3.2
	c-0.2-0.8-0.2-1.6-0.1-2.4c0.1-0.7,0.3-1.4,0.8-1.9c0.4-0.5,0.9-0.8,1.4-1C15.5,7.6,16.1,7.5,16.6,7.5z M13.5,17.5
	c0.2-0.1,0.4,0,0.6,0.1c0.1,0.1,0.2,0.2,0.2,0.3c0.4,0.7,0.8,1.4,1.2,2.2c0,0.1,0.1,0.2,0.2,0.2c0.2,0.1,0.4,0.1,0.5,0
	s0.1-0.3,0.1-0.5c-0.1-0.2-0.2-0.3-0.3-0.5c-0.1-0.1-0.1-0.2,0-0.3c0-0.1,0.1-0.1,0.1-0.2c0.2-0.2,0.3-0.4,0.5-0.6s0.5-0.3,0.7-0.1
	c0.1,0.1,0.2,0.2,0.3,0.3c0.1,0.2,0.3,0.4,0.4,0.5s0.1,0.3,0,0.4c-0.1,0.2-0.2,0.4-0.3,0.5c-0.1,0.1-0.1,0.3,0.1,0.5
	c0.1,0.1,0.3,0.2,0.4,0.1c0.1,0,0.2-0.1,0.2-0.2c0.4-0.8,0.8-1.5,1.3-2.3c0-0.1,0.1-0.1,0.1-0.2c0.2-0.2,0.5-0.2,0.7-0.1
	c1.1,0.6,2.1,1.1,3.2,1.8c0.3,0.2,0.6,0.3,0.8,0.6c0.2,0.1,0.3,0.3,0.4,0.5s0.2,0.5,0.3,0.7c0.1,0.2,0.2,0.4,0.2,0.6v0.1
	c0,0.5-0.3,0.9-0.8,1.1c-0.2,0.1-0.4,0.1-0.7,0.1c-4.7,0-9.5,0-14.2,0c-0.1,0-0.3,0-0.4-0.1c-0.4-0.1-0.6-0.4-0.8-0.8
	c-0.1-0.2-0.1-0.5,0-0.8s0.2-0.5,0.3-0.7C9,20.3,9.1,20,9.3,19.8c0.3-0.2,0.6-0.4,0.9-0.6c1-0.6,2-1.1,2.9-1.6
	C13.3,17.6,13.4,17.5,13.5,17.5L13.5,17.5z"/>
<path class="st1" d="M15.8,7.3c0.6,0,1.3,0,1.9,0.2c0.6,0.1,1.2,0.4,1.6,0.9c0.4,0.4,0.7,1,0.9,1.6c0.1,0.5,0.2,1,0.2,1.5
	c0,1.4-0.4,2.7-1.2,3.8c-0.4,0.5-0.8,1-1.3,1.3c-0.3,0.2-0.6,0.4-1,0.5s-0.8,0.1-1.1,0c-0.6-0.1-1.2-0.5-1.7-0.9c-1-0.8-1.7-2-2-3.2
	c-0.2-0.8-0.2-1.6-0.1-2.4c0.1-0.7,0.3-1.4,0.8-1.9c0.4-0.5,0.9-0.8,1.4-1C14.6,7.4,15.2,7.3,15.8,7.3z M12.6,17.3
	c0.2-0.1,0.4,0,0.6,0.1c0.1,0.1,0.2,0.2,0.2,0.3c0.4,0.7,0.8,1.4,1.2,2.2c0,0.1,0.1,0.2,0.2,0.2c0.2,0.1,0.4,0.1,0.5,0
	s0.1-0.3,0.1-0.5c-0.1-0.2-0.2-0.3-0.3-0.5c-0.1-0.1-0.1-0.2,0-0.3c0-0.1,0.1-0.1,0.1-0.2c0.2-0.2,0.3-0.4,0.5-0.6s0.5-0.3,0.7-0.1
	c0.1,0.1,0.2,0.2,0.3,0.3c0.1,0.2,0.3,0.4,0.4,0.5s0.1,0.3,0,0.4c-0.1,0.2-0.2,0.4-0.3,0.5c-0.1,0.1-0.1,0.3,0.1,0.5
	c0.1,0.1,0.3,0.2,0.4,0.1c0.1,0,0.2-0.1,0.2-0.2c0.4-0.8,0.8-1.5,1.3-2.3c0-0.1,0.1-0.1,0.1-0.2c0.2-0.2,0.5-0.2,0.7-0.1
	c1.1,0.6,2.1,1.1,3.2,1.8c0.3,0.2,0.6,0.3,0.8,0.6c0.2,0.1,0.3,0.3,0.4,0.5s0.2,0.5,0.3,0.7c0.1,0.2,0.2,0.4,0.2,0.6v0.1
	c0,0.5-0.3,0.9-0.8,1.1c-0.2,0.1-0.4,0.1-0.7,0.1c-4.7,0-9.5,0-14.2,0c-0.1,0-0.3,0-0.4-0.1C8,22.7,7.8,22.4,7.6,22
	c-0.1-0.2-0.1-0.5,0-0.8s0.2-0.5,0.3-0.7C8,20.2,8.1,20,8.3,19.8c0.3-0.2,0.6-0.4,0.9-0.6c1-0.6,2-1.1,2.9-1.6
	C12.4,17.4,12.5,17.3,12.6,17.3L12.6,17.3z"/>
</svg>
