<?xml version="1.0" encoding="utf-8"?>
<!-- Generator: Adobe Illustrator 21.0.0, SVG Export Plug-In . SVG Version: 6.00 Build 0)  -->
<svg version="1.1" id="图层_1" xmlns="http://www.w3.org/2000/svg" xmlns:xlink="http://www.w3.org/1999/xlink" x="0px" y="0px"
	 viewBox="0 0 35 45.5" style="enable-background:new 0 0 35 45.5;" xml:space="preserve">
<style type="text/css">
	.st0{opacity:0.35;fill:#FF007A;enable-background:new    ;}
	.st1{fill:#FF007A;}
	.st2{fill:#FFFFFF;}
	.st3{fill:#B2025E;}
</style>
<title>涝_画板 1</title>
<ellipse class="st0" cx="17.3" cy="41.9" rx="10.4" ry="3.3"/>
<ellipse class="st0" cx="17.3" cy="41.4" rx="5.5" ry="1.8"/>
<path class="st1" d="M30.9,9.3c0,0-2.9-8.3-13.9-8.8l0,0C6,1,3.1,9.3,3.1,9.3c-1.9,5.3-1.4,11.2,1.5,16.1C8.6,32.2,14.8,39,17,41.2
	l0,0c2.1-2.3,8.4-9,12.4-15.8C32.3,20.5,32.8,14.6,30.9,9.3z"/>
<circle class="st2" cx="17" cy="15.2" r="13.1"/>
<path class="st3" d="M24.3,13.7H24l0,0c-0.7,0.6-1.3,0.6-3.5,0.6c-0.1,0-0.2,0-0.3,0c0,0,0,0,0-0.1c0-2.1-0.7-2.3-0.3-2.6l0.1-0.1
	h0.3c0.2,0,0.5-0.6,0.5-0.7c0-0.1-0.1-0.4-0.2-0.5c1.7,0.1,3,1.3,3.3,3h0.3c0.1,0,0.3,0.1,0.3,0.3C24.6,13.6,24.4,13.7,24.3,13.7
	L24.3,13.7z M19.7,11.1h-0.3l0,0c-0.9,0.8-1.6,0.7-4.3,0.7c-2.8,0-3.6-0.1-4.4-0.7l0,0h-0.3c-0.2,0-0.3-0.2-0.3-0.3
	c0-0.2,0.2-0.3,0.3-0.3h0.4c0.3-2.1,2.1-3.7,4.3-3.7s4,1.6,4.3,3.7h0.4c0.2,0,0.3,0.2,0.3,0.3C20,11,19.9,11.1,19.7,11.1z M15.2,9.1
	c-0.7,0-1.2,0.5-1.2,1.2s0.5,1.2,1.2,1.2s1.2-0.5,1.2-1.2S15.8,9.1,15.2,9.1z M12.4,17.8c-1.6-1.3-2.2-3.4-1.4-5.3
	c0.7,0.4,1.7,0.5,4,0.5c2.4,0,3.2,0,4-0.5c0.8,1.9,0.2,4-1.4,5.3c2.1,1,3.6,3.1,3.7,5.6c0,0.2-0.2,0.3-0.3,0.3c-1.6,0-9.6,0-11.8,0
	c-0.4,0-0.5-0.2-0.5-0.4C8.9,20.8,10.4,18.7,12.4,17.8L12.4,17.8z M19.1,17.8c0.8-0.6,1.1-1.6,1.2-2.6c0.1,0,0.2,0,0.3,0
	c1.9,0,2.6,0,3.2-0.4c0.6,1.5,0.2,3.2-1.1,4.2c1.7,0.8,2.9,2.5,3,4.4c0,0.2-0.2,0.2-0.2,0.2c-0.5,0-1.8,0-3.2,0
	c0.1-0.1,0.1-0.2,0.1-0.3C22.1,20.8,21.2,18.7,19.1,17.8z"/>
<path class="st1" d="M23.9,13.2h-0.3l0,0c-0.7,0.6-1.3,0.6-3.5,0.6c-0.1,0-0.2,0-0.3,0c0,0,0,0,0-0.1c0-2.1-0.7-2.3-0.3-2.6l0.1-0.1
	H20c0.2,0,0.5-0.6,0.5-0.7c0-0.1-0.1-0.4-0.2-0.5c1.7,0.1,3,1.3,3.3,3h0.3c0.1,0,0.3,0.1,0.3,0.3S24,13.2,23.9,13.2L23.9,13.2z
	 M19.3,10.7H19l0,0c-0.9,0.8-1.6,0.7-4.3,0.7s-3.6-0.1-4.4-0.7l0,0H9.9c-0.2,0-0.3-0.2-0.3-0.3c0-0.2,0.2-0.3,0.3-0.3h0.4
	c0.3-2.1,2.1-3.7,4.3-3.7s4,1.6,4.3,3.7h0.4c0.2,0,0.3,0.2,0.3,0.3C19.6,10.5,19.5,10.7,19.3,10.7z M14.8,8.6
	c-0.7,0-1.2,0.5-1.2,1.2s0.5,1.2,1.2,1.2S16,10.5,16,9.8S15.4,8.6,14.8,8.6z M12,17.3c-1.6-1.3-2.2-3.4-1.4-5.3
	c0.7,0.4,1.7,0.5,4,0.5c2.4,0,3.2,0,4-0.5c0.8,1.9,0.2,4-1.4,5.3c2.1,1,3.6,3.1,3.7,5.6c0,0.2-0.2,0.3-0.3,0.3c-1.6,0-9.6,0-11.8,0
	c-0.4,0-0.5-0.2-0.5-0.4C8.5,20.3,9.9,18.2,12,17.3L12,17.3z M18.6,17.3c0.8-0.6,1.1-1.6,1.2-2.6c0.1,0,0.2,0,0.3,0
	c1.9,0,2.6,0,3.2-0.4c0.6,1.5,0.2,3.2-1.1,4.2c1.7,0.8,2.9,2.5,3,4.4c0,0.2-0.2,0.2-0.2,0.2c-0.5,0-1.8,0-3.2,0
	c0.1-0.1,0.1-0.2,0.1-0.3C21.7,20.4,20.8,18.3,18.6,17.3z"/>
</svg>
