<?xml version="1.0" encoding="utf-8"?>
<!-- Generator: Adobe Illustrator 21.0.0, SVG Export Plug-In . SVG Version: 6.00 Build 0)  -->
<svg version="1.1" id="图层_1" xmlns="http://www.w3.org/2000/svg" xmlns:xlink="http://www.w3.org/1999/xlink" x="0px" y="0px"
	 viewBox="0 0 35 45.5" style="enable-background:new 0 0 35 45.5;" xml:space="preserve">
<style type="text/css">
	.st0{opacity:0.35;fill:#6900FF;enable-background:new    ;}
	.st1{fill:#6900FF;}
	.st2{fill:#FFFFFF;}
	.st3{fill:#4300AD;}
</style>
<title>涝_画板 1</title>
<ellipse class="st0" cx="17.3" cy="41.9" rx="10.4" ry="3.3"/>
<ellipse class="st0" cx="17.3" cy="41.4" rx="5.5" ry="1.8"/>
<path class="st1" d="M30.9,9.3c0,0-2.9-8.3-13.9-8.8l0,0C6,1,3.1,9.3,3.1,9.3c-1.9,5.3-1.4,11.2,1.5,16.1C8.6,32.2,14.8,39,17,41.2
	l0,0c2.1-2.3,8.4-9,12.4-15.8C32.3,20.5,32.8,14.6,30.9,9.3z"/>
<circle class="st2" cx="17" cy="15.2" r="13.1"/>
<path class="st3" d="M17.5,5.7c2.4,0,4.4,2,4.4,4.4c0,2.2-1.6,3.9-3.6,4.3l0,2.4h2.3v1.4h-2.3v2.7c2-0.2,3.8-1.2,5.1-2.7l-1.3-0.8
	l3.6-2l-0.1,4.1l-1.1-0.7c-1.5,2-3.8,3.2-6.3,3.4v2.2h-1.4v-2.2c-2.5-0.2-4.9-1.4-6.4-3.4l-1.2,0.7l-0.1-4.1l3.6,2l-1.2,0.7
	c1.3,1.6,3.2,2.6,5.2,2.8v-2.7h-2.3v-1.4h2.3v-2.4c-2.1-0.3-3.7-2.1-3.8-4.2l0-0.1C13.1,7.7,15.1,5.7,17.5,5.7L17.5,5.7z M17.5,7.1
	c-1.7,0-3,1.3-3,3s1.3,3,3,3s3-1.3,3-3S19.2,7.1,17.5,7.1z"/>
<path class="st1" d="M17.5,5c2.4,0,4.4,2,4.4,4.4c0,2.2-1.6,3.9-3.6,4.3l0,2.4h2.3v1.4h-2.3v2.7c2-0.2,3.8-1.2,5.1-2.7l-1.3-0.8
	l3.6-2l-0.1,4.1l-1.1-0.7c-1.5,2-3.8,3.2-6.3,3.4v2.2h-1.4v-2.2C14.4,21.3,12,20,10.5,18l-1.2,0.7l-0.1-4.1l3.6,2l-1.2,0.7
	c1.3,1.6,3.2,2.6,5.2,2.8v-2.7h-2.3V16h2.3v-2.4c-2.1-0.3-3.7-2.1-3.8-4.2l0-0.1C13.1,6.9,15.1,5,17.5,5L17.5,5z M17.5,6.3
	c-1.7,0-3,1.3-3,3s1.3,3,3,3s3-1.3,3-3S19.2,6.3,17.5,6.3z"/>
</svg>
