<?xml version="1.0" encoding="utf-8"?>
<!-- Generator: Adobe Illustrator 21.0.0, SVG Export Plug-In . SVG Version: 6.00 Build 0)  -->
<svg version="1.1" id="图层_1" xmlns="http://www.w3.org/2000/svg" xmlns:xlink="http://www.w3.org/1999/xlink" x="0px" y="0px"
	 viewBox="0 0 35 45.5" style="enable-background:new 0 0 35 45.5;" xml:space="preserve">
<style type="text/css">
	.st0{opacity:0.35;fill:#0068FF;enable-background:new    ;}
	.st1{fill:#0068FF;}
	.st2{fill:#FFFFFF;}
	.st3{fill:#024CA5;}
	.st4{opacity:0.75;fill:#0068FF;enable-background:new    ;}
</style>
<title>涝_画板 1</title>
<ellipse class="st0" cx="17.3" cy="41.9" rx="10.4" ry="3.3"/>
<ellipse class="st0" cx="17.3" cy="41.4" rx="5.5" ry="1.8"/>
<path class="st1" d="M30.9,9.3c0,0-2.9-8.3-13.9-8.8l0,0C6,1,3.1,9.3,3.1,9.3c-1.9,5.3-1.4,11.2,1.5,16.1C8.6,32.2,14.8,39,17,41.2
	l0,0c2.1-2.3,8.4-9,12.4-15.8C32.3,20.5,32.8,14.6,30.9,9.3z"/>
<circle class="st2" cx="17" cy="15.2" r="13.1"/>
<path class="st3" d="M16.6,7.8c-0.8,1-1.6,2-2.3,3c-0.6,0.8-1.1,1.7-1.6,2.4C11.6,15,11,16.6,11,17.6c0,3.5,2.7,6.3,6.1,6.3
	s6.1-2.8,6.1-6.3c0-1-0.6-2.6-1.7-4.4c-0.5-0.8-1-1.6-1.6-2.4c-0.7-1-1.5-2.1-2.3-3c-0.2-0.2-0.4-0.4-0.6-0.7
	C17,7.4,16.8,7.6,16.6,7.8L16.6,7.8z M9.7,17.7c0-1.3,0.7-3,1.9-5.1c0.5-0.8,1-1.7,1.6-2.5C14,9,14.8,8,15.6,7
	c0.3-0.4,0.7-0.8,1-1.2l0.1-0.1l0.5-0.6l0.5,0.6l0.1,0.1C17.9,5.9,17.9,6,18,6.1c0.2,0.3,0.5,0.6,0.8,0.9c0.8,1,1.6,2.1,2.4,3.1
	c0.6,0.9,1.2,1.7,1.6,2.5c1.2,2,1.9,3.7,1.9,5.1c0,4.2-3.3,7.6-7.4,7.6C13,25.3,9.7,21.9,9.7,17.7L9.7,17.7z"/>
<path class="st4" d="M17.1,23c-2.9,0-5.2-2.3-5.2-5.2s2.7-1.4,5.2,0s5.2-2.9,5.2,0S20,23,17.1,23L17.1,23z"/>
<path class="st3" d="M21.1,8.4c0-0.5,0.3-1,0.8-1.7c0.2-0.3,0.5-0.6,0.8-0.9l0.2-0.2l0.2,0.2L23.2,6c0.3,0.3,0.5,0.5,0.7,0.8
	c0.2,0.2,0.3,0.4,0.5,0.7c0.2,0.4,0.4,0.7,0.4,1c0,1-0.8,1.9-1.9,1.9C21.9,10.3,21.1,9.5,21.1,8.4z M22.4,7.2
	c-0.4,0.5-0.7,1-0.7,1.3c0,0.7,0.5,1.2,1.2,1.2s1.2-0.5,1.2-1.2c0-0.2-0.1-0.4-0.3-0.7c-0.1-0.2-0.3-0.4-0.4-0.6
	c-0.2-0.2-0.3-0.4-0.5-0.6C22.7,6.8,22.6,7,22.4,7.2L22.4,7.2z M8.8,11.4c0-0.4,0.2-0.8,0.6-1.2C9.6,10,9.8,9.8,10,9.6l0.2-0.2
	l0.2,0.2c0.2,0.2,0.4,0.4,0.5,0.6c0.1,0.2,0.2,0.3,0.3,0.5c0.2,0.3,0.3,0.5,0.3,0.8c0,0.8-0.6,1.4-1.4,1.4
	C9.4,12.8,8.8,12.2,8.8,11.4z M9.9,10.6c-0.3,0.3-0.4,0.6-0.4,0.8c0,0.4,0.3,0.7,0.7,0.7s0.7-0.3,0.7-0.7c0-0.1-0.1-0.2-0.2-0.4
	c-0.1-0.1-0.2-0.3-0.3-0.4c-0.1-0.1-0.2-0.2-0.3-0.3C10.1,10.4,10,10.5,9.9,10.6z"/>
<path class="st3" d="M17.1,23c-2.9,0-5.2-2.3-5.2-5.2s2.7-1.4,5.2,0s5.2-2.9,5.2,0S20,23,17.1,23L17.1,23z"/>
<path class="st1" d="M16.2,7.1c-0.8,1-1.6,2-2.3,3c-0.6,0.8-1.1,1.7-1.6,2.4c-1.1,1.8-1.7,3.4-1.7,4.4c0,3.5,2.7,6.3,6.1,6.3
	s6.1-2.8,6.1-6.3c0-1-0.6-2.6-1.7-4.4c-0.5-0.8-1-1.6-1.6-2.4c-0.7-1-1.5-2.1-2.3-3c-0.2-0.2-0.4-0.4-0.6-0.7
	C16.6,6.6,16.4,6.9,16.2,7.1L16.2,7.1z M9.3,17c0-1.3,0.7-3,1.9-5.1c0.5-0.8,1-1.7,1.6-2.5c0.7-1.1,1.5-2.1,2.4-3.1
	c0.3-0.4,0.7-0.8,1-1.2L16.3,5l0.5-0.6L17.3,5l0.1,0.1c0.1,0.1,0.1,0.2,0.2,0.3c0.2,0.3,0.5,0.6,0.8,0.9c0.8,1,1.6,2.1,2.4,3.1
	c0.6,0.9,1.2,1.7,1.6,2.5c1.2,2,1.9,3.7,1.9,5.1c0,4.2-3.3,7.6-7.4,7.6C12.7,24.6,9.3,21.2,9.3,17L9.3,17z"/>
<path class="st1" d="M16.8,22.3c-2.9,0-5.2-2.3-5.2-5.2s2.7-1.4,5.2,0s5.2-2.9,5.2,0C21.9,20,19.6,22.3,16.8,22.3L16.8,22.3z"/>
<path class="st1" d="M20.7,7.7c0-0.5,0.3-1,0.8-1.7c0.2-0.3,0.5-0.6,0.8-0.9L22.5,5l0.2,0.2l0.1,0.1c0.3,0.3,0.5,0.5,0.7,0.8
	c0.2,0.2,0.3,0.4,0.5,0.7c0.2,0.4,0.4,0.7,0.4,1c0,1-0.8,1.9-1.9,1.9C21.5,9.6,20.7,8.8,20.7,7.7z M22,6.5c-0.4,0.5-0.7,1-0.7,1.3
	c0,0.7,0.5,1.2,1.2,1.2s1.2-0.5,1.2-1.2c0-0.2-0.1-0.4-0.3-0.7c-0.1-0.2-0.3-0.4-0.4-0.6c-0.2-0.2-0.3-0.4-0.5-0.6
	C22.3,6.1,22.2,6.3,22,6.5L22,6.5z M8.4,10.7c0-0.4,0.2-0.8,0.6-1.2c0.2-0.2,0.4-0.4,0.5-0.6l0.2-0.2L10,8.9
	c0.2,0.2,0.4,0.4,0.5,0.6c0.1,0.2,0.2,0.3,0.3,0.5c0.2,0.3,0.3,0.5,0.3,0.8c0,0.8-0.6,1.4-1.4,1.4C9,12.1,8.4,11.5,8.4,10.7z
	 M9.5,9.9c-0.3,0.3-0.4,0.6-0.4,0.8c0,0.4,0.3,0.7,0.7,0.7s0.7-0.3,0.7-0.7c0-0.1-0.1-0.2-0.2-0.4c-0.1-0.1-0.2-0.3-0.3-0.4
	c0-0.1-0.1-0.2-0.2-0.3C9.7,9.7,9.6,9.8,9.5,9.9z"/>
</svg>
