<?xml version="1.0" encoding="utf-8"?>
<!-- Generator: Adobe Illustrator 21.0.0, SVG Export Plug-In . SVG Version: 6.00 Build 0)  -->
<svg version="1.1" id="图层_1" xmlns="http://www.w3.org/2000/svg" xmlns:xlink="http://www.w3.org/1999/xlink" x="0px" y="0px"
	 viewBox="0 0 35 45.5" style="enable-background:new 0 0 35 45.5;" xml:space="preserve">
<style type="text/css">
	.st0{opacity:0.35;fill:#6900FF;enable-background:new    ;}
	.st1{fill:#6900FF;}
	.st2{fill:#FFFFFF;}
	.st3{fill:#4300AD;}
</style>
<title>涝_画板 1</title>
<ellipse class="st0" cx="17.3" cy="41.9" rx="10.4" ry="3.3"/>
<ellipse class="st0" cx="17.3" cy="41.4" rx="5.5" ry="1.8"/>
<path class="st1" d="M30.9,9.3c0,0-2.9-8.3-13.9-8.8l0,0C6,1,3.1,9.3,3.1,9.3c-1.9,5.3-1.4,11.2,1.5,16.1C8.6,32.2,14.8,39,17,41.2
	l0,0c2.1-2.3,8.4-9,12.4-15.8C32.3,20.5,32.8,14.6,30.9,9.3z"/>
<circle class="st2" cx="17" cy="15.2" r="13.1"/>
<path class="st3" d="M10.1,19.3c-0.5,0-1,0.4-1,1s0.4,1,1,1c0.5,0,1-0.4,1-1C11.1,19.7,10.7,19.3,10.1,19.3z M24.1,19.1
	c-0.5,0-1,0.4-1,1s0.4,1,1,1c0.5,0,1-0.4,1-1C25.1,19.6,24.6,19.1,24.1,19.1z M21.5,19.1c-0.5,0-1,0.4-1,1s0.4,1,1,1
	c0.5,0,1-0.4,1-1C22.5,19.6,22.1,19.1,21.5,19.1z M21.9,16.8V17c0,0.2,0.1,0.3,0.2,0.3c0.1,0.1,0.4,0.1,0.6,0c0.1,0,0.2-0.1,0.2-0.2
	c0.1-0.1,0.1-0.2,0.2-0.4c0,0,0,0,0-0.1l0,0C22.7,16.8,22.3,16.9,21.9,16.8z M9,9.2v1.7l11.7,1.6h-8.6v4.7h-0.5v-4.7H9.5v-0.9H8.7
	v0.9h-1l-1,2.8V20h2.2c0-0.6,0.5-1.2,1.2-1.2s1.2,0.5,1.2,1.2h0.4v-0.8h0.5V20h8.2v-0.1c0-0.6,0.5-1.2,1.2-1.2s1.2,0.5,1.2,1.2V20
	h0.3v-0.1c0-0.6,0.5-1.2,1.2-1.2c0.6,0,1.2,0.5,1.2,1.2V20h1.9v-8.4L9,9.2z M10.4,9.9c0,0.1-0.1,0.2-0.3,0.2C10,10.1,9.9,10,10,9.8
	c0-0.1,0.1-0.2,0.3-0.2S10.5,9.8,10.4,9.9z M11.8,10.1c0,0.1-0.1,0.2-0.3,0.2s-0.2-0.1-0.2-0.3c0-0.1,0.1-0.2,0.3-0.2
	C11.7,9.8,11.8,10,11.8,10.1z M13.2,10.3c0,0.1-0.1,0.2-0.3,0.2c-0.1,0-0.2-0.1-0.2-0.3c0-0.1,0.1-0.2,0.3-0.2
	C13.1,10,13.2,10.2,13.2,10.3z M14.6,10.5c0,0.1-0.1,0.2-0.3,0.2c-0.1,0-0.2-0.1-0.2-0.3c0-0.1,0.1-0.2,0.3-0.2
	C14.5,10.2,14.6,10.4,14.6,10.5z M15.9,10.7c0,0.1-0.1,0.2-0.3,0.2c-0.1,0-0.2-0.1-0.2-0.3c0-0.1,0.1-0.2,0.3-0.2
	C15.8,10.4,15.9,10.5,15.9,10.7z M17.3,10.9c0,0.1-0.1,0.2-0.3,0.2c-0.1,0-0.2-0.1-0.2-0.3c0-0.1,0.1-0.2,0.3-0.2
	c0.1,0,0.1,0,0.2,0.1C17.3,10.7,17.3,10.8,17.3,10.9z M18.7,11.1c0,0.1,0,0.1-0.1,0.2c-0.1,0-0.1,0.1-0.2,0c-0.1,0-0.1,0-0.2-0.1
	c0-0.1-0.1-0.1,0-0.2c0-0.1,0.1-0.2,0.3-0.2C18.6,10.8,18.7,10.9,18.7,11.1z M20,11.3c0,0.1-0.1,0.2-0.3,0.2c-0.1,0-0.2-0.1-0.2-0.3
	c0-0.1,0.1-0.2,0.3-0.2C20,11,20,11.1,20,11.3L20,11.3z M10.5,15.4H7.4L8,12.9h2.5V15.4z M17,18.1h-1v-2.7c0,0-0.1,0-0.1,0.1
	c-0.2,0.1-0.4,0.2-0.6,0.3L15,15.9V15l0.1-0.1c0.3-0.1,0.5-0.2,0.7-0.4s0.3-0.3,0.4-0.4l0.1-0.1H17V18.1L17,18.1z M20,18.1h-1v-2.7
	c0,0-0.1,0-0.1,0.1c-0.2,0.1-0.4,0.2-0.6,0.3L18,15.9V15l0.1-0.1c0.3-0.1,0.5-0.2,0.7-0.4s0.3-0.3,0.4-0.4l0.1-0.1H20V18.1L20,18.1z
	 M23.6,11.8c0-0.1,0.1-0.2,0.3-0.2c0.1,0,0.2,0.1,0.2,0.3c0,0.1-0.1,0.2-0.3,0.2C23.7,12,23.6,11.9,23.6,11.8z M22.3,11.6
	c0-0.1,0.1-0.2,0.3-0.2c0.1,0,0.2,0.1,0.2,0.3c0,0.1-0.1,0.2-0.3,0.2C22.3,11.8,22.3,11.7,22.3,11.6L22.3,11.6z M20.9,11.4
	c0-0.1,0.1-0.2,0.3-0.2c0.1,0,0.2,0.1,0.2,0.3c0,0.1-0.1,0.2-0.3,0.2C21,11.6,20.9,11.5,20.9,11.4L20.9,11.4z M24,17.1
	c-0.1,0.3-0.3,0.6-0.6,0.8c-0.3,0.2-0.6,0.3-1,0.3s-0.7-0.1-1-0.3S21,17.4,20.9,17v-0.2l0.9-0.1c-0.2-0.1-0.4-0.2-0.5-0.3
	c-0.3-0.3-0.4-0.6-0.4-1s0.2-0.8,0.5-1.1s0.7-0.4,1.2-0.4c0.3,0,0.6,0.1,0.9,0.2c0.3,0.2,0.5,0.4,0.6,0.7s0.2,0.6,0.2,1.1
	C24.2,16.4,24.1,16.8,24,17.1L24,17.1z M25.5,12c0,0.1-0.1,0.2-0.3,0.2c-0.1,0-0.2-0.1-0.2-0.3c0-0.1,0.1-0.2,0.3-0.2
	c0.1,0,0.1,0,0.2,0.1C25.5,11.9,25.5,12,25.5,12L25.5,12z M22.1,15.8c0.2,0.2,0.6,0.2,0.9,0c0.1-0.1,0.2-0.3,0.2-0.5
	s-0.1-0.4-0.2-0.5s-0.2-0.2-0.4-0.2c-0.2,0-0.3,0.1-0.4,0.2c-0.1,0.1-0.2,0.3-0.2,0.5C21.9,15.6,21.9,15.7,22.1,15.8L22.1,15.8z"/>
<path class="st1" d="M9.8,19c-0.5,0-1,0.4-1,1s0.4,1,1,1c0.5,0,1-0.4,1-1C10.8,19.5,10.3,19,9.8,19z M23.7,18.9c-0.5,0-1,0.4-1,1
	s0.4,1,1,1c0.5,0,1-0.4,1-1C24.7,19.4,24.3,18.9,23.7,18.9z M21.2,18.9c-0.5,0-1,0.4-1,1s0.4,1,1,1c0.5,0,1-0.4,1-1
	C22.2,19.4,21.7,18.9,21.2,18.9z M21.6,16.5v0.2c0,0.2,0.1,0.3,0.2,0.3c0.1,0.1,0.4,0.1,0.6,0c0.1,0,0.2-0.1,0.2-0.2
	c0.1-0.1,0.1-0.2,0.2-0.4c0,0,0,0,0-0.1l0,0C22.4,16.6,21.9,16.6,21.6,16.5z M8.7,9v1.7l11.7,1.6h-8.6V17h-0.5v-4.7H9.2v-0.9H8.4
	v0.9h-1l-1,2.8v4.7h2.2c0-0.6,0.5-1.2,1.2-1.2s1.2,0.5,1.2,1.2h0.4V19h0.5v0.8h8.2v-0.1c0-0.6,0.5-1.2,1.2-1.2s1.2,0.5,1.2,1.2v0.1
	h0.3v-0.1c0-0.6,0.5-1.2,1.2-1.2c0.6,0,1.2,0.5,1.2,1.2v0.1h1.9v-8.4L8.7,9z M10.1,9.7c0,0.1-0.1,0.2-0.3,0.2S9.6,9.8,9.6,9.6
	c0-0.1,0.1-0.2,0.3-0.2S10.1,9.5,10.1,9.7z M11.5,9.9c0,0.1-0.1,0.2-0.3,0.2c-0.1,0-0.2-0.1-0.2-0.3c0-0.1,0.1-0.2,0.3-0.2
	C11.4,9.6,11.5,9.7,11.5,9.9z M12.8,10.1c0,0.1-0.1,0.2-0.3,0.2c-0.1,0-0.2-0.1-0.2-0.3s0.1-0.2,0.3-0.2S12.9,9.9,12.8,10.1z
	 M14.2,10.3c0,0.1-0.1,0.2-0.3,0.2c-0.1,0-0.2-0.1-0.2-0.3c0-0.1,0.1-0.2,0.3-0.2C14.1,10,14.2,10.1,14.2,10.3z M15.6,10.5
	c0,0.1-0.1,0.2-0.3,0.2c-0.1,0-0.2-0.1-0.2-0.3c0-0.1,0.1-0.2,0.3-0.2C15.5,10.2,15.6,10.3,15.6,10.5z M17,10.6
	c0,0.1-0.1,0.2-0.3,0.2c-0.1,0-0.2-0.1-0.2-0.3c0-0.1,0.1-0.2,0.3-0.2c0.1,0,0.1,0,0.2,0.1C16.9,10.5,17,10.6,17,10.6z M18.3,10.8
	c0,0.1,0,0.1-0.1,0.2c-0.1,0-0.1,0.1-0.2,0c-0.1,0-0.1,0-0.2-0.1c0-0.1-0.1-0.1,0-0.2c0-0.1,0.1-0.2,0.3-0.2
	C18.2,10.6,18.3,10.7,18.3,10.8z M19.7,11c0,0.1-0.1,0.2-0.3,0.2c-0.1,0-0.2-0.1-0.2-0.3c0-0.1,0.1-0.2,0.3-0.2
	C19.6,10.8,19.7,10.9,19.7,11L19.7,11z M10.2,15.1H7.1l0.6-2.4h2.5V15.1z M16.7,17.9h-1v-2.7c0,0-0.1,0-0.1,0.1
	c-0.2,0.1-0.4,0.2-0.6,0.3l-0.3,0.1v-0.9l0.1-0.1c0.3-0.1,0.5-0.2,0.7-0.4s0.3-0.3,0.4-0.4l0.1-0.1h0.8L16.7,17.9L16.7,17.9z
	 M19.6,17.9h-1v-2.7c0,0-0.1,0-0.1,0.1c-0.2,0.1-0.4,0.2-0.6,0.3l-0.3,0.1v-0.9l0.1-0.1c0.3-0.1,0.5-0.2,0.7-0.4s0.3-0.3,0.4-0.4
	l0.1-0.1h0.8L19.6,17.9L19.6,17.9z M23.3,11.5c0-0.1,0.1-0.2,0.3-0.2c0.1,0,0.2,0.1,0.2,0.3c0,0.1-0.1,0.2-0.3,0.2
	C23.4,11.8,23.3,11.7,23.3,11.5z M21.9,11.3c0-0.1,0.1-0.2,0.3-0.2s0.2,0.1,0.2,0.3c0,0.1-0.1,0.2-0.3,0.2
	C22,11.6,21.9,11.5,21.9,11.3L21.9,11.3z M20.6,11.2c0-0.1,0.1-0.2,0.3-0.2c0.1,0,0.2,0.1,0.2,0.3c0,0.1-0.1,0.2-0.3,0.2
	C20.6,11.4,20.5,11.3,20.6,11.2L20.6,11.2z M23.7,16.9c-0.1,0.3-0.3,0.6-0.6,0.8c-0.3,0.2-0.6,0.3-1,0.3s-0.7-0.1-1-0.3
	s-0.4-0.5-0.5-0.8v-0.2l0.9-0.1c-0.2-0.1-0.4-0.2-0.5-0.3c-0.3-0.3-0.4-0.6-0.4-1s0.2-0.8,0.5-1.1s0.7-0.4,1.2-0.4
	c0.3,0,0.6,0.1,0.9,0.2c0.3,0.2,0.5,0.4,0.6,0.7s0.2,0.6,0.2,1.1C23.9,16.2,23.8,16.6,23.7,16.9L23.7,16.9z M25.2,11.8
	c0,0.1-0.1,0.2-0.3,0.2c-0.1,0-0.2-0.1-0.2-0.3c0-0.1,0.1-0.2,0.3-0.2c0.1,0,0.1,0,0.2,0.1C25.2,11.7,25.2,11.7,25.2,11.8L25.2,11.8
	z M21.7,15.6c0.2,0.2,0.6,0.2,0.9,0c0.1-0.1,0.2-0.3,0.2-0.5s-0.1-0.4-0.2-0.5s-0.2-0.2-0.4-0.2c-0.2,0-0.3,0.1-0.4,0.2
	c-0.1,0.1-0.2,0.3-0.2,0.5S21.6,15.5,21.7,15.6L21.7,15.6z"/>
</svg>
