<?xml version="1.0" encoding="utf-8"?>
<!-- Generator: Adobe Illustrator 21.0.0, SVG Export Plug-In . SVG Version: 6.00 Build 0)  -->
<svg version="1.1" id="图层_1" xmlns="http://www.w3.org/2000/svg" xmlns:xlink="http://www.w3.org/1999/xlink" x="0px" y="0px"
	 viewBox="0 0 35 45.5" style="enable-background:new 0 0 35 45.5;" xml:space="preserve">
<style type="text/css">
	.st0{opacity:0.35;fill:#A100FF;enable-background:new    ;}
	.st1{fill:#A100FF;}
	.st2{fill:#FFFFFF;}
	.st3{fill:#7A05CE;}
</style>
<title>涝_画板 1</title>
<ellipse class="st0" cx="17.3" cy="41.9" rx="10.4" ry="3.3"/>
<ellipse class="st0" cx="17.3" cy="41.4" rx="5.5" ry="1.8"/>
<path class="st1" d="M30.9,9.3c0,0-2.9-8.3-13.9-8.8l0,0C6,1,3.1,9.3,3.1,9.3c-1.9,5.3-1.4,11.2,1.5,16.1C8.6,32.2,14.8,39,17,41.2
	l0,0c2.1-2.3,8.4-9,12.4-15.8C32.3,20.5,32.8,14.6,30.9,9.3z"/>
<circle class="st2" cx="17" cy="15.2" r="13.1"/>
<path class="st3" d="M22.7,10.3c1.2,1,2.2,1.9,2.8,2.4c0.2,0.1,0.1,0.4-0.2,0.4H24v9.5c0,0.2-0.2,0.4-0.4,0.4l0,0h-2.3v-8.8h-9.1V23
	H10c-0.2,0-0.4-0.2-0.4-0.4l0,0v-9.5H8.3c-0.3,0-0.3-0.3-0.1-0.5c1.8-1.5,6.8-5.8,8.2-7c0.2-0.1,0.5-0.2,0.8,0
	c0.6,0.5,1.9,1.6,3.3,2.8L22.7,10.3z"/>
<path class="st3" d="M19.1,20.9h-3.5c-0.3,0-0.6-0.3-0.6-0.6l0,0v-3.4h4.1V20.9z"/>
<path class="st1" d="M22.5,9.3c1.2,1,2.2,1.9,2.8,2.4c0.2,0.1,0.1,0.4-0.2,0.4h-1.3v9.5c0,0.2-0.2,0.4-0.4,0.4l0,0h-2.3v-8.8H12V22
	H9.8c-0.2,0-0.4-0.2-0.4-0.4l0,0v-9.5H8.1c-0.3,0-0.3-0.3-0.1-0.5c1.8-1.5,6.8-5.8,8.2-7c0.2-0.1,0.5-0.2,0.8,0
	c0.6,0.5,1.9,1.6,3.3,2.8L22.5,9.3z"/>
<path class="st1" d="M19.1,20.1h-3.5c-0.3,0-0.6-0.3-0.6-0.6l0,0v-3.4h4.1V20.1z"/>
</svg>
