<?xml version="1.0" encoding="utf-8"?>
<!-- Generator: Adobe Illustrator 21.0.0, SVG Export Plug-In . SVG Version: 6.00 Build 0)  -->
<svg version="1.1" id="图层_1" xmlns="http://www.w3.org/2000/svg" xmlns:xlink="http://www.w3.org/1999/xlink" x="0px" y="0px"
	 viewBox="0 0 35 45.5" style="enable-background:new 0 0 35 45.5;" xml:space="preserve">
<style type="text/css">
	.st0{opacity:0.35;fill:#00E1FF;enable-background:new    ;}
	.st1{fill:#00E1FF;}
	.st2{fill:#FFFFFF;}
	.st3{fill:#009093;}
</style>
<title>涝_画板 1</title>
<ellipse class="st0" cx="17.3" cy="41.9" rx="10.4" ry="3.3"/>
<ellipse class="st0" cx="17.3" cy="41.4" rx="5.5" ry="1.8"/>
<path class="st1" d="M30.9,9.3c0,0-2.9-8.3-13.9-8.8l0,0C6,1,3.1,9.3,3.1,9.3c-1.9,5.3-1.4,11.2,1.5,16.1C8.6,32.2,14.8,39,17,41.2
	l0,0c2.1-2.3,8.4-9,12.4-15.8C32.3,20.5,32.8,14.6,30.9,9.3z"/>
<circle class="st2" cx="17" cy="15.2" r="13.1"/>
<path class="st3" d="M16.2,18.4c-0.4,0.4-0.4,1.2,0,1.6c0.2,0.2,0.5,0.3,0.8,0.3s0.6-0.1,0.8-0.3c0.4-0.4,0.4-1.2,0-1.6
	C17.4,17.9,16.6,17.9,16.2,18.4L16.2,18.4z M19.4,15.2c-0.6-0.4-1.3-0.6-2-0.7h-0.8c-0.7,0-1.4,0.3-2,0.7c-0.3,0.2-0.6,0.4-0.9,0.7
	L13.6,16l1.4,1.4l0.1-0.1c0.4-0.4,0.9-0.6,1.4-0.8c0.3,0,0.7,0,1,0c0.5,0.1,1,0.4,1.4,0.8l0.1,0.1l1.4-1.4l-0.1-0.1
	C20,15.6,19.8,15.4,19.4,15.2L19.4,15.2z"/>
<path class="st3" d="M22.9,13.3c-1-1-2.2-1.7-3.5-2.1c-1.5-0.4-3.2-0.4-4.7,0c-1.3,0.4-2.6,1.1-3.5,2.1l-0.1,0.1l1.4,1.4l0.1-0.1
	c0.9-0.9,1.9-1.4,3-1.7c1-0.2,1.9-0.2,2.9,0c1.2,0.3,2.2,0.9,3,1.7l0.1,0.1l1.4-1.4L22.9,13.3z"/>
<path class="st3" d="M9.2,16.4c-0.1-0.4-0.1-0.9-0.1-1.3c0-1.4,0.4-2.8,1.1-3.9c0.9-1.6,2.3-2.8,4-3.4c0.3-0.1,0.6-0.2,0.9-0.3
	c0.3,0.8,1.1,1.3,1.9,1.3s1.6-0.5,1.9-1.3C19,7.2,19.1,7,19.1,6.7c0-0.2,0-0.3,0-0.4c-0.3-1-1.1-1.7-2.1-1.7s-1.8,0.7-2,1.6l-1,0.3
	c-2.1,0.7-3.9,2.2-4.9,4.1c-0.8,1.3-1.3,2.9-1.3,4.6c0,0.6,0,1.2,0.2,1.7C8.4,16.6,8.8,16.5,9.2,16.4L9.2,16.4z M16.5,6
	c0.1-0.1,0.3-0.1,0.4-0.1s0.3,0,0.4,0.1c0.2,0.1,0.4,0.4,0.4,0.7c0,0.2-0.1,0.4-0.3,0.6c-0.1,0.1-0.3,0.2-0.5,0.2s-0.4-0.1-0.5-0.2
	c-0.2-0.1-0.3-0.4-0.3-0.6C16.2,6.4,16.3,6.2,16.5,6z M22,21.2c-1.3,1.1-3.1,1.8-5,1.8s-3.6-0.7-5-1.8c-0.2-0.2-0.4-0.4-0.7-0.6
	c0.3-0.4,0.4-0.8,0.4-1.3c0-1.2-0.9-2.1-2.1-2.1c-0.1,0-0.2,0-0.3,0c-0.4,0-0.9,0.3-1.2,0.5c-0.4,0.4-0.7,0.9-0.7,1.5
	c0,1.2,0.9,2.1,2.1,2.1c0.2,0,0.4,0,0.6-0.1c0.2,0.2,0.4,0.4,0.7,0.7c1.6,1.4,3.7,2.2,6,2.2s4.4-0.9,6-2.3
	C22.6,21.8,22.3,21.6,22,21.2L22,21.2z M10.5,19.5c-0.1,0.4-0.4,0.6-0.8,0.6c-0.1,0-0.3,0-0.4-0.1c-0.2-0.1-0.4-0.4-0.4-0.7
	c0-0.4,0.4-0.8,0.8-0.8c0.1,0,0.2,0,0.2,0c0.3,0.1,0.6,0.4,0.6,0.8L10.5,19.5L10.5,19.5z M25.7,17.8c0.1-0.3,0.2-0.6,0.2-0.9
	c0.1-0.6,0.2-1.2,0.2-1.7c0-1.7-0.4-3.2-1.3-4.6c-1.1-1.9-2.9-3.4-4.9-4.1v0.2c0,0.4-0.1,0.8-0.2,1.1c1.7,0.6,3.1,1.9,4,3.4
	c0.7,1.2,1.1,2.5,1.1,3.9c0,0.4,0,0.9-0.1,1.3c0,0.3-0.1,0.6-0.2,0.9c-0.1,0-0.2,0-0.3,0c-1.2,0-2.1,0.9-2.1,2.1
	c0,0.4,0.2,0.9,0.4,1.3c0.3,0.4,0.6,0.6,1,0.8c0.2,0,0.4,0.1,0.6,0.1c1.2,0,2.1-0.9,2.1-2.1C26.4,18.7,26.2,18.2,25.7,17.8z
	 M24.7,20.1c-0.1,0-0.2,0.1-0.4,0.1c-0.4,0-0.7-0.3-0.8-0.6v-0.2c0-0.4,0.2-0.7,0.5-0.8c0.1,0,0.2,0,0.3,0c0.4,0,0.8,0.4,0.8,0.8
	l0,0C25.1,19.7,25,19.9,24.7,20.1z"/>
<path class="st1" d="M16,17.9c-0.4,0.4-0.4,1.2,0,1.6c0.2,0.2,0.5,0.3,0.8,0.3s0.6-0.1,0.8-0.3c0.4-0.4,0.4-1.2,0-1.6
	C17.2,17.5,16.4,17.5,16,17.9L16,17.9z M19.2,14.7c-0.6-0.4-1.3-0.6-2-0.7h-0.8c-0.7,0-1.4,0.3-2,0.7c-0.3,0.2-0.6,0.4-0.9,0.7
	l-0.1,0.1l1.4,1.4l0.1-0.1c0.4-0.4,0.9-0.6,1.4-0.8c0.3,0,0.7,0,1,0c0.5,0.1,1,0.4,1.4,0.8l0.1,0.1l1.4-1.4l-0.1-0.1
	C19.8,15.1,19.6,14.9,19.2,14.7L19.2,14.7z"/>
<path class="st1" d="M22.7,12.8c-1-1-2.2-1.7-3.5-2.1c-1.5-0.4-3.2-0.4-4.7,0c-1.3,0.4-2.6,1.1-3.5,2.1L10.7,13l1.4,1.4l0.1-0.1
	c0.9-0.9,1.9-1.4,3-1.7c1-0.2,1.9-0.2,2.9,0c1.2,0.3,2.2,0.9,3,1.7l0.1,0.1l1.4-1.4L22.7,12.8z"/>
<path class="st1" d="M9,16c-0.1-0.4-0.1-0.9-0.1-1.3c0-1.4,0.4-2.8,1.1-3.9c0.9-1.6,2.3-2.8,4-3.4c0.3-0.1,0.6-0.2,0.9-0.3
	c0.3,0.8,1.1,1.3,1.9,1.3c0.9,0,1.6-0.5,1.9-1.3c0.1-0.3,0.2-0.5,0.2-0.8c0-0.2,0-0.3,0-0.4c-0.3-0.9-1.1-1.6-2.1-1.6S15,5,14.8,5.9
	l-1,0.1c-2.1,0.7-3.9,2.2-4.9,4.1c-0.8,1.3-1.3,2.9-1.3,4.6c0,0.6,0,1.2,0.2,1.7C8.2,16.2,8.6,16,9,16L9,16z M16.3,5.6
	c0.1-0.1,0.3-0.1,0.4-0.1c0.2,0,0.3,0,0.4,0.1c0.2,0.1,0.4,0.4,0.4,0.7c0,0.2-0.1,0.4-0.3,0.6c0,0.1-0.2,0.2-0.4,0.2
	S16.4,7,16.3,6.9C16.1,6.7,16,6.5,16,6.2C16,5.9,16.1,5.7,16.3,5.6z M21.8,20.7c-1.3,1.1-3.1,1.8-5,1.8s-3.6-0.7-5-1.8
	c-0.2-0.2-0.4-0.4-0.7-0.6c0.3-0.4,0.4-0.8,0.4-1.3c0-1.2-0.9-2.1-2.1-2.1c-0.1,0-0.2,0-0.3,0c-0.4,0-0.9,0.3-1.2,0.5
	c-0.4,0.4-0.7,0.9-0.7,1.5C7.4,20,8.4,21,9.5,21c0.2,0,0.4,0,0.6-0.1c0.2,0.2,0.4,0.4,0.7,0.7c1.6,1.4,3.7,2.2,6,2.2s4.4-0.9,6-2.3
	C22.4,21.4,22.1,21.1,21.8,20.7L21.8,20.7z M10.3,19.1c-0.1,0.4-0.4,0.6-0.8,0.6c-0.1,0-0.3,0-0.4-0.1c-0.2-0.1-0.4-0.4-0.4-0.7
	c0-0.4,0.4-0.8,0.8-0.8c0.1,0,0.2,0,0.2,0c0.3,0.1,0.6,0.4,0.6,0.8L10.3,19.1L10.3,19.1z M25.5,17.4c0.1-0.3,0.2-0.6,0.2-0.9
	c0.1-0.6,0.2-1.2,0.2-1.7c0-1.7-0.4-3.2-1.3-4.6c-1.1-1.9-2.9-3.4-4.9-4.1v0.2c0,0.4-0.1,0.8-0.2,1.1c1.7,0.6,3.1,1.9,4,3.4
	c0.7,1.2,1.1,2.5,1.1,3.9c0,0.4,0,0.9-0.1,1.3c0,0.3-0.1,0.6-0.2,0.9c-0.1,0-0.2,0-0.3,0c-1.2,0-2.1,0.9-2.1,2.1
	c0,0.4,0.2,0.9,0.4,1.3c0.3,0.4,0.6,0.6,1,0.8c0.2,0,0.4,0.1,0.6,0.1c1.2,0,2.1-0.9,2.1-2.1C26.2,18.3,26,17.7,25.5,17.4z
	 M24.5,19.6c-0.1,0-0.2,0.1-0.4,0.1c-0.4,0-0.7-0.3-0.8-0.6v-0.2c0-0.4,0.2-0.7,0.5-0.8c0.1,0,0.2,0,0.3,0c0.4,0,0.8,0.4,0.8,0.8
	l0,0C24.9,19.2,24.8,19.5,24.5,19.6z"/>
</svg>
