<?xml version="1.0" encoding="utf-8"?>
<!-- Generator: Adobe Illustrator 21.0.0, SVG Export Plug-In . SVG Version: 6.00 Build 0)  -->
<svg version="1.1" id="图层_1" xmlns="http://www.w3.org/2000/svg" xmlns:xlink="http://www.w3.org/1999/xlink" x="0px" y="0px"
	 viewBox="0 0 35 45.5" style="enable-background:new 0 0 35 45.5;" xml:space="preserve">
<style type="text/css">
	.st0{opacity:0.35;fill:#0068FF;enable-background:new    ;}
	.st1{fill:#0068FF;}
	.st2{fill:#FFFFFF;}
	.st3{fill:#024CA5;}
</style>
<title>涝_画板 1</title>
<ellipse class="st0" cx="17.3" cy="41.9" rx="10.4" ry="3.3"/>
<ellipse class="st0" cx="17.3" cy="41.4" rx="5.5" ry="1.8"/>
<path class="st1" d="M30.9,9.3c0,0-2.9-8.3-13.9-8.8l0,0C6,1,3.1,9.3,3.1,9.3c-1.9,5.3-1.4,11.2,1.5,16.1C8.6,32.2,14.8,39,17,41.2
	l0,0c2.1-2.3,8.4-9,12.4-15.8C32.3,20.5,32.8,14.6,30.9,9.3z"/>
<circle class="st2" cx="17" cy="15.2" r="13.1"/>
<path class="st3" d="M24.9,22L23.4,21V10.5c0-1.4-1-2.4-2.4-2.4h-8c-1.4,0-2.4,1-2.4,2.4V21L9.2,22c-0.2,0.2-0.2,0.4,0,0.6
	c0,0.1,0.1,0.1,0.2,0.1c0.1,0,0.2,0,0.3-0.1l2.6-1.7c0,0,1,0,9.6,0l2.4,1.7c0.1,0.1,0.2,0.1,0.3,0.1s0.2,0,0.3-0.1
	C25,22.4,25,22.2,24.9,22z M13,19.2c-0.6,0-1-0.5-1-1c0-0.6,0.5-1,1-1c0.6,0,1,0.5,1,1C14.1,18.8,13.6,19.2,13,19.2z M14.5,15.7
	c-1.4,0-2.5-0.2-2.5-1.4v-2.6c0-1.2,1-2,2.3-2c0.1,0.1,5.2,0,6,0c0.6,0,1.8,0.8,1.8,1.9v1.9c0,1.1-1.1,2.1-2.5,2.1L14.5,15.7
	L14.5,15.7z M21.1,19.2c-0.6,0-1-0.5-1-1c0-0.6,0.5-1,1-1c0.6,0,1,0.5,1,1C22.1,18.8,21.7,19.2,21.1,19.2z"/>
<path class="st1" d="M25.2,21.6l-1.5-1.1V10.1c0-1.4-1-2.4-2.4-2.4h-8c-1.4,0-2.4,1-2.4,2.4v10.4l-1.5,1.1c-0.2,0.2-0.2,0.4,0,0.6
	c0,0.1,0.1,0.1,0.2,0.1c0.1,0,0.2,0,0.3-0.1l2.6-1.7c0,0,1,0,9.6,0l2.4,1.7c0.1,0.1,0.2,0.1,0.3,0.1s0.2,0,0.3-0.1
	C25.3,22,25.3,21.8,25.2,21.6z M13.3,18.8c-0.6,0-1-0.5-1-1c0-0.6,0.5-1,1-1c0.6,0,1,0.5,1,1C14.4,18.4,13.9,18.8,13.3,18.8z
	 M14.8,15.3c-1.4,0-2.5-0.2-2.5-1.4v-2.6c0-1.2,1-2,2.3-2c0.1,0.1,5.2,0,6,0c0.6,0,1.8,0.8,1.8,1.9v1.9c0,1.1-1.1,2.1-2.5,2.1
	L14.8,15.3L14.8,15.3z M21.4,18.8c-0.6,0-1-0.5-1-1c0-0.6,0.5-1,1-1c0.6,0,1,0.5,1,1C22.4,18.4,22,18.8,21.4,18.8z"/>
</svg>
