<?xml version="1.0" encoding="utf-8"?>
<!-- Generator: Adobe Illustrator 21.0.0, SVG Export Plug-In . SVG Version: 6.00 Build 0)  -->
<svg version="1.1" id="图层_1" xmlns="http://www.w3.org/2000/svg" xmlns:xlink="http://www.w3.org/1999/xlink" x="0px" y="0px"
	 viewBox="0 0 35 45.5" style="enable-background:new 0 0 35 45.5;" xml:space="preserve">
<style type="text/css">
	.st0{opacity:0.35;fill:#006187;enable-background:new    ;}
	.st1{fill:#006187;}
	.st2{fill:#FFFFFF;}
	.st3{fill:#034559;}
</style>
<title>涝_画板 1</title>
<ellipse class="st0" cx="17.3" cy="41.9" rx="10.4" ry="3.3"/>
<ellipse class="st0" cx="17.3" cy="41.4" rx="5.5" ry="1.8"/>
<path class="st1" d="M30.9,9.3c0,0-2.9-8.3-13.9-8.8l0,0C6,1,3.1,9.3,3.1,9.3c-1.9,5.3-1.4,11.2,1.5,16.1C8.6,32.2,14.8,39,17,41.2
	l0,0c2.1-2.3,8.4-9,12.4-15.8C32.3,20.5,32.8,14.6,30.9,9.3z"/>
<circle class="st2" cx="17" cy="15.2" r="13.1"/>
<path class="st3" d="M22.6,9.7L22.6,9.7v5.2h1.1v9.8h-1.5v-1.4H12v1.4h-1.5v-9.8h1.2V9.7l0,0l-1.3-0.9L17.1,5l6.5,3.6L22.6,9.7z
	 M13.2,9.2v5.7h1.6c0.1-0.8,0.6-1.5,1.4-1.8c-0.6-0.4-0.9-1.3-0.4-1.9c0.4-0.6,1.3-0.9,1.9-0.4c0.6,0.4,0.9,1.3,0.4,1.9
	C18,12.8,17.9,13,17.8,13c0.9,0.3,1.4,1,1.5,1.8H21V9.2H13.2z"/>
<path class="st1" d="M22.2,8.9L22.2,8.9v5.2h1.1v9.8h-1.5v-1.4H11.6v1.4h-1.5v-9.8h1.2V8.9l0,0L10,8.1l6.7-3.8L23.2,8L22.2,8.9z
	 M12.8,8.4v5.7h1.6c0.1-0.8,0.6-1.5,1.4-1.8c-0.6-0.4-0.9-1.3-0.4-1.9c0.4-0.6,1.3-0.9,1.9-0.4c0.6,0.4,0.9,1.3,0.4,1.9
	c-0.1,0.1-0.2,0.3-0.3,0.3c0.9,0.3,1.4,1,1.5,1.8h1.6V8.4H12.8z"/>
</svg>
