<?xml version="1.0" encoding="utf-8"?>
<!-- Generator: Adobe Illustrator 21.0.0, SVG Export Plug-In . SVG Version: 6.00 Build 0)  -->
<svg version="1.1" id="图层_1" xmlns="http://www.w3.org/2000/svg" xmlns:xlink="http://www.w3.org/1999/xlink" x="0px" y="0px"
	 viewBox="0 0 35 45.5" style="enable-background:new 0 0 35 45.5;" xml:space="preserve">
<style type="text/css">
	.st0{opacity:0.35;fill:#008F57;enable-background:new    ;}
	.st1{fill:#008F57;}
	.st2{fill:#FFFFFF;}
	.st3{fill:#024225;enable-background:new    ;}
</style>
<title>涝_画板 1</title>
<ellipse class="st0" cx="17.3" cy="41.9" rx="10.4" ry="3.3"/>
<ellipse class="st0" cx="17.3" cy="41.4" rx="5.5" ry="1.8"/>
<path class="st1" d="M30.9,9.3c0,0-2.9-8.3-13.9-8.8l0,0C6,1,3.1,9.3,3.1,9.3c-1.9,5.3-1.4,11.2,1.5,16.1C8.6,32.2,14.8,39,17,41.2
	l0,0c2.1-2.3,8.4-9,12.4-15.8C32.3,20.5,32.8,14.6,30.9,9.3z"/>
<circle class="st2" cx="17" cy="15.2" r="13.1"/>
<path class="st3" d="M18.5,5.7c1.2,0,2.1,0.9,2.1,2.1v0.1c1.4-0.3,2.8,0.6,3.1,2.1c0.3,1.4-0.6,2.8-2.1,3.1
	c-0.9,0.2-1.8-0.1-2.4-0.7c0.2,0.3,0.2,0.5,0.3,0.6v0.3c0.1,0.5,0.1,0.9-0.2,1.8c-0.1,0.2-0.2,0.5-0.4,0.8l-0.6,0.9
	c-0.4,0.8-0.9,1.6-1.1,2.8c-0.3,2.1,0.9,3.7,3.5,4.7c0.3,0.1,0.3,0.2,0.3,0.4c0,0.1-0.1,0.2-0.2,0.2h-6.2c-0.8-1.1-1.2-2.4-1.2-3.7
	c0-1.5,0.5-2.9,1.5-4.1l0.3-0.3l0.4-0.5l0.3-0.4c0.6-0.8,1.2-1.7,1.2-2.7c0-0.2,0-0.3,0-0.5c-1.2,0.9-2.8,0.6-3.7-0.6
	S12.8,9.3,14,8.4C14.6,8,15.3,7.8,16.1,8V7.9C16.4,6.7,17.3,5.7,18.5,5.7z M9.5,18.4c0.8,0,1.5,0.6,1.6,1.4v0.1
	c0.5,0.1,1,0.4,1.5,0.7h0.1c0,0.4,0,0.8,0,1.3c-0.2-0.1-0.4-0.3-0.6-0.4c-0.4-0.2-0.9-0.4-1.3-0.6c-0.5,0.7-1.5,0.9-2.2,0.3
	c-0.1-0.1-0.2-0.2-0.3-0.3c-0.5,0.2-1.1-0.1-1.3-0.6c-0.2-0.5,0.1-1.1,0.6-1.3c0.2-0.1,0.5-0.1,0.7,0C8.6,18.6,9,18.4,9.5,18.4z
	 M22.6,13.8c0.2,0.1,0.3,0.3,0.4,0.4c1.1-0.4,2.3,0.2,2.7,1.3c0.4,1.1-0.2,2.3-1.3,2.7c-0.5,0.2-0.9,0.2-1.4,0
	c-0.6,0.7-1.5,1.2-2.5,1.2c-0.7,0-1.4-0.2-1.9-0.7c0.2-0.5,0.4-0.9,0.7-1.5l0.6-1c0.2-0.4,0.4-0.7,0.5-1.1c0.1-0.4,0.2-0.8,0.2-1.1
	C21.3,14.2,22,14.1,22.6,13.8L22.6,13.8z M12.6,12.1c0.6,1.2,1.9,2,3.3,2H16h0.1v0.1c-0.2,0.3-0.4,0.6-0.6,0.9l-0.2,0.3l-0.7,0.8
	l-0.3,0.3l-0.1,0.1c-0.4,0.5-0.7,1.1-1,1.8c-0.9,0-1.8-0.4-2.4-1.2c-1.1,0.4-2.3-0.2-2.7-1.3s0.2-2.3,1.3-2.7c0.5-0.2,0.9-0.2,1.4,0
	C11.2,12.7,11.8,12.3,12.6,12.1L12.6,12.1z"/>
<path class="st1" d="M18.5,5.1c1.2,0,2.1,0.9,2.1,2.1v0.1C22,7,23.4,7.9,23.7,9.4c0.3,1.4-0.6,2.8-2.1,3.1c-0.9,0.2-1.8-0.1-2.4-0.7
	c0.2,0.3,0.2,0.5,0.3,0.6v0.3c0.1,0.5,0.1,0.9-0.2,1.8c-0.1,0.2-0.2,0.5-0.4,0.8l-0.6,0.9c-0.3,0.6-0.7,1.5-0.9,2.6
	c-0.3,2.1,0.9,3.7,3.5,4.7c0.3,0.1,0.3,0.2,0.3,0.4c0,0.1-0.1,0.2-0.2,0.2h-6.2c-0.8-1.1-1.2-2.4-1.2-3.7c0-1.5,0.5-2.9,1.5-4.1
	l0.3-0.3l0.4-0.5l0.3-0.4c0.6-0.8,1.2-1.7,1.2-2.7c0-0.2,0-0.3,0-0.5c-1.2,0.9-2.8,0.6-3.7-0.6S13,8.5,14.2,7.6
	c0.6-0.4,1.3-0.6,2.1-0.4V7.1C16.4,6,17.3,5.1,18.5,5.1z M9.5,17.7c0.8,0,1.5,0.6,1.6,1.4v0.1c0.5,0.1,1,0.4,1.5,0.7h0.1
	c0,0.4,0,0.8,0,1.3c-0.2-0.1-0.4-0.3-0.6-0.4c-0.4-0.2-0.9-0.4-1.3-0.6c-0.5,0.7-1.5,0.9-2.2,0.3c-0.1-0.1-0.2-0.2-0.3-0.3
	c-0.5,0.2-1.1-0.1-1.3-0.6c-0.2-0.5,0.1-1.1,0.6-1.3c0.2-0.1,0.5-0.1,0.7,0C8.6,17.9,9,17.7,9.5,17.7z M22.6,13.2
	c0.2,0.1,0.3,0.3,0.4,0.4c1.1-0.4,2.3,0.2,2.7,1.3c0.4,1.1-0.2,2.3-1.3,2.7c-0.4,0.2-0.9,0.2-1.4,0c-0.6,0.7-1.5,1.2-2.5,1.2
	c-0.7,0-1.4-0.2-1.9-0.7c0.2-0.5,0.4-0.9,0.7-1.5l0.6-1c0.2-0.4,0.4-0.7,0.5-1.1c0.1-0.4,0.2-0.8,0.2-1.1
	C21.3,13.6,22,13.5,22.6,13.2L22.6,13.2z M12.6,11.5c0.6,1.2,1.9,2,3.3,2H16h0.1v0.1c-0.2,0.3-0.4,0.6-0.6,0.9l-0.2,0.3l-0.7,0.8
	l-0.3,0.2l-0.1,0.1c-0.4,0.5-0.7,1.1-1,1.8c-0.9,0-1.8-0.4-2.4-1.2c-1.1,0.4-2.3-0.2-2.7-1.3s0.2-2.3,1.3-2.7c0.5-0.2,0.9-0.2,1.4,0
	C11.2,12,11.8,11.6,12.6,11.5L12.6,11.5z"/>
</svg>
