<?xml version="1.0" encoding="utf-8"?>
<!-- Generator: Adobe Illustrator 21.0.0, SVG Export Plug-In . SVG Version: 6.00 Build 0)  -->
<svg version="1.1" id="图层_1" xmlns="http://www.w3.org/2000/svg" xmlns:xlink="http://www.w3.org/1999/xlink" x="0px" y="0px"
	 viewBox="0 0 35 45.5" style="enable-background:new 0 0 35 45.5;" xml:space="preserve">
<style type="text/css">
	.st0{opacity:0.35;fill:#60B200;enable-background:new    ;}
	.st1{fill:#60B200;}
	.st2{fill:#FFFFFF;}
	.st3{fill:#4C8207;}
</style>
<title>涝_画板 1</title>
<ellipse class="st0" cx="17.3" cy="41.9" rx="10.4" ry="3.3"/>
<ellipse class="st0" cx="17.3" cy="41.4" rx="5.5" ry="1.8"/>
<path class="st1" d="M30.9,9.3c0,0-2.9-8.3-13.9-8.8l0,0C6,1,3.1,9.3,3.1,9.3c-1.9,5.3-1.4,11.2,1.5,16.1C8.6,32.2,14.8,39,17,41.2
	l0,0c2.1-2.3,8.4-9,12.4-15.8C32.3,20.5,32.8,14.6,30.9,9.3z"/>
<circle class="st2" cx="17" cy="15.2" r="13.1"/>
<path class="st3" d="M21.1,20.1c0.1,0.4,0.4,0.8,0.8,1.3c1,1.3,2.9,2.6,2.9,2.6H9.6c0,0,1.9-1.4,3-2.7c0.3-0.4,0.5-0.7,0.6-1
	c-2.4-1.4-4-4-4-6.9c0-4.4,3.5-7.9,7.8-7.9s7.8,3.5,7.8,7.9C24.8,16.2,23.3,18.7,21.1,20.1z M17,8.2c-2.8,0-5,2.3-5,5.2
	s2.3,5.2,5,5.2c2.8,0,5-2.3,5-5.2S19.8,8.2,17,8.2z M17,16.2c-1.5,0-2.7-1.2-2.7-2.8s1.2-2.8,2.7-2.8s2.7,1.2,2.7,2.8
	S18.5,16.2,17,16.2z"/>
<path class="st1" d="M20.9,19.5c0.1,0.4,0.4,0.8,0.8,1.3c1,1.3,2.9,2.6,2.9,2.6H9.4c0,0,1.9-1.4,3-2.7c0.3-0.4,0.5-0.7,0.6-1
	c-2.4-1.4-4-4-4-6.9c0-4.4,3.5-7.9,7.8-7.9s7.8,3.5,7.8,7.9C24.5,15.6,23.1,18.1,20.9,19.5z M16.8,7.6c-2.8,0-5,2.3-5,5.2
	s2.3,5.2,5,5.2c2.8,0,5-2.3,5-5.2S19.6,7.6,16.8,7.6z M16.8,15.6c-1.5,0-2.7-1.2-2.7-2.8s1.2-2.8,2.7-2.8s2.7,1.2,2.7,2.8
	S18.3,15.6,16.8,15.6z"/>
</svg>
