<?xml version="1.0" encoding="utf-8"?>
<!-- Generator: Adobe Illustrator 21.0.0, SVG Export Plug-In . SVG Version: 6.00 Build 0)  -->
<svg version="1.1" id="图层_1" xmlns="http://www.w3.org/2000/svg" xmlns:xlink="http://www.w3.org/1999/xlink" x="0px" y="0px"
	 viewBox="0 0 35 45.5" style="enable-background:new 0 0 35 45.5;" xml:space="preserve">
<style type="text/css">
	.st0{opacity:0.35;fill:#C8FF00;enable-background:new    ;}
	.st1{fill:#C8FF00;}
	.st2{fill:#FFFFFF;}
	.st3{fill:#99BC02;}
</style>
<ellipse class="st0" cx="17.3" cy="41.9" rx="10.4" ry="3.3"/>
<ellipse class="st0" cx="17.3" cy="41.4" rx="5.5" ry="1.8"/>
<path class="st1" d="M30.9,9.3c0,0-2.9-8.3-13.9-8.8l0,0C6,1,3.1,9.3,3.1,9.3c-1.9,5.3-1.4,11.2,1.5,16.1C8.6,32.2,14.8,39,17,41.2
	l0,0c2.1-2.3,8.4-9,12.4-15.8C32.3,20.5,32.8,14.6,30.9,9.3z"/>
<circle class="st2" cx="17" cy="15.2" r="13.1"/>
<path class="st3" d="M22.7,7.2H11.3C10,7.2,9,8.2,9,9.5v11.3c0,1.3,1,2.3,2.3,2.3h11.3c1.3,0,2.3-1,2.3-2.3V9.4
	C25,8.2,24,7.2,22.7,7.2z M23.8,20.9c0,0.6-0.5,1.1-1.1,1.1H11.5c-0.6,0-1.1-0.5-1.1-1.1V9.4c0-0.6,0.5-1.1,1.1-1.1h11.1
	c0.6,0,1.1,0.5,1.1,1.1L23.8,20.9L23.8,20.9z M22,14.9c0,0-1.9,0.4-2.4,0.5s-1.2-0.8-1.4-0.8c-0.1,0.3-0.5,1.2-0.7,1.7
	c0.8,0.1,1.5,0.3,2.1,0.7c0.1,0.3,1.6,2.7,1.6,2.7s0.3,0.6-0.6,0.9s-1-0.5-1-0.5s-1.4-1.7-1.5-1.8C17.6,18.1,17,18,16.5,18
	c-0.3,0.1-0.9,2-1.5,2.2c-0.8,0.2-2.8-1.2-2.8-1.2c-0.4,0-0.8-0.4-0.7-0.9s0.4-0.8,0.9-0.7c0.1,0,0.2,0,0.2,0.1
	c0.6,0.3,0.9,0.7,1.5,0.8c0.3-0.4,0.4-0.8,0.6-1.2c0.2-0.6,0.4-1.2,0.7-1.8c0.2-0.4,0.2-0.8,0.2-1.2c-0.2,0-0.4,0.1-0.5,0.3
	c-0.4,0.6-0.8,1.2-1.2,1.7c-0.6,0.8-1.8,0.1-1.3-0.7c0.6-1,1.4-1.8,2.3-2.5c1.1-0.3,2.3-0.3,3.4,0c0.7,0.2,1.3,0.5,1.7,1.1
	c0.6,0,1.1-0.1,1.7-0.3c0.4-0.2,0.7-0.1,0.9,0.3C22.7,14.7,22,14.9,22,14.9L22,14.9z M19.3,10.6c0,0.6-0.5,1.1-1.1,1.1
	S17,11.2,17,10.6s0.5-1.1,1.1-1.1C18.8,9.4,19.3,9.9,19.3,10.6z"/>
<path class="st1" d="M22.2,7.2H10.8c-1.3,0-2.3,1-2.3,2.3v11.3c0,1.3,1,2.3,2.3,2.3h11.3c1.3,0,2.3-1,2.3-2.3V9.4
	C24.5,8.2,23.5,7.2,22.2,7.2z M23.3,20.9c0,0.6-0.5,1.1-1.1,1.1H11.1c-0.6,0-1.1-0.5-1.1-1.1V9.4c0-0.6,0.5-1.1,1.1-1.1h11.1
	c0.6,0,1.1,0.5,1.1,1.1C23.3,9.4,23.3,20.9,23.3,20.9z M21.5,14.9c0,0-1.9,0.4-2.4,0.5s-1.2-0.8-1.4-0.8c-0.1,0.3-0.5,1.2-0.7,1.7
	c0.8,0.1,1.5,0.3,2.1,0.7c0.1,0.3,1.6,2.7,1.6,2.7s0.3,0.6-0.6,0.9s-1-0.5-1-0.5s-1.4-1.7-1.5-1.8C17.1,18.1,16.5,18,16,18
	c-0.3,0.1-0.9,2-1.5,2.2c-0.8,0.2-2.8-1.2-2.8-1.2c-0.4,0-0.8-0.4-0.7-0.9s0.4-0.8,0.9-0.7c0.1,0,0.2,0,0.2,0.1
	c0.6,0.3,0.9,0.7,1.5,0.8c0.3-0.4,0.4-0.8,0.6-1.2c0.2-0.6,0.4-1.2,0.7-1.8c0.2-0.4,0.2-0.8,0.2-1.2c-0.2,0-0.4,0.1-0.5,0.3
	c-0.4,0.6-0.8,1.2-1.2,1.7c-0.6,0.8-1.8,0.1-1.3-0.7c0.6-1,1.4-1.8,2.3-2.5c1.1-0.3,2.3-0.3,3.4,0c0.7,0.2,1.3,0.5,1.7,1.1
	c0.6,0,1.1-0.1,1.7-0.3c0.4-0.2,0.7-0.1,0.9,0.3C22.2,14.7,21.5,14.9,21.5,14.9L21.5,14.9z M18.8,10.6c0,0.6-0.5,1.1-1.1,1.1
	s-1.2-0.5-1.2-1.1s0.5-1.1,1.1-1.1C18.3,9.4,18.8,9.9,18.8,10.6z"/>
</svg>
