<?xml version="1.0" encoding="utf-8"?>
<!-- Generator: Adobe Illustrator 21.0.0, SVG Export Plug-In . SVG Version: 6.00 Build 0)  -->
<svg version="1.1" id="图层_1" xmlns="http://www.w3.org/2000/svg" xmlns:xlink="http://www.w3.org/1999/xlink" x="0px" y="0px"
	 viewBox="0 0 35 45.5" style="enable-background:new 0 0 35 45.5;" xml:space="preserve">
<style type="text/css">
	.st0{opacity:0.35;fill:#51FF00;enable-background:new    ;}
	.st1{fill:#51FF00;}
	.st2{fill:#FFFFFF;}
	.st3{fill:#3DB200;}
</style>
<ellipse class="st0" cx="17.3" cy="41.9" rx="10.4" ry="3.3"/>
<ellipse class="st0" cx="17.3" cy="41.4" rx="5.5" ry="1.8"/>
<path class="st1" d="M30.9,9.3c0,0-2.9-8.3-13.9-8.8l0,0C6,1,3.1,9.3,3.1,9.3c-1.9,5.3-1.4,11.2,1.5,16.1C8.6,32.2,14.8,39,17,41.2
	l0,0c2.1-2.3,8.4-9,12.4-15.8C32.3,20.5,32.8,14.6,30.9,9.3z"/>
<circle class="st2" cx="17" cy="15.2" r="13.1"/>
<path class="st3" d="M21,7.3v2.6h2.6v1.7H21v1.7h2.6V15H21v1.7h2.6v1.7H21v2.3l0.1-0.1c0.6-0.6,1-0.9,1.8-0.9c0.4,0,0.7,0.1,1.1,0.2
	c0.6,0.2,1.3,0.8,2.2,1.6l-1.2,1c-0.2-0.2-0.5-0.5-0.7-0.7c-0.5-0.4-1-0.6-1.3-0.6s-0.4,0.1-0.7,0.5c-0.4,0.5-0.8,0.8-1.2,0.9l0,0
	H21c-0.2,0.1-0.5,0.1-0.7,0.1s-0.5,0-0.7-0.1h-0.2v-0.1c-0.4-0.2-0.7-0.5-1-0.9c-0.4-0.4-0.5-0.5-0.7-0.5c-0.3,0-0.4,0.1-0.7,0.5
	c-0.6,0.8-1.1,1.1-2,1.1s-1.3-0.3-2-1.1c-0.4-0.4-0.5-0.5-0.7-0.5c-0.4,0-0.8,0.1-1.1,0.4c-0.2,0.1-0.3,0.3-0.4,0.3l-0.1,0.1
	c-0.2,0.2-0.4,0.4-0.5,0.5L9,21.3c0.2-0.2,0.4-0.4,0.6-0.6c0.1-0.2,0.4-0.4,0.7-0.6c0.6-0.4,1.3-0.7,2-0.7c0.9,0,1.3,0.3,2,1.1
	c0.4,0.4,0.5,0.5,0.7,0.5c0.3,0,0.4-0.1,0.7-0.5c0.6-0.8,1.1-1.1,2-1.1c0.8,0,1.2,0.2,1.8,0.8V6.8H21V7.3z M14.9,9.9
	c2.2,2.4,3.3,4.2,3.3,5.4c0,1.8-1.5,3.3-3.3,3.3s-3.3-1.5-3.3-3.3C11.6,14.2,12.7,12.4,14.9,9.9z M15.9,13.4c-0.7,0.7-1,1.3-1,1.6
	c0,0.5,0.4,1,1,1c0.5,0,1-0.4,1-1C16.8,14.7,16.5,14.1,15.9,13.4z M11.4,7.3c1.2,1.2,1.7,2.1,1.7,2.7c0,0.9-0.8,1.6-1.7,1.6
	S9.7,10.9,9.7,10C9.7,9.4,10.3,8.5,11.4,7.3z M11.9,9.1c-0.3,0.4-0.5,0.6-0.5,0.8c0,0.3,0.2,0.5,0.5,0.5s0.5-0.2,0.5-0.5
	C12.5,9.7,12.3,9.4,11.9,9.1z"/>
<path class="st1" d="M20.7,6.5v2.6h2.6v1.7h-2.6v1.7h2.6v1.7h-2.6V16h2.6v1.7h-2.6V20l0.1-0.1c0.6-0.6,1-0.9,1.8-0.9
	c0.4,0,0.7,0.1,1.1,0.2c0.6,0.2,1.3,0.8,2.2,1.6l-1.2,1c-0.2-0.2-0.5-0.5-0.7-0.7c-0.5-0.4-1-0.6-1.3-0.6S22.3,20.6,22,21
	c-0.4,0.5-0.8,0.8-1.2,0.9l0,0h-0.1C20.5,22,20.2,22,20,22s-0.5,0-0.7-0.1h-0.2V22c-0.4-0.2-0.7-0.5-1-0.9c-0.4-0.4-0.5-0.5-0.7-0.5
	s-0.4,0.1-0.7,0.5c-0.6,0.8-1.1,1.1-2,1.1s-1.3-0.3-2-1.1c-0.4-0.4-0.5-0.5-0.7-0.5c-0.4,0-0.8,0.1-1.1,0.4
	c-0.2,0.1-0.3,0.3-0.4,0.3l-0.1,0.1c-0.2,0.2-0.4,0.4-0.5,0.5l-1.2-1.1c0.2-0.2,0.4-0.4,0.6-0.6c0.1-0.2,0.4-0.4,0.7-0.6
	c0.6-0.4,1.3-0.7,2-0.7c0.9,0,1.3,0.3,2,1.1c0.4,0.4,0.5,0.5,0.7,0.5c0.3,0,0.4-0.1,0.7-0.5c0.6-0.8,1.1-1.1,2-1.1
	c0.8,0,1.2,0.2,1.8,0.8V6.3h1.5C20.7,6.3,20.7,6.5,20.7,6.5z M14.6,9.1c2.2,2.4,3.3,4.2,3.3,5.4c0,1.8-1.5,3.3-3.3,3.3
	s-3.3-1.5-3.3-3.3C11.3,13.3,12.4,11.5,14.6,9.1z M15.6,12.5c-0.7,0.7-1,1.3-1,1.6c0,0.5,0.4,1,1,1c0.5,0,1-0.4,1-1
	C16.6,13.8,16.2,13.3,15.6,12.5z M11.1,6.5c1.2,1.2,1.7,2.1,1.7,2.7c0,0.9-0.8,1.6-1.7,1.6s-1.7-0.7-1.7-1.6
	C9.4,8.6,10,7.7,11.1,6.5z M11.7,8.2c-0.3,0.4-0.5,0.6-0.5,0.8c0,0.3,0.2,0.5,0.5,0.5s0.5-0.2,0.5-0.5C12.2,8.8,12,8.6,11.7,8.2z"/>
</svg>
