<?xml version="1.0" encoding="utf-8"?>
<!-- Generator: Adobe Illustrator 21.0.0, SVG Export Plug-In . SVG Version: 6.00 Build 0)  -->
<svg version="1.1" id="图层_1" xmlns="http://www.w3.org/2000/svg" xmlns:xlink="http://www.w3.org/1999/xlink" x="0px" y="0px"
	 viewBox="0 0 23 19.8" style="enable-background:new 0 0 23 19.8;" xml:space="preserve">
<style type="text/css">
	.st0{fill:#FFFFFF;}
	.st1{fill:#636363;stroke:#EAEAEA;stroke-miterlimit:10;}
	.st2{fill:none;stroke:#EAEAEA;stroke-miterlimit:10;}
</style>
<image style="display:none;overflow:visible;" width="394" height="261" xlink:href="QQ图片20200611095222.png"  transform="matrix(1 0 0 1 -44.3333 -78)">
</image>
<path class="st0" d="M294.1,2c-0.8,0.3-2.4,0.9-4,0.9c-3.5,0-3.5-1.4-7-1.4c-1.8,0-3.3,0.8-3.5,0.9V2.2c0-0.4-0.3-0.7-0.7-0.7
	c0,0,0,0,0,0h-0.6c-0.4,0-0.7,0.3-0.7,0.7v18.6c0,0.4,0.3,0.7,0.7,0.7h0.6c0.4,0,0.7-0.3,0.7-0.7v-7.6c0.3-0.2,1.7-0.9,3.5-0.9
	c3.5,0,3.5,1.4,7,1.4c1.8,0,3.6-0.8,4.2-1.1c0.1-0.1,0.2-0.2,0.2-0.3V2.3c0-0.2-0.1-0.3-0.3-0.3C294.2,2,294.1,2,294.1,2z"/>
<ellipse class="st1" cx="235.2" cy="10" rx="11.4" ry="6.5"/>
<rect x="182.5" y="2" class="st1" width="15" height="15"/>
<line class="st2" x1="159.2" y1="1.9" x2="144.2" y2="15"/>
<path class="st0" d="M118.8,1.7c2.3,2.9-2.3,9-6.2,10.8c-3.1,1.4-9.6,4.3-13,3.5c-2.5-0.5-7-3.3-4.4-6.2c2.6-2.8,6.4-1.3,8-3.5
	C105.5,3.1,112.2-6.6,118.8,1.7z"/>
<circle class="st1" cx="61.2" cy="7.3" r="9"/>
<path class="st0" d="M7.4,12.8l8.7,6l5.3-7.7l-8.7-6l2.7-3.9l-14,1.9l3.2,13.7L7.4,12.8z"/>
<g>
	<g>
		<path class="st0" d="M292.6,55.8c0.7,1.6,0.9,4.6-0.2,7.4c-1,2.8-2.6,4.9-2.6,4.9s0.1-1.9,0.1-2.6c0-0.7-0.2-3.4-1.7-5.8
			c-1.5-2.5-5.2-4.8-5.2-4.8l-2.9,4.1l-5-13.9l14.8-0.2l-2.9,4.2c0,0,2.3,1.8,3.3,2.9C292.1,54,292.6,55.8,292.6,55.8L292.6,55.8z
			 M292.6,55.8"/>
	</g>
</g>
</svg>
