<?xml version="1.0" encoding="utf-8"?>
<!-- Generator: Adobe Illustrator 21.0.0, SVG Export Plug-In . SVG Version: 6.00 Build 0)  -->
<svg version="1.1" id="图层_1" xmlns="http://www.w3.org/2000/svg" xmlns:xlink="http://www.w3.org/1999/xlink" x="0px" y="0px"
	 viewBox="0 0 35 45.5" style="enable-background:new 0 0 35 45.5;" xml:space="preserve">
<style type="text/css">
	.st0{opacity:0.35;fill:#00B1FF;enable-background:new    ;}
	.st1{fill:#00B1FF;}
	.st2{fill:#FFFFFF;}
	.st3{fill:#007DA8;}
</style>
<title>涝_画板 1</title>
<ellipse class="st0" cx="17.3" cy="41.9" rx="10.4" ry="3.3"/>
<ellipse class="st0" cx="17.3" cy="41.4" rx="5.5" ry="1.8"/>
<path class="st1" d="M30.9,9.3c0,0-2.9-8.3-13.9-8.8l0,0C6,1,3.1,9.3,3.1,9.3c-1.9,5.3-1.4,11.2,1.5,16.1C8.6,32.2,14.8,39,17,41.2
	l0,0c2.1-2.3,8.4-9,12.4-15.8C32.3,20.5,32.8,14.6,30.9,9.3z"/>
<circle class="st2" cx="17" cy="15.2" r="13.1"/>
<path class="st3" d="M14.3,5.5l4,4.4h-2l3.6,4.4h-2.4l3.2,4h-5.6v5.6c0,0.4-0.4,0.8-0.8,0.8s-0.8-0.4-0.8-0.8v-5.6H7.8l3.2-4H8.6
	l3.6-4.4h-2L14.3,5.5z M21.5,9.6l3.6,4h-2l3.2,3.6h-2l2.8,3.6h-4.8V24c0,0.4-0.4,0.8-0.8,0.8s-0.8-0.4-0.8-0.8v-3.2h-4.8l1.3-1.6
	h5.3l-3.2-4h3.2l-3.1-3.1L21.5,9.6z"/>
<path class="st1" d="M14.1,4.6l4,4.4h-2l3.6,4.4h-2.4l3.2,4h-5.6V23c0,0.4-0.4,0.8-0.8,0.8c-0.4,0-0.8-0.2-0.8-0.7v-5.6H7.6l3.2-4
	H8.4L12,9.1h-2L14.1,4.6z M21.3,8.6l3.6,4h-2l3.2,3.6h-2l2.8,3.6h-4.8V23c0,0.4-0.4,0.8-0.8,0.8s-0.8-0.4-0.8-0.8v-3.2h-4.8l1.3-1.6
	h5.3l-3.2-4h3.2l-3.1-3.1L21.3,8.6z"/>
</svg>
