<?xml version="1.0" encoding="utf-8"?>
<!-- Generator: Adobe Illustrator 21.0.0, SVG Export Plug-In . SVG Version: 6.00 Build 0)  -->
<svg version="1.1" id="图层_1" xmlns="http://www.w3.org/2000/svg" xmlns:xlink="http://www.w3.org/1999/xlink" x="0px" y="0px"
	 viewBox="0 0 35 45.5" style="enable-background:new 0 0 35 45.5;" xml:space="preserve">
<style type="text/css">
	.st0{opacity:0.35;fill:#A100FF;enable-background:new    ;}
	.st1{fill:#A100FF;}
	.st2{fill:#FFFFFF;}
	.st3{fill:#7A05CE;}
</style>
<title>涝_画板 1</title>
<ellipse class="st0" cx="17.3" cy="41.9" rx="10.4" ry="3.3"/>
<ellipse class="st0" cx="17.3" cy="41.4" rx="5.5" ry="1.8"/>
<path class="st1" d="M30.9,9.3c0,0-2.9-8.3-13.9-8.8l0,0C6,1,3.1,9.3,3.1,9.3c-1.9,5.3-1.4,11.2,1.5,16.1C8.6,32.2,14.8,39,17,41.2
	l0,0c2.1-2.3,8.4-9,12.4-15.8C32.3,20.5,32.8,14.6,30.9,9.3z"/>
<circle class="st2" cx="17" cy="15.2" r="13.1"/>
<g>
	<path class="st3" d="M21.9,22.5c-2.5-0.1-4.4-0.6-4.4-3.1v-1.7c0-0.6,1.3-1.1,1.9-1.1h0l0-2.7c0-0.2-0.1-0.3-0.3-0.3h-4.9
		c-0.2,0-0.3,0.1-0.3,0.3l0,2.6c0.6,0,1.8,0.5,1.8,1.1v1.7c0,2.5-2,3-4.5,3.1l0,0l0,1.3c0,0.2,0.1,0.3,0.3,0.3h10
		c0.2,0,0.3-0.1,0.3-0.3L21.9,22.5L21.9,22.5L21.9,22.5z"/>
	<path class="st3" d="M18.2,7V6.2C18.2,6.1,18,6,17.9,6h-2.7c-0.2,0-0.3,0.1-0.3,0.3v0.9c-3.6,0.8-6.2,4-6.2,7.8
		c0,2.7,1.4,5.1,3.4,6.5l0.8-2.4c-1.1-1-1.8-2.5-1.8-4.2c0-3.1,2.5-5.7,5.7-5.7s5.7,2.5,5.7,5.7c0,1.7-0.8,3.3-2,4.3l0.7,2.3
		c2.1-1.4,3.4-3.8,3.4-6.6C24.6,11,21.8,7.8,18.2,7z"/>
</g>
<g>
	<path class="st1" d="M21.9,21.6c-2.5-0.1-4.4-0.6-4.4-3.1v-1.7c0-0.6,1.3-1.1,1.9-1.1h0l0-2.7c0-0.2-0.1-0.3-0.3-0.3h-4.9
		c-0.2,0-0.3,0.1-0.3,0.3l0,2.6c0.6,0,1.8,0.5,1.8,1.1v1.7c0,2.5-2,3-4.5,3.1l0,0l0,1.3c0,0.2,0.1,0.3,0.3,0.3h10
		c0.2,0,0.3-0.1,0.3-0.3L21.9,21.6L21.9,21.6L21.9,21.6z"/>
	<path class="st1" d="M18.2,6.2V5.4c0-0.2-0.1-0.3-0.3-0.3h-2.7c-0.2,0-0.3,0.1-0.3,0.3v0.9c-3.6,0.8-6.2,4-6.2,7.8
		c0,2.7,1.4,5.1,3.4,6.5l0.8-2.4c-1.1-1-1.8-2.5-1.8-4.2c0-3.1,2.5-5.7,5.7-5.7s5.7,2.5,5.7,5.7c0,1.7-0.8,3.3-2,4.3l0.7,2.3
		c2.1-1.4,3.4-3.8,3.4-6.6C24.6,10.1,21.8,6.9,18.2,6.2z"/>
</g>
</svg>
