<?xml version="1.0" encoding="utf-8"?>
<!-- Generator: Adobe Illustrator 21.0.0, SVG Export Plug-In . SVG Version: 6.00 Build 0)  -->
<svg version="1.1" id="图层_1" xmlns="http://www.w3.org/2000/svg" xmlns:xlink="http://www.w3.org/1999/xlink" x="0px" y="0px"
	 viewBox="0 0 35 45.5" style="enable-background:new 0 0 35 45.5;" xml:space="preserve">
<style type="text/css">
	.st0{opacity:0.35;fill:#FF9064;enable-background:new    ;}
	.st1{fill:#FF9064;}
	.st2{fill:#FFFFFF;}
	.st3{fill:#C96D4C;enable-background:new    ;}
</style>
<title>涝_画板 1</title>
<ellipse class="st0" cx="17.3" cy="41.9" rx="10.4" ry="3.3"/>
<ellipse class="st0" cx="17.3" cy="41.4" rx="5.5" ry="1.8"/>
<path class="st1" d="M30.9,9.3c0,0-2.9-8.3-13.9-8.8l0,0C6,1,3.1,9.3,3.1,9.3c-1.9,5.3-1.4,11.2,1.5,16.1C8.6,32.2,14.8,39,17,41.2
	l0,0c2.1-2.3,8.4-9,12.4-15.8C32.3,20.5,32.8,14.6,30.9,9.3z"/>
<circle class="st2" cx="17" cy="15.2" r="13.1"/>
<path class="st3" d="M10.9,19.8v-3.7c0-3.4,2.7-6.1,6.1-6.1s6.1,2.7,6.1,6.1v3.7l1.5,2.6V14c0-4.2-3.4-7.6-7.6-7.6S9.4,9.8,9.4,14
	v8.4L10.9,19.8z"/>
<path class="st3" d="M15.6,21.2h2.9v2.3h6l-4.7-7.9h-1.3v1h-2.9v-1h-1.4l-4.7,7.9h6.1V21.2z M15.6,18.2h2.9v1.5h-2.9V18.2z"/>
<path class="st1" d="M10.9,19.2v-3.8c0-3.4,2.7-6.1,6.1-6.1s6.1,2.7,6.1,6.1v3.8l1.5,2.6v-8.4c0-4.2-3.4-7.6-7.6-7.6
	s-7.6,3.4-7.6,7.6v8.4C9.4,21.8,10.9,19.2,10.9,19.2z"/>
<path class="st1" d="M15.7,20.6h2.8v2.3h6.1L19.9,15h-1.4v1h-2.8v-1h-1.5l-4.7,7.9h6.2V20.6z M15.7,17.6h2.8v1.5h-2.8V17.6z"/>
</svg>
