<?xml version="1.0" encoding="utf-8"?>
<!-- Generator: Adobe Illustrator 21.0.0, SVG Export Plug-In . SVG Version: 6.00 Build 0)  -->
<svg version="1.1" id="图层_1" xmlns="http://www.w3.org/2000/svg" xmlns:xlink="http://www.w3.org/1999/xlink" x="0px" y="0px"
	 viewBox="0 0 35 45.5" style="enable-background:new 0 0 35 45.5;" xml:space="preserve">
<style type="text/css">
	.st0{opacity:0.35;fill:#55FFF6;enable-background:new    ;}
	.st1{fill:#55FFF6;}
	.st2{fill:#FFFFFF;}
	.st3{opacity:0.75;}
	.st4{font-family:'MicrosoftYaHei';}
	.st5{font-size:15.5px;}
	.st6{opacity:0.51;}
	.st7{fill:#02BFB1;}
</style>
<title>涝_画板 1</title>
<g>
	<g id="图层_1_1_">
		<ellipse class="st0" cx="17.3" cy="41.9" rx="10.4" ry="3.3"/>
		<ellipse class="st0" cx="17.3" cy="41.4" rx="5.5" ry="1.8"/>
		<path class="st1" d="M30.9,9.3c0,0-2.9-8.3-13.9-8.8l0,0C6,1,3.1,9.3,3.1,9.3c-1.9,5.3-1.4,11.2,1.5,16.1
			C8.6,32.2,14.8,39,17,41.2l0,0c2.1-2.3,8.4-9,12.4-15.8C32.3,20.5,32.8,14.6,30.9,9.3z"/>
		<circle class="st2" cx="17" cy="15.2" r="13.1"/>
		<g class="st3">
			<text transform="matrix(1 0 0 1 10.25 21.18)" class="st1 st4 st5">涝</text>
		</g>
		<g class="st6">
			<text transform="matrix(1 0 0 1 10.25 21.18)" class="st7 st4 st5">涝</text>
		</g>
		<text transform="matrix(1 0 0 1 9.25 20.18)" class="st1 st4 st5">涝</text>
	</g>
</g>
</svg>
