<?xml version="1.0" encoding="utf-8"?>
<!-- Generator: Adobe Illustrator 21.0.0, SVG Export Plug-In . SVG Version: 6.00 Build 0)  -->
<svg version="1.1" id="图层_1" xmlns="http://www.w3.org/2000/svg" xmlns:xlink="http://www.w3.org/1999/xlink" x="0px" y="0px"
	 viewBox="0 0 35 45.5" style="enable-background:new 0 0 35 45.5;" xml:space="preserve">
<style type="text/css">
	.st0{opacity:0.35;fill:#8A9EFF;enable-background:new    ;}
	.st1{fill:#8A9EFF;}
	.st2{fill:#FFFFFF;}
	.st3{fill:#7286CE;}
</style>
<title>涝_画板 1</title>
<ellipse class="st0" cx="17.3" cy="41.9" rx="10.4" ry="3.3"/>
<ellipse class="st0" cx="17.3" cy="41.4" rx="5.5" ry="1.8"/>
<path class="st1" d="M30.9,9.3c0,0-2.9-8.3-13.9-8.8l0,0C6,1,3.1,9.3,3.1,9.3c-1.9,5.3-1.4,11.2,1.5,16.1C8.6,32.2,14.8,39,17,41.2
	l0,0c2.1-2.3,8.4-9,12.4-15.8C32.3,20.5,32.8,14.6,30.9,9.3z"/>
<circle class="st2" cx="17" cy="15.2" r="13.1"/>
<path class="st3" d="M24.5,22.7l-1-0.5c-0.7-0.4-1.6-0.4-2.4-0.2L20,22.4c-0.3,0.1-0.6,0.1-0.9,0l-0.6-0.2C18,22,17.4,22,16.9,22.1
	L16,22.3c-0.3,0.1-0.6,0-0.9-0.1L14.6,22c-0.8-0.3-1.7-0.3-2.4,0.1l-0.1,0.1c-0.4,0.2-0.8,0.2-1.2,0.1c-0.7-0.2-1.4-0.2-2.1,0
	l-0.4,0.2c-0.4,0.1-0.6,0.6-0.4,1c0.1,0.4,0.6,0.6,1,0.4l0.4-0.2c0.3-0.1,0.7-0.1,1,0c0.8,0.3,1.6,0.2,2.4-0.2l0.1-0.1
	c0.4-0.2,0.8-0.2,1.2-0.1l0.5,0.2c0.6,0.2,1.2,0.3,1.8,0.1l0.9-0.2c0.3-0.1,0.5-0.1,0.8,0l0.6,0.2c0.6,0.2,1.3,0.2,1.9,0l1.1-0.4
	c0.4-0.1,0.8-0.1,1.2,0.1l1,0.5c0.1,0.1,0.2,0.1,0.3,0.1c0.3,0,0.5-0.1,0.7-0.4C25,23.3,24.9,22.9,24.5,22.7L24.5,22.7z M9,21.3
	l0.4-0.2c0.3-0.1,0.7-0.1,1,0c0.8,0.3,1.6,0.2,2.4-0.2l0.1-0.1c0.4-0.2,0.8-0.2,1.2-0.1l0.5,0.2c0.6,0.2,1.2,0.3,1.8,0.1l0.9-0.2
	c0.3-0.1,0.5-0.1,0.8,0l0.6,0.2c0.6,0.2,1.3,0.2,1.9,0l1.1-0.4c0.4-0.1,0.8-0.1,1.2,0.1l1,0.5c0.1,0.1,0.2,0.1,0.3,0.1
	c0.3,0,0.5-0.1,0.7-0.4c0.2-0.4,0.1-0.8-0.3-1l-1-0.5C22.9,19,22,19,21.2,19.2L20,19.8c-0.3,0.1-0.6,0.1-0.9,0l-0.5-0.2v-3.4h1.9
	c0.4,0,0.7-0.3,0.7-0.7v-2.9c0-0.4-0.3-0.7-0.7-0.7h-1.9v-1l1.7-1.1l1.1,1.9c0.2,0.3,0.7,0.5,1,0.2c0.3-0.2,0.5-0.7,0.2-1L20.2,7
	c-0.2-0.3-0.7-0.5-1-0.2c-0.3,0.2-0.5,0.7-0.2,1l0,0l0.4,0.7L18.5,9V7.4c0-0.4-0.3-0.7-0.7-0.7H15c-0.4,0-0.7,0.3-0.7,0.7v1.2h-0.2
	c-0.4,0-0.7,0.3-0.7,0.7s0.3,0.7,0.7,0.7h0.2v1.4h-0.2c-0.4,0-0.7,0.3-0.7,0.7s0.3,0.7,0.7,0.7h0.2v1.4h-0.2c-0.4,0-0.7,0.3-0.7,0.7
	s0.3,0.7,0.7,0.7h0.2V17h-0.2c-0.4,0-0.7,0.3-0.7,0.7s0.3,0.7,0.7,0.7h0.2v0.5c-0.7-0.2-1.4-0.1-2,0.3L12,19.7
	c-0.4,0.2-0.8,0.2-1.2,0.1c-0.7-0.2-1.4-0.2-2.1,0L8.3,20c-0.4,0.1-0.6,0.6-0.4,1C8.2,21.3,8.6,21.5,9,21.3L9,21.3z M19.7,13.3v1.4
	h-1.2v-1.4H19.7z M15.7,8.1h1.4v11.3c-0.1,0-0.2,0-0.3,0L16,19.7c-0.1,0-0.2,0-0.2,0V8.1H15.7z"/>
<path class="st1" d="M24.1,22.1l-1-0.5c-0.7-0.4-1.6-0.4-2.4-0.2l-1.1,0.4c-0.3,0.1-0.6,0.1-0.9,0L18,21.6c-0.5-0.2-1.1-0.2-1.6-0.1
	l-0.9,0.2c-0.3,0.1-0.6,0-0.9-0.1l-0.5-0.2c-0.8-0.3-1.7-0.3-2.4,0.1l-0.1,0.1c-0.4,0.2-0.8,0.2-1.2,0.1c-0.7-0.2-1.4-0.2-2.1,0
	L8,22c-0.4,0.1-0.6,0.6-0.4,1c0.1,0.4,0.6,0.6,1,0.4L9,23.2c0.3-0.1,0.7-0.1,1,0c0.8,0.3,1.6,0.2,2.4-0.2l0.1-0.1
	c0.4-0.2,0.8-0.2,1.2-0.1l0.5,0.2c0.6,0.2,1.2,0.3,1.8,0.1l0.9-0.2c0.3-0.1,0.5-0.1,0.8,0l0.6,0.2c0.6,0.2,1.3,0.2,1.9,0l1.1-0.4
	c0.4-0.1,0.8-0.1,1.2,0.1l1,0.5c0.1,0.1,0.2,0.1,0.3,0.1c0.3,0,0.5-0.1,0.7-0.4C24.6,22.8,24.4,22.3,24.1,22.1L24.1,22.1z M8.5,20.7
	l0.4-0.2c0.3-0.1,0.7-0.1,1,0c0.8,0.3,1.6,0.2,2.4-0.2l0.1-0.1c0.4-0.2,0.8-0.2,1.2-0.1l0.5,0.2c0.6,0.2,1.2,0.3,1.8,0.1l0.9-0.2
	c0.3-0.1,0.5-0.1,0.8,0l0.6,0.2c0.6,0.2,1.3,0.2,1.9,0l1.1-0.4c0.4-0.1,0.8-0.1,1.2,0.1l1,0.5c0.1,0.1,0.2,0.1,0.3,0.1
	c0.3,0,0.5-0.1,0.7-0.4c0.2-0.4,0.1-0.8-0.3-1L23,19c-0.7-0.4-1.6-0.4-2.4-0.2l-1.1,0.4c-0.3,0.1-0.6,0.1-0.9,0L18.1,19v-3.4H20
	c0.4,0,0.7-0.3,0.7-0.7V12c0-0.4-0.3-0.7-0.7-0.7h-1.9v-1l1.7-1.1l1.1,1.9c0.2,0.3,0.7,0.5,1,0.2c0.3-0.2,0.5-0.7,0.2-1l-2.4-3.9
	c-0.2-0.3-0.7-0.5-1-0.2c-0.3,0.2-0.5,0.7-0.2,1l0,0L19,7.9l-0.9,0.6V6.8c0-0.4-0.3-0.7-0.7-0.7h-2.8c-0.4,0-0.7,0.3-0.7,0.7V8h-0.2
	C13.3,8,13,8.3,13,8.7s0.3,0.7,0.7,0.7h0.2v1.4h-0.2c-0.4,0-0.7,0.3-0.7,0.7s0.3,0.7,0.7,0.7h0.2v1.4h-0.2c-0.4,0-0.7,0.3-0.7,0.7
	s0.3,0.7,0.7,0.7h0.2v1.4h-0.2c-0.4,0-0.7,0.3-0.7,0.7s0.3,0.7,0.7,0.7h0.2v0.5c-0.7-0.2-1.4-0.1-2,0.3l-0.1,0.1
	c-0.4,0.2-0.8,0.2-1.2,0.1c-0.7-0.2-1.4-0.2-2.1,0L8,19.4c-0.4,0.1-0.6,0.6-0.4,1C7.7,20.7,8.1,20.9,8.5,20.7L8.5,20.7z M19.2,12.7
	v1.4H18v-1.4H19.2z M15.2,7.6h1.4v11.3c-0.1,0-0.2,0-0.3,0l-0.9,0.2c-0.1,0-0.2,0-0.2,0L15.2,7.6z"/>
</svg>
