<svg t="1603779719893" class="icon" viewBox="0 0 1024 1024" version="1.1" xmlns="http://www.w3.org/2000/svg" p-id="13150" width="200" height="200"><path d="M710.369179 592.116904a219.393208 219.393208 0 1 0-292.598448 106.803996 220.283242 220.283242 0 0 0 292.598448-106.803996z m-301.498781-141.737803a113.924262 113.924262 0 1 1 54.292032 152.195694 114.369279 114.369279 0 0 1-54.292032-152.195694z" fill="#FD9D2C" p-id="13151"></path><path d="M702.136371 93.698256c-8.677825-4.00515-17.578158-7.342775-26.255983-10.6804 101.463796-15.130566 263.00484 22.250833 268.790057 30.928657C771.33646-58.497439 438.686514-24.676173 243.101696 144.652662a447.68675 447.68675 0 0 0 78.32293 759.198405 433.446217 433.446217 0 0 0 61.857315 22.250833C297.171219 969.713531 73.772861 920.539192 66.875103 909.636284c202.927592 202.927592 624.35836 121.044529 788.346995-129.499846a446.3517 446.3517 0 0 0-153.085727-686.438182zM205.275281 354.700521a341.327771 341.327771 0 0 1 154.420777-159.093452l76.987881-28.258558a333.762488 333.762488 0 0 1 220.283242 22.250833 341.327771 341.327771 0 1 1-451.6919 164.65616z" fill="#FD9D2C" p-id="13152"></path></svg>