<svg t="1603884242349" class="icon" viewBox="0 0 1039 1024" version="1.1" xmlns="http://www.w3.org/2000/svg" p-id="3202" width="200" height="200"><path d="M519.257 497.993c250.152 0 519.256-54.782 519.256-174.99a38.944 38.944 0 0 0-77.888 0c0 4.414-19.472 32.454-112.29 58.676-87.364 24.795-204.197 38.945-329.078 38.945s-241.714-12.982-329.08-38.945C97.362 355.717 77.89 327.417 77.89 323.003a38.944 38.944 0 0 0-77.889 0c0 120.208 269.235 174.99 519.257 174.99z m25.833 473.952c-29.468 0-59.845 0-89.572-1.039a25.976 25.976 0 0 0-1.947 51.926c21.808 0.779 43.877 1.168 65.686 1.168h25.963a25.963 25.963 0 0 0 25.962-25.963 25.963 25.963 0 0 0-26.092-26.092z m395.543-68.542l-10.904 5.062a25.976 25.976 0 1 0 21.03 47.512l12.981-5.841a26.067 26.067 0 0 0-23.107-46.733z m-280.788 62.83l-12.981 1.038a25.976 25.976 0 0 0 1.947 51.926h1.947l12.982-1.039a26.04 26.04 0 0 0-3.895-51.925z m-293.51-1.039l-12.98-1.298a26.093 26.093 0 0 0-5.193 51.926l12.981 1.298h3.375a25.976 25.976 0 0 0 1.818-51.926z m-113.587-15.318a858.331 858.331 0 0 1-85.807-19.991 25.963 25.963 0 1 0-14.54 49.848 907.271 907.271 0 0 0 90.87 21.29 26.015 26.015 0 1 0 9.477-51.147z m582.866-10.515c-26.742 6.361-56.08 11.943-86.976 16.616a26.028 26.028 0 0 0 3.765 51.926h3.894c32.454-4.803 63.22-10.775 90.87-17.525a26.158 26.158 0 0 0-11.553-51.017z m-351.667-85.937a25.963 25.963 0 0 0-25.963 25.963 25.963 25.963 0 0 0 25.963 25.963h12.982a25.963 25.963 0 0 0 0-51.926z m296.885 31.285h4.414l12.981-2.336a25.963 25.963 0 1 0-9.476-51.017l-12.982 2.207a25.963 25.963 0 0 0 5.063 51.146z m-104.76-38.165c-28.948 2.726-58.935 4.673-89.182 5.842a25.963 25.963 0 0 0 1.038 51.925h1.039c31.285-1.168 62.31-3.245 92.038-6.1a25.963 25.963 0 1 0-4.933-51.667z m-294.289 1.688c-30.506-2.467-60.363-5.842-88.663-9.996a26.222 26.222 0 1 0-7.529 51.926c29.338 4.283 60.364 7.788 91.909 10.385h2.206a26.184 26.184 0 0 0 2.077-52.315zM272.87 796.436a39.074 39.074 0 0 0 6.491-77.889C115.145 690.637 78.018 647.02 78.018 640.66a38.944 38.944 0 0 0-77.888 0c0 90.87 144.743 134.617 266.249 155.777a39.853 39.853 0 0 0 6.49 0z m726.7-194.721a38.944 38.944 0 0 0-38.944 38.944c0 5.452-24.924 38.944-142.796 66.724a38.944 38.944 0 1 0 17.915 75.812c135.006-31.805 203.418-79.706 203.418-142.796a38.944 38.944 0 0 0-39.593-38.684z" fill="#1296DB" p-id="3203"></path><path d="M128.776 297.17a38.944 38.944 0 0 0 54.781-5.711l102.164-125.92a51.926 51.926 0 0 1 74.773-6.101l185.764 164.734a39.035 39.035 0 1 0 51.926-58.287l-96.193-85.158 84.899-88.144a48.81 48.81 0 0 1 65.686-4.024L866.12 262.38a38.944 38.944 0 0 0 49.2-60.363L702.035 28.066A127.218 127.218 0 0 0 531.2 38.45l-87.106 90.87-31.415-27.78a129.814 129.814 0 0 0-186.932 15.318l-102.164 125.92a38.944 38.944 0 0 0 5.193 54.391z m224.968 244.96h77.888v239.507h-77.888z m108.005 12.462h77.889v239.507h-77.889z m108.005 0h77.889v239.507h-77.889zM677.89 542.13h77.888v239.507H677.89z" fill="#1296DB" p-id="3204"></path></svg>