<?xml version="1.0" encoding="utf-8"?>
<!-- Generator: Adobe Illustrator 23.0.0, SVG Export Plug-In . SVG Version: 6.00 Build 0)  -->
<svg version="1.1" id="图层_1" xmlns="http://www.w3.org/2000/svg" xmlns:xlink="http://www.w3.org/1999/xlink" x="0px" y="0px"
	 viewBox="0 0 32 32" style="enable-background:new 0 0 32 32;" xml:space="preserve">
<style type="text/css">
	.st0{fill:#1890FF;}
	.st1{fill-rule:evenodd;clip-rule:evenodd;fill:#FFFFFF;}
	.st2{fill:#FFFFFF;}
	.st3{clip-path:url(#SVGID_15_);fill:#FFFFFF;}
	.st4{clip-path:url(#SVGID_21_);fill:#FFFFFF;}
	.st5{clip-path:url(#SVGID_22_);fill:#FFFFFF;}
	.st6{clip-path:url(#SVGID_23_);fill:#FFFFFF;}
</style>
<g>
	<circle class="st0" cx="16" cy="16" r="16"/>
</g>
<g>
	<g>
		<path class="st2" d="M27,11c0-0.9-0.5-1.7-1.2-2.2l-4.1-2.6c-0.4-0.2-0.9,0-0.9,0.5v0.1c0,0.4,0.2,0.8,0.6,1L21.7,8
			c0.5,0.3,0.8,0.9,0.8,1.5v2.1c0,1.1,0.9,2.1,2.1,2.1c0.3,0,0.6,0.3,0.6,0.6v9.5c0,0.6-0.5,1-1,1h-0.7c-0.3,0-0.6-0.2-0.6-0.6v-6.3
			c0-1.3-1-2.3-2.3-2.3h-0.4c-0.5,0-0.8-0.4-0.8-0.8V7.8c0-1-0.8-1.8-1.8-1.8H7.8C6.8,6,6,6.8,6,7.8v17.9c0,0.5,0.4,0.8,0.8,0.8
			h11.6c0.5,0,0.8-0.4,0.8-0.8v-7.5c0-0.5,0.4-0.8,0.8-0.8h0.1c0.5,0,0.8,0.4,0.8,0.8v7.1c0,0.7,0.6,1.3,1.3,1.3l3.7,0
			c0.6,0,1.1-0.5,1.1-1.1L27,11z M15.2,17.8H10c-0.3,0-0.5-0.2-0.5-0.5v-1.4c0-0.3,0.2-0.5,0.5-0.5h5.2c0.3,0,0.5,0.2,0.5,0.5v1.4
			C15.7,17.6,15.5,17.8,15.2,17.8L15.2,17.8z M17.2,12.7c0,0.3-0.2,0.5-0.5,0.5H8.6c-0.3,0-0.5-0.2-0.5-0.5v-4
			c0-0.3,0.2-0.5,0.5-0.5h8.1c0.3,0,0.5,0.2,0.5,0.5V12.7z M17.2,12.7"/>
	</g>
</g>
</svg>
