<?xml version="1.0" encoding="utf-8"?>
<!-- Generator: Adobe Illustrator 23.0.0, SVG Export Plug-In . SVG Version: 6.00 Build 0)  -->
<svg version="1.1" id="图层_1" xmlns="http://www.w3.org/2000/svg" xmlns:xlink="http://www.w3.org/1999/xlink" x="0px" y="0px"
	 viewBox="0 0 32 32" style="enable-background:new 0 0 32 32;" xml:space="preserve">
<style type="text/css">
	.st0{fill:#E53935;}
	.st1{fill:#EF7406;}
	.st2{fill:#F4C70C;}
	.st3{fill:#1890FF;}
	.st4{fill:#FFFFFF;}
	.st5{clip-path:url(#SVGID_2_);fill:#FFFFFF;}
	.st6{clip-path:url(#SVGID_4_);fill:#FFFFFF;}
	.st7{clip-path:url(#SVGID_6_);fill:#FFFFFF;}
	.st8{clip-path:url(#SVGID_8_);fill:#FFFFFF;}
	.st9{clip-path:url(#SVGID_10_);fill:#FFFFFF;}
	.st10{clip-path:url(#SVGID_12_);fill:#FFFFFF;}
	.st11{clip-path:url(#SVGID_14_);fill:#FFFFFF;}
	.st12{clip-path:url(#SVGID_16_);fill:#FFFFFF;}
</style>
<circle class="st2" cx="16" cy="16" r="16"/>
<path class="st4" d="M11.6,14.4c0,0.9,0.7,1.6,1.6,1.6c0.4,0,0.9-0.2,1.1-0.5c0.2,0.6,0.8,1,1.5,1c0.7,0,1.3-0.4,1.5-1
	c0.3,0.3,0.7,0.5,1.1,0.5c0.9,0,1.6-0.7,1.6-1.6v-1.6c1-1,1.6-2.2,1.6-3.6c0-2.9-2.6-5.3-5.8-5.3c-3.2,0-5.8,2.4-5.8,5.3
	c0,1.4,0.6,2.7,1.6,3.6v1.6H11.6z M18.4,6.6c1,0,1.8,0.8,1.8,1.8c0,1-0.8,1.8-1.8,1.8c-1,0-1.8-0.8-1.8-1.8
	C16.6,7.4,17.4,6.6,18.4,6.6L18.4,6.6z M16.2,11.5l0.8,1.6c0.1,0.4,0,0.7-0.4,0.7h-1.4c-0.4,0-0.6-0.3-0.4-0.7l0.8-1.6
	C15.7,11.2,16,11.2,16.2,11.5L16.2,11.5z M11.6,8.4c0-1,0.8-1.8,1.8-1.8s1.8,0.8,1.8,1.8c0,1-0.8,1.8-1.8,1.8
	C12.4,10.2,11.6,9.4,11.6,8.4L11.6,8.4z M11.6,8.4"/>
<path class="st4" d="M25,20.3c-0.9-0.4-1.9,0-2.4,0.8c-0.1,0.1-0.1,0.2-0.1,0.4l-4-1.9l4-1.9c0,0.1,0.1,0.2,0.1,0.3
	c0.4,0.9,1.5,1.3,2.4,0.8c0.9-0.4,1.3-1.5,0.8-2.4c-0.2-0.5-0.7-0.9-1.3-1c0.2-0.4,0.3-1,0.1-1.6c-0.4-0.9-1.5-1.3-2.4-0.8
	c-0.9,0.4-1.3,1.5-0.8,2.4c0.1,0.1,0.1,0.2,0.1,0.3L16,18.4l-5.6-2.6c0.1-0.1,0.1-0.2,0.1-0.3c0.4-0.9,0-1.9-0.8-2.4
	c-0.9-0.4-1.9,0-2.4,0.8c-0.2,0.5-0.2,1.1,0.1,1.6c-0.5,0.1-1,0.4-1.3,1c-0.4,0.9,0,1.9,0.8,2.4c0.9,0.4,1.9,0,2.4-0.8
	c0.1-0.1,0.1-0.2,0.1-0.4l4,1.9l-4,1.9c0-0.1-0.1-0.2-0.1-0.4c-0.4-0.9-1.5-1.3-2.4-0.8c-0.9,0.4-1.3,1.5-0.8,2.4
	c0.2,0.5,0.7,0.9,1.3,1c-0.2,0.4-0.3,1-0.1,1.6c0.4,0.9,1.5,1.3,2.4,0.8c0.9-0.4,1.3-1.5,0.8-2.4c-0.1-0.1-0.1-0.2-0.1-0.3l5.6-2.6
	l5.6,2.6c-0.1,0.1-0.1,0.2-0.1,0.3c-0.4,0.9,0,1.9,0.8,2.4c0.9,0.4,1.9,0,2.4-0.8c0.2-0.5,0.2-1.1-0.1-1.6c0.5-0.1,1-0.4,1.3-1
	C26.2,21.8,25.9,20.7,25,20.3L25,20.3z M25,20.3"/>
</svg>
