<?xml version="1.0" encoding="utf-8"?>
<!-- Generator: Adobe Illustrator 23.0.0, SVG Export Plug-In . SVG Version: 6.00 Build 0)  -->
<svg version="1.1" id="图层_1" xmlns="http://www.w3.org/2000/svg" xmlns:xlink="http://www.w3.org/1999/xlink" x="0px" y="0px"
	 viewBox="0 0 32 32" style="enable-background:new 0 0 32 32;" xml:space="preserve">
<style type="text/css">
	.st0{fill:#E53935;}
	.st1{fill:#EF7406;}
	.st2{fill:#F4C70C;}
	.st3{fill:#1890FF;}
	.st4{fill:#FFFFFF;}
	.st5{clip-path:url(#SVGID_2_);fill:#FFFFFF;}
	.st6{clip-path:url(#SVGID_4_);fill:#FFFFFF;}
	.st7{clip-path:url(#SVGID_6_);fill:#FFFFFF;}
	.st8{clip-path:url(#SVGID_8_);fill:#FFFFFF;}
	.st9{clip-path:url(#SVGID_10_);fill:#FFFFFF;}
	.st10{clip-path:url(#SVGID_12_);fill:#FFFFFF;}
	.st11{clip-path:url(#SVGID_14_);fill:#FFFFFF;}
	.st12{clip-path:url(#SVGID_16_);fill:#FFFFFF;}
</style>
<circle class="st3" cx="16" cy="16" r="16"/>
<g>
	<path class="st4" d="M6.5,10.6c-0.5,0.5-1.3,0.6-1.8,0.1c-0.5-0.5-0.6-1.3-0.1-1.8c0.5-0.5,1.3-0.6,1.8-0.1C6.9,9.2,7,10,6.5,10.6
		L6.5,10.6z M15.1,26L13.7,7.4H9.4l-1,18.5L15.1,26z M15.1,26"/>
	<g>
		<path class="st4" d="M14.9,19.4h0.8v1.3h-0.8V19.4z M18.6,19.4h0.8v1.3h-0.8V19.4z M22.4,19.4h0.8v1.3h-0.8V19.4z M22.4,19.4"/>
		<path class="st4" d="M25,25.6V14.7l-3.8,3.1v-3.1l-3.7,3v-3l-3.7,3.1l-0.3-4l1.3-1.5h3.9c0.1,0.7,0.7,1.2,1.3,1.2c0,0,0.1,0,0.1,0
			c0.7,0,1.2-0.6,1.3-1.2c0.1-0.7-0.4-1.3-1.1-1.4l-0.1-0.7c0.4-0.2,0.7-0.5,0.8-0.9l0.9,0c0.2,0.5,0.7,0.9,1.3,0.9c0,0,0.1,0,0.1,0
			c0.7,0,1.3-0.6,1.3-1.3c0-0.7-0.5-1.3-1.2-1.4c-0.7-0.1-1.3,0.3-1.5,1l-0.9,0c-0.2-0.6-0.8-1-1.5-0.9c-0.6,0.1-1.1,0.7-1.1,1.3
			c0,0.7,0.4,1.2,1.1,1.4l0.1,0.7c-0.2,0.1-0.4,0.2-0.5,0.4c-0.1,0.1-0.2,0.2-0.2,0.3h-4.3l-1.1,1.2L12.9,6h-5l-0.2,4.8l-0.6-0.5
			c0.3-0.8,0-1.7-0.7-2.1C5.6,7.8,4.7,8,4.2,8.7c-0.5,0.7-0.4,1.6,0.2,2.2c0.6,0.6,1.6,0.6,2.2,0l1,0.8L7,25.6H5v0.8h9l0.4,0v0H27
			v-0.8L25,25.6L25,25.6z M23.2,8.1L23.2,8.1c0.3,0,0.6,0.2,0.6,0.5c0,0.3-0.2,0.6-0.5,0.6c-0.3,0-0.6-0.2-0.6-0.5
			C22.6,8.4,22.8,8.1,23.2,8.1L23.2,8.1z M19.3,9.3c-0.2-0.2-0.2-0.4-0.2-0.6c0.1-0.2,0.3-0.4,0.5-0.4h0c0.3,0,0.6,0.2,0.6,0.5
			c0,0.2-0.1,0.4-0.3,0.6C19.8,9.4,19.5,9.4,19.3,9.3L19.3,9.3z M19.6,11.8c0.2-0.2,0.5-0.3,0.7-0.1c0.2,0.1,0.3,0.4,0.3,0.7
			c-0.1,0.3-0.4,0.4-0.6,0.4c-0.3,0-0.5-0.3-0.5-0.5C19.5,12,19.5,11.9,19.6,11.8L19.6,11.8z M6.2,10.3c-0.2,0.3-0.6,0.4-1,0.2
			c-0.3-0.1-0.6-0.4-0.6-0.8c0-0.4,0.2-0.7,0.5-0.9c0.3-0.2,0.7-0.1,1,0.1C6.5,9.4,6.6,9.9,6.2,10.3L6.2,10.3z M8.7,6.8h3.5l0.5,6.8
			l-0.6,0.7l-3.6-2.9L8.7,6.8z M7.8,25.5l0.6-13.2l3.8,3l0.6-0.7l0.8,11L7.8,25.5z M14.4,25.6l-0.5-6.8l2.9-2.4v9.2H14.4z
			 M17.5,25.6v-6.8l2.9-2.4v9.2L17.5,25.6L17.5,25.6z M21.2,25.6v-6.8l3-2.5v9.2L21.2,25.6L21.2,25.6z M21.2,25.6"/>
	</g>
</g>
</svg>
