<?xml version="1.0" encoding="utf-8"?>
<!-- Generator: Adobe Illustrator 23.0.0, SVG Export Plug-In . SVG Version: 6.00 Build 0)  -->
<svg version="1.1" id="图层_1" xmlns="http://www.w3.org/2000/svg" xmlns:xlink="http://www.w3.org/1999/xlink" x="0px" y="0px"
	 viewBox="0 0 32 32" style="enable-background:new 0 0 32 32;" xml:space="preserve">
<style type="text/css">
	.st0{fill:#E53935;}
	.st1{fill:#EF7406;}
	.st2{fill:#F4C70C;}
	.st3{fill:#1890FF;}
	.st4{fill:#FFFFFF;}
	.st5{clip-path:url(#SVGID_2_);fill:#FFFFFF;}
	.st6{clip-path:url(#SVGID_4_);fill:#FFFFFF;}
	.st7{clip-path:url(#SVGID_6_);fill:#FFFFFF;}
	.st8{clip-path:url(#SVGID_8_);fill:#FFFFFF;}
	.st9{clip-path:url(#SVGID_10_);fill:#FFFFFF;}
	.st10{clip-path:url(#SVGID_12_);fill:#FFFFFF;}
	.st11{clip-path:url(#SVGID_14_);fill:#FFFFFF;}
	.st12{clip-path:url(#SVGID_16_);fill:#FFFFFF;}
</style>
<circle class="st3" cx="16" cy="16" r="16"/>
<g>
	<g>
		<defs>
			<rect id="SVGID_1_" x="5" y="5" width="21" height="21"/>
		</defs>
		<clipPath id="SVGID_2_">
			<use xlink:href="#SVGID_1_"  style="overflow:visible;"/>
		</clipPath>
		<path class="st5" d="M26,24.3v-0.4h-0.7v-8.4h0h-9.8l-0.7,4.2H6.4v4.2H5.7L5,26h0.8v0h0.8h0.8h16.8h0.8H26L26,24.3L26,24.3z
			 M16.2,21.8v-1.4h1.4v1.4H16.2z M18.3,21.8v-1.4h1.4v1.4H18.3z M20.4,21.8v-1.4h1.4v1.4H20.4z M22.5,21.8v-1.4h2.1v1.4H22.5z
			 M22.5,16.2h2.1v2.1h-2.1V16.2z M20.4,16.2h1.4v2.1h-1.4V16.2z M18.3,16.2h1.4v2.1h-1.4V16.2z M16.2,16.2h1.4v2.1h-1.4V16.2z
			 M15.6,19h8.9v0.7h-9L15.6,19z M14.1,20.4h1.4v1.4h-1.4V20.4z M12,20.4h1.4v1.4H12V20.4z M9.9,20.4h1.4v1.4H9.9V20.4z M7.1,20.4
			h2.1v1.4H7.1V20.4z"/>
	</g>
	<path class="st4" d="M16.9,11.3V12h0.7v2.8h6.3V12h0.7v-0.7H16.9z M19,14.1h-0.7V12H19V14.1z M20.4,14.1h-0.7V12h0.7V14.1z
		 M21.8,14.1h-0.7V12h0.7V14.1z M23.2,14.1h-0.7V12h0.7V14.1z M23.2,14.1"/>
	<path class="st4" d="M9.2,9.2H7.8L7.1,19h2.8L9.2,9.2z M12.7,9.2h-1.4L10.6,19h2.8L12.7,9.2z M13.1,8.5c-0.5,0-0.9-0.3-1-0.7
		c0,0,0,0,0,0c-0.2,0.1-0.5,0.1-0.7,0c0,0,0,0,0,0c-0.1,0.4-0.5,0.7-1,0.7c-0.5,0-0.9-0.3-1-0.7c0,0,0,0,0,0C9,7.8,8.8,7.8,8.5,7.8
		C7.9,8,7.1,7.5,7.1,6.8c0-0.1,0-0.2,0.1-0.3c0-0.1-0.1-0.2-0.1-0.4c0-0.6,0.5-1,1-1c0.3,0,0.5,0.1,0.7,0.3C9.1,5.1,9.3,5,9.6,5
		c0.5,0,0.9,0.3,1,0.8c0.2-0.1,0.5-0.1,0.7,0c0,0,0,0,0,0c0.1-0.4,0.5-0.8,1-0.8c0.5,0,0.9,0.3,1,0.8c0,0,0.1,0,0.1,0
		C13.6,5.3,14,5,14.5,5c0.5,0,0.9,0.3,1,0.7c0.4,0.1,0.7,0.5,0.7,1c0,0.6-0.5,1-1,1c-0.3,0-0.5-0.1-0.7-0.3
		c-0.1,0.1-0.2,0.2-0.4,0.2C13.9,8.2,13.5,8.5,13.1,8.5L13.1,8.5z M12,7c0.1,0,0.1,0,0.2,0c0.1,0,0.1,0.1,0.2,0.1
		c0.2,0,0.4,0.2,0.4,0.3c0,0.2,0.2,0.3,0.3,0.3s0.4-0.2,0.4-0.3c0-0.2,0.2-0.3,0.4-0.3c0.2,0,0.3-0.2,0.3-0.3c0-0.2,0.2-0.3,0.4-0.3
		c0.2,0,0.3,0.2,0.3,0.3c0,0.2,0.2,0.3,0.4,0.3c0.2,0,0.4-0.2,0.4-0.3c0-0.2-0.2-0.3-0.4-0.3c-0.2,0-0.4-0.2-0.4-0.4
		c0-0.2-0.2-0.3-0.3-0.3c-0.2,0-0.4,0.2-0.4,0.3c0,0.2-0.2,0.4-0.3,0.4c-0.2,0-0.4,0.2-0.4,0.3c0,0.2-0.2,0.3-0.4,0.3
		c-0.2,0-0.3-0.2-0.3-0.3c0,0,0-0.1-0.1-0.2c-0.1-0.1-0.1-0.2,0-0.4c0-0.1,0.1-0.1,0.1-0.2c0-0.2-0.2-0.3-0.4-0.3
		c-0.2,0-0.4,0.2-0.4,0.3c0,0.2-0.2,0.4-0.3,0.4c0,0-0.1,0-0.2,0.1c-0.1,0.1-0.2,0.1-0.4,0c-0.1,0-0.1-0.1-0.2-0.1
		c-0.2,0-0.4,0.2-0.4,0.3s-0.2,0.3-0.4,0.3c-0.2,0-0.3-0.2-0.3-0.3c0,0,0-0.1-0.1-0.2c-0.1-0.1-0.1-0.2,0-0.4c0-0.1,0.1-0.1,0.1-0.2
		c0-0.2-0.2-0.3-0.4-0.3c-0.2,0-0.3,0.2-0.3,0.3c0,0.2-0.2,0.4-0.4,0.4c-0.2,0-0.4-0.2-0.4-0.4c0-0.2-0.2-0.3-0.4-0.3
		C8,5.7,7.8,5.9,7.8,6.1c0,0,0,0.1,0.1,0.2c0.1,0.1,0.1,0.2,0,0.4c0,0.1-0.1,0.1-0.1,0.2C7.8,7,8,7.1,8.2,7.1c0,0,0.1,0,0.2-0.1
		C8.5,7,8.6,7,8.7,7.1c0.1,0.1,0.2,0.1,0.3,0C9.2,7,9.3,7,9.4,7.1c0.1,0,0.1,0.1,0.2,0.1c0.2,0,0.4,0.2,0.4,0.3
		c0,0.2,0.2,0.3,0.3,0.3c0.2,0,0.4-0.2,0.4-0.3c0-0.2,0.2-0.3,0.4-0.3c0,0,0.1,0,0.2-0.1c0.1-0.1,0.2-0.1,0.4,0
		c0.1,0.1,0.2,0.1,0.3,0C11.9,7,12,7,12,7L12,7z M12,7"/>
</g>
</svg>
