<?xml version="1.0" encoding="utf-8"?>
<!-- Generator: Adobe Illustrator 23.0.0, SVG Export Plug-In . SVG Version: 6.00 Build 0)  -->
<svg version="1.1" id="图层_1" xmlns="http://www.w3.org/2000/svg" xmlns:xlink="http://www.w3.org/1999/xlink" x="0px" y="0px"
	 viewBox="0 0 32 32" style="enable-background:new 0 0 32 32;" xml:space="preserve">
<style type="text/css">
	.st0{fill:#E53935;}
	.st1{fill:#EF7406;}
	.st2{fill:#F4C70C;}
	.st3{fill:#1890FF;}
	.st4{fill:#FFFFFF;}
	.st5{clip-path:url(#SVGID_2_);fill:#FFFFFF;}
	.st6{clip-path:url(#SVGID_4_);fill:#FFFFFF;}
	.st7{clip-path:url(#SVGID_6_);fill:#FFFFFF;}
	.st8{clip-path:url(#SVGID_8_);fill:#FFFFFF;}
	.st9{clip-path:url(#SVGID_10_);fill:#FFFFFF;}
	.st10{clip-path:url(#SVGID_12_);fill:#FFFFFF;}
	.st11{clip-path:url(#SVGID_14_);fill:#FFFFFF;}
	.st12{clip-path:url(#SVGID_16_);fill:#FFFFFF;}
</style>
<circle class="st3" cx="16" cy="16" r="16"/>
<g>
	<rect x="20.3" y="15.4" class="st4" width="1.4" height="2"/>
	<rect x="20.3" y="18.8" class="st4" width="1.4" height="2"/>
	<g>
		<path class="st4" d="M25.3,24.1V11.8H19V7.7H6.7v16.4H6v1.4h20v-1.4H25.3z M8.9,23.2V9.9h7.8v13.3H8.9z M19,23.2V14h4.1v9.2H19z
			 M19,24.1"/>
	</g>
	<g>
		<path class="st4" d="M13,12.9c1.9,0,3.5,1.7,3.5,3.5c0,1.2-0.7,2-1.7,2.5l0,0.2c0,0.2-0.1,0.5-0.3,0.6c-0.2,0.2-0.4,0.3-0.6,0.3
			h-1.7c-0.2,0-0.5-0.1-0.6-0.3c-0.2-0.2-0.3-0.4-0.3-0.6v-0.2c-1-0.4-1.7-1.2-1.7-2.5C9.5,14.6,11,12.9,13,12.9L13,12.9z
			 M13.1,17.6c-0.1,0-0.2,0-0.4,0c-0.1,0-0.2,0.1-0.3,0.3l-0.2,0.5c-0.1,0.1,0,0.3,0,0.4c0.1,0.1,0.2,0.2,0.4,0.2h0.5
			c0.1,0,0.3-0.1,0.4-0.2c0.1-0.1,0.1-0.3,0-0.4l-0.2-0.5C13.3,17.8,13.2,17.7,13.1,17.6L13.1,17.6z M14.5,15.1
			c-0.4,0-0.7,0.2-0.9,0.5c-0.2,0.3-0.2,0.8,0,1.1c0.2,0.3,0.6,0.5,0.9,0.5c0.6,0,1.1-0.5,1.1-1.1C15.6,15.5,15.1,15.1,14.5,15.1
			L14.5,15.1z M11.4,15.1c-0.4,0-0.7,0.2-0.9,0.5c-0.2,0.3-0.2,0.8,0,1.1c0.2,0.3,0.6,0.5,0.9,0.5c0.6,0,1.1-0.5,1.1-1.1
			C12.5,15.5,12,15.1,11.4,15.1L11.4,15.1z M11.4,15.1"/>
	</g>
</g>
</svg>
