<?xml version="1.0" encoding="utf-8"?>
<!-- Generator: Adobe Illustrator 23.0.0, SVG Export Plug-In . SVG Version: 6.00 Build 0)  -->
<svg version="1.1" id="图层_1" xmlns="http://www.w3.org/2000/svg" xmlns:xlink="http://www.w3.org/1999/xlink" x="0px" y="0px"
	 viewBox="0 0 32 32" style="enable-background:new 0 0 32 32;" xml:space="preserve">
<style type="text/css">
	.st0{fill:#E53935;}
	.st1{fill:#EF7406;}
	.st2{fill:#F4C70C;}
	.st3{fill:#1890FF;}
	.st4{fill:#FFFFFF;}
	.st5{clip-path:url(#SVGID_2_);fill:#FFFFFF;}
	.st6{clip-path:url(#SVGID_4_);fill:#FFFFFF;}
	.st7{clip-path:url(#SVGID_6_);fill:#FFFFFF;}
	.st8{clip-path:url(#SVGID_8_);fill:#FFFFFF;}
	.st9{clip-path:url(#SVGID_10_);fill:#FFFFFF;}
	.st10{clip-path:url(#SVGID_12_);fill:#FFFFFF;}
	.st11{clip-path:url(#SVGID_14_);fill:#FFFFFF;}
	.st12{clip-path:url(#SVGID_16_);fill:#FFFFFF;}
</style>
<circle class="st2" cx="16" cy="16" r="16"/>
<g>
	<g>
		<defs>
			<rect id="SVGID_3_" x="6" y="5" width="21" height="21"/>
		</defs>
		<clipPath id="SVGID_2_">
			<use xlink:href="#SVGID_3_"  style="overflow:visible;"/>
		</clipPath>
		<path class="st5" d="M27,24.3v-0.4h-0.7v-8.4h0h-9.8l-0.7,4.2H7.4v4.2H6.7L6,26h0.8v0h0.8h0.8h16.8h0.8H27L27,24.3L27,24.3z
			 M17.2,21.8v-1.4h1.4v1.4H17.2z M19.3,21.8v-1.4h1.4v1.4H19.3z M21.4,21.8v-1.4h1.4v1.4H21.4z M23.5,21.8v-1.4h2.1v1.4H23.5z
			 M23.5,16.2h2.1v2.1h-2.1V16.2z M21.4,16.2h1.4v2.1h-1.4V16.2z M19.3,16.2h1.4v2.1h-1.4V16.2z M17.2,16.2h1.4v2.1h-1.4V16.2z
			 M16.6,19h8.9v0.7h-9L16.6,19z M15.1,20.4h1.4v1.4h-1.4V20.4z M13,20.4h1.4v1.4H13V20.4z M10.9,20.4h1.4v1.4h-1.4V20.4z M8.1,20.4
			h2.1v1.4H8.1V20.4z"/>
	</g>
	<path class="st4" d="M17.9,11.3V12h0.7v2.8h6.3V12h0.7v-0.7H17.9z M20,14.1h-0.7V12H20V14.1z M21.4,14.1h-0.7V12h0.7V14.1z
		 M22.8,14.1h-0.7V12h0.7V14.1z M24.2,14.1h-0.7V12h0.7V14.1z M24.2,14.1"/>
	<path class="st4" d="M10.2,9.2H8.8L8.1,19h2.8L10.2,9.2z M13.7,9.2h-1.4L11.6,19h2.8L13.7,9.2z M14.1,8.5c-0.5,0-0.9-0.3-1-0.7
		c0,0,0,0,0,0c-0.2,0.1-0.5,0.1-0.7,0c0,0,0,0,0,0c-0.1,0.4-0.5,0.7-1,0.7c-0.5,0-0.9-0.3-1-0.7c0,0,0,0,0,0c-0.2,0.1-0.5,0.1-0.7,0
		C8.9,8,8.1,7.5,8.1,6.8c0-0.1,0-0.2,0.1-0.3c0-0.1-0.1-0.2-0.1-0.4c0-0.6,0.5-1,1-1c0.3,0,0.5,0.1,0.7,0.3C10.1,5.1,10.3,5,10.6,5
		c0.5,0,0.9,0.3,1,0.8c0.2-0.1,0.5-0.1,0.7,0c0,0,0,0,0,0c0.1-0.4,0.5-0.8,1-0.8c0.5,0,0.9,0.3,1,0.8c0,0,0.1,0,0.1,0
		C14.6,5.3,15,5,15.5,5c0.5,0,0.9,0.3,1,0.7c0.4,0.1,0.7,0.5,0.7,1c0,0.6-0.5,1-1,1c-0.3,0-0.5-0.1-0.7-0.3
		c-0.1,0.1-0.2,0.2-0.4,0.2C14.9,8.2,14.5,8.5,14.1,8.5L14.1,8.5z M13,7c0.1,0,0.1,0,0.2,0c0.1,0,0.1,0.1,0.2,0.1
		c0.2,0,0.4,0.2,0.4,0.3c0,0.2,0.2,0.3,0.3,0.3s0.4-0.2,0.4-0.3c0-0.2,0.2-0.3,0.4-0.3c0.2,0,0.3-0.2,0.3-0.3c0-0.2,0.2-0.3,0.4-0.3
		c0.2,0,0.3,0.2,0.3,0.3c0,0.2,0.2,0.3,0.4,0.3c0.2,0,0.4-0.2,0.4-0.3c0-0.2-0.2-0.3-0.4-0.3c-0.2,0-0.4-0.2-0.4-0.4
		c0-0.2-0.2-0.3-0.3-0.3c-0.2,0-0.4,0.2-0.4,0.3c0,0.2-0.2,0.4-0.3,0.4c-0.2,0-0.4,0.2-0.4,0.3c0,0.2-0.2,0.3-0.4,0.3
		c-0.2,0-0.3-0.2-0.3-0.3c0,0,0-0.1-0.1-0.2c-0.1-0.1-0.1-0.2,0-0.4c0-0.1,0.1-0.1,0.1-0.2c0-0.2-0.2-0.3-0.4-0.3
		c-0.2,0-0.4,0.2-0.4,0.3c0,0.2-0.2,0.4-0.3,0.4c0,0-0.1,0-0.2,0.1c-0.1,0.1-0.2,0.1-0.4,0c-0.1,0-0.1-0.1-0.2-0.1
		c-0.2,0-0.4,0.2-0.4,0.3s-0.2,0.3-0.4,0.3c-0.2,0-0.3-0.2-0.3-0.3c0,0,0-0.1-0.1-0.2c-0.1-0.1-0.1-0.2,0-0.4c0-0.1,0.1-0.1,0.1-0.2
		c0-0.2-0.2-0.3-0.4-0.3c-0.2,0-0.3,0.2-0.3,0.3c0,0.2-0.2,0.4-0.4,0.4c-0.2,0-0.4-0.2-0.4-0.4c0-0.2-0.2-0.3-0.4-0.3
		C9,5.7,8.8,5.9,8.8,6.1c0,0,0,0.1,0.1,0.2c0.1,0.1,0.1,0.2,0,0.4c0,0.1-0.1,0.1-0.1,0.2C8.8,7,9,7.1,9.2,7.1c0,0,0.1,0,0.2-0.1
		C9.5,7,9.6,7,9.7,7.1c0.1,0.1,0.2,0.1,0.3,0c0.1-0.1,0.2-0.1,0.4,0c0.1,0,0.1,0.1,0.2,0.1c0.2,0,0.4,0.2,0.4,0.3
		c0,0.2,0.2,0.3,0.3,0.3c0.2,0,0.4-0.2,0.4-0.3c0-0.2,0.2-0.3,0.4-0.3c0,0,0.1,0,0.2-0.1c0.1-0.1,0.2-0.1,0.4,0
		c0.1,0.1,0.2,0.1,0.3,0C12.9,7,13,7,13,7L13,7z M13,7"/>
</g>
</svg>
