<?xml version="1.0" encoding="utf-8"?>
<!-- Generator: Adobe Illustrator 23.0.0, SVG Export Plug-In . SVG Version: 6.00 Build 0)  -->
<svg version="1.1" id="图层_1" xmlns="http://www.w3.org/2000/svg" xmlns:xlink="http://www.w3.org/1999/xlink" x="0px" y="0px"
	 viewBox="0 0 32 32" style="enable-background:new 0 0 32 32;" xml:space="preserve">
<style type="text/css">
	.st0{fill:#E53935;}
	.st1{fill:#EF7406;}
	.st2{fill:#F4C70C;}
	.st3{fill:#1890FF;}
	.st4{fill:#FFFFFF;}
	.st5{clip-path:url(#SVGID_2_);fill:#FFFFFF;}
	.st6{clip-path:url(#SVGID_4_);fill:#FFFFFF;}
	.st7{clip-path:url(#SVGID_6_);fill:#FFFFFF;}
	.st8{clip-path:url(#SVGID_8_);fill:#FFFFFF;}
	.st9{clip-path:url(#SVGID_10_);fill:#FFFFFF;}
	.st10{clip-path:url(#SVGID_12_);fill:#FFFFFF;}
	.st11{clip-path:url(#SVGID_14_);fill:#FFFFFF;}
	.st12{clip-path:url(#SVGID_16_);fill:#FFFFFF;}
</style>
<circle class="st1" cx="16" cy="16" r="16"/>
<g>
	<g>
		<defs>
			<rect id="SVGID_13_" x="4" y="6.7" width="24.4" height="18.3"/>
		</defs>
		<clipPath id="SVGID_2_">
			<use xlink:href="#SVGID_13_"  style="overflow:visible;"/>
		</clipPath>
		<path class="st5" d="M23.4,12c-0.9-3.1-3.9-5.3-7.2-5.3C12.8,6.7,9.9,8.8,9,12c-2.9,0.7-5,3.4-5,6.4C4,22,6.9,25,10.6,25h11.2
			c3.7,0,6.6-2.9,6.6-6.6C28.4,15.3,26.4,12.7,23.4,12L23.4,12z M21.8,22.9H10.6c-2.5,0-4.6-2-4.6-4.6c0-2.2,1.6-4.2,3.9-4.5
			c0.4-0.1,0.7-0.4,0.8-0.8c0.6-2.5,2.9-4.4,5.5-4.4c2.5,0,4.9,1.8,5.5,4.4c0.1,0.4,0.4,0.7,0.8,0.8c2.2,0.3,3.9,2.2,3.9,4.5
			C26.4,20.9,24.3,22.9,21.8,22.9L21.8,22.9z M21.8,22.9"/>
	</g>
	<path class="st4" d="M14.3,14.8c-0.4,0-0.8,0.3-0.8,0.8v2.6l-2.5-3.1c-0.1-0.3-0.5-0.3-0.8-0.2c-0.3,0.1-0.5,0.4-0.5,0.7v4.9
		c0,0.4,0.3,0.8,0.8,0.8c0.5,0,0.7-0.5,0.7-0.9v-2.6l2.5,3.1c0.1,0.2,0.4,0.3,0.6,0.3h0.2c0.3-0.1,0.5-0.4,0.5-0.7v-4.9
		C15.1,15.2,14.7,14.8,14.3,14.8L14.3,14.8z M19.9,14.8c-0.4,0-0.8,0.3-0.8,0.8v1.6h-1.7v-1.6c0-0.4-0.3-0.8-0.8-0.8
		s-0.8,0.3-0.8,0.8v4.9c0,0.4,0.3,0.8,0.8,0.8s0.8-0.3,0.8-0.8v-1.6h1.7v1.6c0,0.4,0.3,0.8,0.8,0.8c0.5,0,0.8-0.3,0.8-0.8v-4.9
		C20.7,15.2,20.4,14.8,19.9,14.8L19.9,14.8z M22.6,17.6H22c-0.3,0-0.5,0.2-0.5,0.5c0,0.3,0.2,0.5,0.5,0.5h0.6c0.1,0,0.1,0.1,0.1,0.1
		s0,0.2-0.1,0.2H22c-0.3,0-0.5,0.2-0.5,0.5c0,0.3,0.2,0.5,0.5,0.5h0.6c0.1,0,0.1,0.1,0.1,0.1c0,0.1-0.1,0.1-0.1,0.1H22
		c-0.3,0-0.5,0.2-0.5,0.5c0,0.3,0.2,0.5,0.5,0.5h0.6c0.6,0,1.1-0.5,1.1-1.1c0-0.2-0.1-0.4-0.2-0.6c0.1-0.2,0.2-0.4,0.2-0.6
		C23.7,18.2,23.2,17.6,22.6,17.6L22.6,17.6z M22.6,17.6"/>
</g>
</svg>
