<svg id="图层_1" data-name="图层 1" xmlns="http://www.w3.org/2000/svg" viewBox="0 0 32 32"><defs><style>.cls-1{fill:#1890ff;}.cls-2{fill:#fff;}</style></defs><title>gis图标</title><circle class="cls-1" cx="16" cy="16" r="16"/><path class="cls-2" d="M18.47,19.76l6-4.18s4-3.18,4-7.35c0,0-3.25,3.82-6.29,4.82,0,0-3.9.94-3.74,6.71ZM9.79,20.82c.22-1.41.16-2.29,2.49-5.47s1.08-8.59,1.08-8.59A18.53,18.53,0,0,1,10.12,14c-2.28,3.24-.54,8.24-.33,6.83Zm0,0"/><path class="cls-2" d="M27.82,21.53H23.71c.69-1,2.79-4,4.35-4.59.16-.06-6.11-1.65-8,4.59H15.27c-.05-4.06,6.94-11.47,6.94-11.47-9,2.24-10.74,11.47-10.74,11.47H7.78C6.21,17.41,9.57,10.47,9.57,10.47,4.86,13,4.69,21.53,4.69,21.53H4.18a.74.74,0,0,0,0,1.47H27.82a.74.74,0,0,0,0-1.47Zm0,0"/></svg>