<svg id="图层_1" data-name="图层 1" xmlns="http://www.w3.org/2000/svg" xmlns:xlink="http://www.w3.org/1999/xlink" viewBox="0 0 32 32"><defs><style>.cls-1{fill:none;}.cls-2{fill:#1890ff;}.cls-3{clip-path:url(#clip-path);}.cls-4{fill:#fff;}</style><clipPath id="clip-path"><rect id="SVGID" class="cls-1" x="4" y="4.29" width="24.61" height="23.71"/></clipPath></defs><title>gis图标</title><circle class="cls-2" cx="16" cy="16" r="16"/><g class="cls-3"><path class="cls-4" d="M20.82,28V21.13l-3.38,3.46ZM10.68,11.76l3.46-6.61.38.69L11.3,11.91l.31,1.38,3.46-6.61.38.61-3.23,6.15.31,1.31,3.38-6.61,1.69,2.77,3.46-2.15L19.21,5.61,13.6,4.3l-3.15,6.15Zm0,0"/><path class="cls-4" d="M28.51,22.52,25,16.6l-1.31-.46,3.84,6.38h-.69L23.21,16.6,22,16.14l3.84,6.38h-.77L21.52,16.6l-1.31-.46,3.84,6.38H20.82v4.07h3.69l4.07-4.07Zm-14.29.54,1-.85-7.45.23,1.61-2.77-3.61-2L4,20.9l1.61,5.53v-.08l6.92-.23,1-.85-7.45.23.38-.69,6.92-.23,1-.85L6.92,24l.38-.61Zm6.92-10.37L22.28,8,16.44,11.6Zm0,0"/></g><path class="cls-4" d="M9.22,15.68,4.53,17l6,3.38Zm9.53,3.92c0-.61.08-1.54.08-2.61H16.68V16h2.69v-.46H17.29l.31-.23c-.23-.31-.46-.61-.61-.85l-.38.15c.23.31.38.54.54.77h-2v.46h1a8.71,8.71,0,0,1-.31,2.92,3.23,3.23,0,0,1-1.31,1.61c.15.15.23.31.38.46a4.07,4.07,0,0,0,1.77-3.46h1.69c0,.92-.08,1.61-.08,2.07s-.23.61-.61.61a5.1,5.1,0,0,1-1-.08,1.69,1.69,0,0,1,.08.61h1c.61.08,1-.31,1-1Zm0,0"/><path class="cls-4" d="M14.29,19.21a1.91,1.91,0,0,1-.61-.08c.08.15.08.38.15.54h.61c.54-.08.77-.61.61-1.38a3.33,3.33,0,0,0-.54-1.23l.54-1.77v-.46H13.14V20.9h.46V15.29h.92c-.15.54-.31,1.15-.54,1.84a2.83,2.83,0,0,1,.61,1.15c.15.54,0,.85-.31.92Zm0,0"/></svg>