<svg id="图层_1" data-name="图层 1" xmlns="http://www.w3.org/2000/svg" viewBox="0 0 32 32"><defs><style>.cls-1{fill:#1890ff;}.cls-2{fill:#fff;}</style></defs><title>gis图标</title><circle class="cls-1" cx="16" cy="16" r="16"/><path class="cls-2" d="M26.23,24.46l-.36,0,.07-11.91a1.81,1.81,0,0,0-1.84-1.77H21.5v-4A1.73,1.73,0,0,0,21,5.52,1.87,1.87,0,0,0,19.66,5H8.9a1.87,1.87,0,0,0-1.3.51,1.74,1.74,0,0,0-.51,1.25V24.53h-.3a.77.77,0,0,0-.79.73.75.75,0,0,0,.23.51.8.8,0,0,0,.56.22H26.23a.77.77,0,0,0,0-1.54ZM14.45,22.6l-.07,0H14l-.07,0c-6.3-2.5-5.52-10-5.48-10.09l0-.31h.31a1.43,1.43,0,0,0,1.33-1.43l0-.24.21-.1C13.33,9.31,13.91,9.1,14,9l.07,0h.12c.1,0,.33.1,3.83,1.4l.21.1,0,.24a1.49,1.49,0,0,0,1.33,1.47h.31l0,.3C20,12.59,20.75,20.12,14.45,22.6Z"/><path class="cls-2" d="M13.31,10c-.21,1.15-.73,3.08-1.91,4-1,.76-2,2.09-1.85,3.36a3.17,3.17,0,0,0,1.41,2,4,4,0,0,1-.12-1.58,4.32,4.32,0,0,1,2.28-3,2.36,2.36,0,0,1,1-.33,6.85,6.85,0,0,0-.16,1.06c0,.26,0,.85,1.14,1.71a2.41,2.41,0,0,1,.81,2.63,3.88,3.88,0,0,0,2-2.06c.36-1.08,0-2.4-1.17-3.93l-.41.41a.63.63,0,0,1-.68.13.6.6,0,0,1-.38-.57A5,5,0,0,0,13.33,10Zm0,0"/></svg>