<svg t="1591932395461" class="icon" viewBox="0 0 1024 1024" version="1.1" xmlns="http://www.w3.org/2000/svg" p-id="2837" width="200" height="200"><path d="M795.495141 712.297741l210.745414 211.065404c23.67926 23.67926 23.67926 61.11809 0 82.87741-23.67926 23.67926-61.054092 23.67926-82.685416 0l-212.665354-209.145464a438.70629 438.70629 0 0 1-267.831631 90.749164C198.905784 887.844255 0 688.554483 0 443.890128 0 199.289772 198.905784 0 443.058154 0s443.058154 199.289772 443.058155 443.890128c0 100.668854-33.470954 195.321896-90.55717 268.343615z m-352.436987 57.150214c179.1944 0 324.917846-145.979438 324.917847-325.557827C767.976001 264.375738 622.252555 118.3963 443.058154 118.3963S118.140308 264.31174 118.140308 443.890128c0 179.578388 145.723446 325.557826 324.917846 325.557827z" p-id="2838" fill="#ffffff"></path></svg>